Kana-Bold.sfdir
StartChar: uF0148
Encoding: 983368 983368 1
Width: 500
VWidth: 0
Flags: MW
LayerCount: 2
Fore
SplineSet
240 650 m 1
 240 120 l 1
 180 120 l 1
 180 640 l 1
 180 710 l 1
 216 714 l 1
 242 710 l 1
 250 710 l 1
 268 710 l 1
 294 710 l 1
 320 710 l 1
 346 710 l 1
 372 710 l 1
 398 710 l 1
 424 710 l 1
 460 710 l 1
 460 650 l 1
 424 650 l 1
 398 650 l 1
 372 650 l 1
 346 650 l 1
 320 650 l 1
 294 650 l 1
 268 650 l 1
 240 650 l 1
EndSplineSet
Comment: "Kage: aj1-00328+AAoA-Alias: uf0148"
EndChar
StartChar: uF0149
Encoding: 983369 983369 2
Width: 500
VWidth: 0
Flags: MW
LayerCount: 2
Fore
SplineSet
90 -50 m 1
 126 -50 l 1
 152 -50 l 1
 178 -50 l 1
 204 -50 l 1
 230 -50 l 1
 256 -50 l 1
 282 -50 l 1
 310 -50 l 1
 310 460 l 1
 370 460 l 1
 370 -40 l 1
 374 -80 l 1
 370 -110 l 1
 334 -114 l 1
 308 -110 l 1
 282 -110 l 1
 256 -110 l 1
 230 -110 l 1
 204 -110 l 1
 178 -110 l 1
 152 -110 l 1
 126 -110 l 1
 90 -110 l 1
 90 -50 l 1
EndSplineSet
Comment: "Kage: aj1-00329+AAoA-Alias: uf0149"
EndChar
StartChar: uF014A
Encoding: 983370 983370 3
Width: 500
VWidth: 0
Flags: MW
LayerCount: 2
Fore
SplineSet
83 113 m 1
 89 126 l 1
 124 116 l 1
 155 104 l 1
 184 92 l 1
 212 75 l 1
 236 56 l 1
 262 39 l 1
 285 17 l 1
 306 -5 l 1
 327 -28 l 1
 346 -57 l 1
 350 -88 l 1
 329 -114 l 1
 297 -120 l 1
 271 -102 l 1
 256 -77 l 1
 243 -53 l 1
 228 -32 l 1
 212 -12 l 1
 194 10 l 1
 175 30 l 1
 154 49 l 1
 134 71 l 1
 110 90 l 1
 83 113 l 1
EndSplineSet
Comment: "Kage: aj1-00330+AAoA-Alias: uf014a"
EndChar
StartChar: uF014B
Encoding: 983371 983371 4
Width: 500
VWidth: 0
Flags: MW
LayerCount: 2
Fore
SplineSet
154 300 m 1
 157 326 l 1
 169 353 l 1
 188 376 l 1
 217 393 l 1
 250 398 l 1
 283 393 l 1
 310 376 l 1
 331 353 l 1
 342 326 l 1
 346 300 l 1
 342 274 l 1
 331 246 l 1
 310 225 l 1
 284 209 l 1
 250 202 l 1
 217 208 l 1
 189 225 l 1
 169 246 l 1
 157 274 l 1
 154 300 l 1
EndSplineSet
Comment: "Kage: aj1-00331+AAoA-Alias: uf014b"
EndChar
StartChar: uF014C
Encoding: 983372 983372 5
Width: 500
VWidth: 0
Flags: MW
LayerCount: 2
Fore
SplineSet
67 373 m 1
 68 386 l 1
 70 401 l 1
 82 401 l 1
 83 387 l 1
 89 377 l 1
 95 369 l 1
 99 361 l 1
 106 357 l 1
 112 350 l 1
 118 346 l 1
 109 342 l 1
 106 340 l 1
 119 348 l 1
 133 349 l 1
 150 348 l 1
 167 350 l 1
 192 354 l 1
 217 357 l 1
 245 362 l 1
 275 366 l 1
 308 371 l 1
 354 377 l 1
 351 372 l 1
 346 376 l 1
 349 374 l 1
 349 383 l 1
 365 463 l 1
 381 527 l 1
 378 526 l 1
 378 529 l 1
 381 525 l 1
 373 527 l 1
 364 531 l 1
 349 532 l 1
 331 530 l 1
 311 528 l 1
 289 526 l 1
 264 522 l 1
 226 517 l 1
 227 524 l 1
 213 518 l 1
 187 511 l 1
 163 506 l 1
 146 500 l 1
 144 498 l 1
 126 486 l 1
 101 488 l 1
 86 500 l 1
 77 513 l 1
 71 525 l 1
 66 538 l 1
 65 550 l 1
 61 563 l 1
 61 576 l 1
 63 588 l 1
 67 600 l 1
 67 615 l 1
 79 615 l 1
 80 601 l 1
 84 592 l 1
 92 584 l 1
 98 576 l 1
 103 569 l 1
 108 565 l 1
 115 562 l 1
 106 557 l 1
 103 555 l 1
 117 563 l 1
 134 563 l 1
 154 563 l 1
 177 566 l 1
 203 567 l 1
 233 571 l 1
 267 576 l 1
 303 582 l 1
 343 586 l 1
 354 579 l 1
 358 577 l 1
 365 597 l 1
 380 605 l 1
 395 607 l 1
 413 604 l 1
 427 593 l 1
 436 582 l 1
 445 568 l 1
 452 552 l 1
 459 529 l 1
 451 504 l 1
 442 499 l 1
 434 440 l 1
 413 351 l 1
 390 269 l 1
 360 192 l 1
 325 124 l 1
 289 62 l 1
 247 7 l 1
 198 -39 l 1
 146 -77 l 1
 90 -106 l 1
 73 -103 l 1
 83 -96 l 1
 89 -90 l 1
 129 -47 l 1
 169 5 l 1
 206 58 l 1
 241 116 l 1
 275 176 l 1
 301 240 l 1
 327 311 l 1
 336 314 l 1
 343 311 l 1
 331 314 l 1
 318 313 l 1
 302 314 l 1
 283 312 l 1
 262 309 l 1
 238 306 l 1
 202 300 l 1
 203 305 l 1
 202 303 l 1
 181 296 l 1
 162 289 l 1
 148 285 l 1
 152 294 l 1
 153 292 l 1
 130 270 l 1
 102 274 l 1
 89 287 l 1
 80 297 l 1
 75 309 l 1
 69 322 l 1
 65 335 l 1
 66 349 l 1
 65 361 l 1
 67 373 l 1
EndSplineSet
Comment: "Kage: aj1-00332+AAoA-Alias: uf014c"
EndChar
StartChar: uF014D
Encoding: 983373 983373 6
Width: 500
VWidth: 0
Flags: MW
LayerCount: 2
Fore
SplineSet
213 322 m 1
 207 340 l 1
 222 334 l 1
 230 338 l 1
 237 338 l 1
 248 337 l 1
 256 333 l 1
 266 328 l 1
 274 323 l 1
 284 313 l 1
 286 307 l 1
 290 306 l 1
 295 297 l 1
 299 289 l 1
 298 263 l 1
 293 259 l 1
 294 239 l 1
 289 187 l 1
 281 134 l 1
 265 86 l 1
 247 41 l 1
 225 -3 l 1
 196 -40 l 1
 163 -73 l 1
 126 -99 l 1
 89 -114 l 1
 85 -117 l 1
 83 -117 l 1
 68 -120 l 1
 78 -109 l 1
 78 -109 l 1
 76 -109 l 1
 83 -103 l 1
 106 -73 l 1
 132 -38 l 1
 154 -3 l 1
 175 34 l 1
 194 71 l 1
 207 111 l 1
 216 153 l 1
 223 197 l 1
 225 242 l 1
 233 305 l 1
 230 301 l 1
 229 289 l 1
 226 298 l 1
 225 304 l 1
 224 308 l 1
 222 313 l 1
 221 317 l 1
 221 321 l 1
 213 322 l 1
280 206 m 1
 294 233 l 1
 307 257 l 1
 319 279 l 1
 330 301 l 1
 340 321 l 1
 349 341 l 1
 356 360 l 1
 363 379 l 1
 370 397 l 1
 371 398 l 1
 373 389 l 1
 373 387 l 1
 365 392 l 1
 351 393 l 1
 334 393 l 1
 312 394 l 1
 289 394 l 1
 263 392 l 1
 225 387 l 1
 226 391 l 1
 214 385 l 1
 189 381 l 1
 166 374 l 1
 148 369 l 1
 138 365 l 1
 121 355 l 1
 94 361 l 1
 84 373 l 1
 78 381 l 1
 71 391 l 1
 68 403 l 1
 67 414 l 1
 67 424 l 1
 67 434 l 1
 70 444 l 1
 73 452 l 1
 73 465 l 1
 85 465 l 1
 86 454 l 1
 90 449 l 1
 95 442 l 1
 101 437 l 1
 106 434 l 1
 112 431 l 1
 116 426 l 1
 107 423 l 1
 104 421 l 1
 120 429 l 1
 137 429 l 1
 157 429 l 1
 181 430 l 1
 208 433 l 1
 240 435 l 1
 274 435 l 1
 311 440 l 1
 365 442 l 1
 363 441 l 1
 363 444 l 1
 365 446 l 1
 369 451 l 1
 383 457 l 1
 400 456 l 1
 412 450 l 1
 423 441 l 1
 431 430 l 1
 438 420 l 1
 446 404 l 1
 444 378 l 1
 415 363 l 1
 417 362 l 1
 420 351 l 1
 410 333 l 1
 397 314 l 1
 380 295 l 1
 366 276 l 1
 349 258 l 1
 331 239 l 1
 312 219 l 1
 288 198 l 1
 280 206 l 1
EndSplineSet
Comment: "Kage: aj1-00333+AAoA-Alias: uf014d"
EndChar
StartChar: uF014E
Encoding: 983374 983374 7
Width: 500
VWidth: 0
Flags: MW
LayerCount: 2
Fore
SplineSet
309 490 m 1
 300 511 l 1
 318 504 l 1
 325 510 l 1
 334 505 l 1
 342 502 l 1
 351 496 l 1
 358 489 l 1
 365 480 l 1
 372 472 l 1
 379 461 l 1
 384 442 l 1
 378 418 l 1
 373 414 l 1
 361 390 l 1
 340 352 l 1
 316 313 l 1
 288 271 l 1
 261 238 l 1
 255 251 l 1
 267 260 l 1
 275 255 l 1
 283 249 l 1
 289 242 l 1
 295 233 l 1
 302 221 l 1
 301 195 l 1
 297 191 l 1
 298 192 l 1
 298 160 l 1
 298 126 l 1
 298 94 l 1
 298 60 l 1
 298 26 l 1
 298 -8 l 1
 298 -44 l 1
 298 -78 l 1
 298 -118 l 1
 288 -140 l 1
 262 -150 l 1
 236 -140 l 1
 226 -118 l 1
 226 -78 l 1
 226 -44 l 1
 226 -8 l 1
 226 26 l 1
 226 60 l 1
 226 94 l 1
 226 126 l 1
 226 160 l 1
 226 192 l 1
 235 214 l 1
 222 191 l 1
 186 153 l 1
 146 120 l 1
 105 89 l 1
 62 62 l 1
 54 70 l 1
 90 107 l 1
 124 143 l 1
 154 183 l 1
 186 221 l 1
 211 264 l 1
 240 303 l 1
 263 343 l 1
 283 383 l 1
 301 418 l 1
 314 450 l 1
 313 451 l 1
 313 460 l 1
 312 469 l 1
 313 475 l 1
 314 478 l 1
 312 482 l 1
 312 486 l 1
 314 489 l 1
 309 490 l 1
236 217 m 1
 250 227 l 1
 236 237 l 1
 236 217 l 1
EndSplineSet
Comment: "Kage: aj1-00334+AAoA-Alias: uf014e"
EndChar
StartChar: uF014F
Encoding: 983375 983375 8
Width: 500
VWidth: 0
Flags: MW
LayerCount: 2
Fore
SplineSet
147 312 m 1
 143 304 l 1
 155 306 l 1
 147 312 l 1
206 498 m 1
 197 519 l 1
 214 510 l 1
 221 515 l 1
 231 514 l 1
 238 510 l 1
 249 507 l 1
 256 500 l 1
 265 495 l 1
 274 487 l 1
 283 477 l 1
 290 461 l 1
 290 435 l 1
 286 431 l 1
 282 354 l 1
 295 352 l 1
 326 356 l 1
 334 356 l 1
 335 358 l 1
 337 362 l 1
 340 364 l 1
 351 373 l 1
 367 374 l 1
 381 372 l 1
 394 365 l 1
 405 354 l 1
 412 342 l 1
 418 329 l 1
 422 311 l 1
 419 287 l 1
 411 281 l 1
 406 248 l 1
 406 247 l 1
 405 241 l 1
 390 178 l 1
 373 120 l 1
 349 67 l 1
 324 19 l 1
 293 -23 l 1
 259 -59 l 1
 221 -89 l 1
 177 -111 l 1
 136 -123 l 1
 133 -125 l 1
 129 -127 l 1
 124 -116 l 1
 163 -81 l 1
 195 -46 l 1
 223 -10 l 1
 251 28 l 1
 275 69 l 1
 296 111 l 1
 312 158 l 1
 327 208 l 1
 336 261 l 1
 345 303 l 1
 342 305 l 1
 348 302 l 1
 357 302 l 1
 346 301 l 1
 338 305 l 1
 327 309 l 1
 315 311 l 1
 300 310 l 1
 283 309 l 1
 264 301 l 1
 230 301 l 1
 230 301 l 1
 228 301 l 1
 211 296 l 1
 195 291 l 1
 186 288 l 1
 179 282 l 1
 159 281 l 1
 157 288 l 1
 147 285 l 1
 152 296 l 1
 164 293 l 1
 164 276 l 1
 164 258 l 1
 164 240 l 1
 164 222 l 1
 164 204 l 1
 164 186 l 1
 164 166 l 1
 164 146 l 1
 164 122 l 1
 154 100 l 1
 128 90 l 1
 102 100 l 1
 92 122 l 1
 92 146 l 1
 92 166 l 1
 92 186 l 1
 92 204 l 1
 92 222 l 1
 92 240 l 1
 92 258 l 1
 92 276 l 1
 92 292 l 1
 93 307 l 1
 94 308 l 1
 92 320 l 1
 92 329 l 1
 92 339 l 1
 94 350 l 1
 95 357 l 1
 95 363 l 1
 96 370 l 1
 97 373 l 1
 99 377 l 1
 96 379 l 1
 95 402 l 1
 107 387 l 1
 116 388 l 1
 122 383 l 1
 129 378 l 1
 135 373 l 1
 143 363 l 1
 148 353 l 1
 149 354 l 1
 144 355 l 1
 155 353 l 1
 156 352 l 1
 154 351 l 1
 158 351 l 1
 160 351 l 1
 159 351 l 1
 162 353 l 1
 172 353 l 1
 175 351 l 1
 176 351 l 1
 188 349 l 1
 202 350 l 1
 222 349 l 1
 220 348 l 1
 218 473 l 1
 218 471 l 1
 217 465 l 1
 214 473 l 1
 214 480 l 1
 213 484 l 1
 213 489 l 1
 211 493 l 1
 211 497 l 1
 206 498 l 1
EndSplineSet
Comment: "Kage: aj1-00335+AAoA-Alias: uf014f"
EndChar
StartChar: uF0150
Encoding: 983376 983376 9
Width: 500
VWidth: 0
Flags: MW
LayerCount: 2
Fore
SplineSet
105 355 m 1
 109 365 l 1
 112 372 l 1
 112 385 l 1
 124 385 l 1
 125 373 l 1
 128 367 l 1
 133 362 l 1
 139 358 l 1
 144 354 l 1
 148 351 l 1
 152 351 l 1
 152 352 l 1
 158 351 l 1
 172 350 l 1
 187 350 l 1
 206 351 l 1
 225 356 l 1
 249 353 l 1
 274 355 l 1
 302 357 l 1
 311 360 l 1
 309 358 l 1
 308 355 l 1
 317 373 l 1
 328 381 l 1
 344 384 l 1
 357 383 l 1
 369 380 l 1
 381 373 l 1
 391 364 l 1
 402 350 l 1
 405 324 l 1
 389 300 l 1
 360 297 l 1
 349 304 l 1
 334 311 l 1
 335 312 l 1
 344 306 l 1
 336 307 l 1
 327 310 l 1
 314 313 l 1
 298 314 l 1
 281 313 l 1
 261 311 l 1
 238 309 l 1
 245 315 l 1
 238 322 l 1
 247 321 l 1
 255 314 l 1
 262 309 l 1
 269 306 l 1
 277 297 l 1
 283 285 l 1
 283 286 l 1
 284 286 l 1
 286 279 l 1
 288 271 l 1
 286 259 l 1
 281 60 l 1
 307 60 l 1
 349 64 l 1
 367 66 l 1
 374 67 l 1
 373 58 l 1
 377 56 l 1
 377 73 l 1
 388 81 l 1
 401 83 l 1
 413 83 l 1
 424 81 l 1
 435 75 l 1
 444 67 l 1
 451 59 l 1
 462 45 l 1
 463 19 l 1
 446 -4 l 1
 417 -6 l 1
 405 3 l 1
 395 4 l 1
 393 6 l 1
 394 5 l 1
 384 8 l 1
 375 14 l 1
 360 15 l 1
 342 15 l 1
 322 15 l 1
 298 17 l 1
 273 8 l 1
 232 10 l 1
 232 9 l 1
 238 9 l 1
 204 5 l 1
 175 2 l 1
 152 -3 l 1
 129 -7 l 1
 110 -1 l 1
 113 -4 l 1
 110 -19 l 1
 84 -16 l 1
 71 -5 l 1
 62 5 l 1
 56 16 l 1
 51 29 l 1
 54 40 l 1
 53 52 l 1
 54 62 l 1
 57 74 l 1
 61 83 l 1
 61 97 l 1
 73 97 l 1
 73 84 l 1
 79 76 l 1
 84 70 l 1
 88 64 l 1
 94 60 l 1
 98 58 l 1
 99 60 l 1
 108 61 l 1
 126 58 l 1
 147 57 l 1
 172 56 l 1
 200 58 l 1
 221 56 l 1
 217 289 l 1
 219 290 l 1
 219 279 l 1
 217 284 l 1
 220 290 l 1
 220 292 l 1
 218 297 l 1
 218 301 l 1
 214 297 l 1
 206 298 l 1
 211 304 l 1
 215 302 l 1
 195 296 l 1
 179 292 l 1
 170 288 l 1
 155 277 l 1
 127 283 l 1
 117 293 l 1
 109 303 l 1
 103 314 l 1
 102 325 l 1
 102 337 l 1
 105 346 l 1
 105 355 l 1
EndSplineSet
Comment: "Kage: aj1-00336+AAoA-Alias: uf0150"
EndChar
StartChar: uF0151
Encoding: 983377 983377 10
Width: 500
VWidth: 0
Flags: MW
LayerCount: 2
Fore
SplineSet
248 325 m 1
 248 391 l 1
 251 473 l 1
 251 471 l 1
 251 463 l 1
 251 469 l 1
 250 474 l 1
 249 479 l 1
 246 483 l 1
 246 486 l 1
 247 491 l 1
 241 491 l 1
 229 512 l 1
 248 503 l 1
 254 508 l 1
 263 509 l 1
 271 507 l 1
 281 505 l 1
 290 499 l 1
 299 494 l 1
 309 488 l 1
 317 476 l 1
 325 461 l 1
 324 434 l 1
 320 431 l 1
 320 392 l 1
 320 325 l 1
 319 306 l 1
 316 315 l 1
 349 316 l 1
 367 318 l 1
 374 319 l 1
 373 310 l 1
 377 308 l 1
 377 326 l 1
 387 333 l 1
 401 337 l 1
 413 336 l 1
 424 333 l 1
 435 327 l 1
 444 319 l 1
 451 311 l 1
 462 297 l 1
 463 271 l 1
 446 248 l 1
 417 246 l 1
 405 255 l 1
 395 256 l 1
 393 258 l 1
 393 257 l 1
 384 259 l 1
 375 266 l 1
 360 267 l 1
 342 267 l 1
 322 267 l 1
 317 266 l 1
 323 263 l 1
 320 202 l 1
 320 144 l 1
 321 89 l 1
 322 38 l 1
 322 -12 l 1
 326 -58 l 1
 324 -106 l 1
 315 -129 l 1
 288 -141 l 1
 261 -129 l 1
 252 -106 l 1
 252 -98 l 1
 247 -91 l 1
 249 -94 l 1
 253 -99 l 1
 244 -89 l 1
 239 -84 l 1
 232 -75 l 1
 230 -62 l 1
 219 -50 l 1
 208 -38 l 1
 196 -23 l 1
 176 -9 l 1
 183 2 l 1
 203 -11 l 1
 222 -18 l 1
 237 -24 l 1
 252 -30 l 1
 265 -35 l 1
 257 -32 l 1
 250 -12 l 1
 250 37 l 1
 249 89 l 1
 248 144 l 1
 248 202 l 1
 260 211 l 1
 262 188 l 1
 242 149 l 1
 219 112 l 1
 195 77 l 1
 170 45 l 1
 144 13 l 1
 115 -19 l 1
 85 -46 l 1
 50 -74 l 1
 42 -66 l 1
 68 -31 l 1
 91 2 l 1
 113 35 l 1
 134 69 l 1
 153 103 l 1
 171 139 l 1
 188 176 l 1
 203 213 l 1
 215 254 l 1
 227 264 l 1
 236 264 l 1
 204 257 l 1
 175 254 l 1
 152 249 l 1
 129 245 l 1
 109 251 l 1
 112 248 l 1
 110 233 l 1
 84 236 l 1
 71 247 l 1
 62 257 l 1
 56 268 l 1
 51 281 l 1
 54 292 l 1
 53 304 l 1
 54 314 l 1
 57 326 l 1
 61 335 l 1
 61 349 l 1
 73 349 l 1
 73 336 l 1
 79 328 l 1
 84 322 l 1
 88 316 l 1
 94 312 l 1
 98 310 l 1
 99 313 l 1
 108 315 l 1
 127 310 l 1
 147 309 l 1
 172 308 l 1
 200 310 l 1
 232 310 l 1
 251 313 l 1
 248 325 l 1
EndSplineSet
Comment: "Kage: aj1-00337+AAoA-Alias: uf0151"
EndChar
StartChar: uF0152
Encoding: 983378 983378 11
Width: 500
VWidth: 0
Flags: MW
LayerCount: 2
Fore
SplineSet
298 117 m 1
 310 145 l 1
 321 173 l 1
 328 197 l 1
 337 220 l 1
 344 242 l 1
 351 263 l 1
 358 282 l 1
 364 301 l 1
 367 320 l 1
 367 311 l 1
 375 309 l 1
 365 309 l 1
 351 306 l 1
 335 301 l 1
 317 295 l 1
 295 288 l 1
 263 274 l 1
 264 275 l 1
 268 276 l 1
 257 264 l 1
 262 227 l 1
 268 169 l 1
 276 111 l 1
 284 44 l 1
 292 -23 l 1
 301 -97 l 1
 296 -121 l 1
 271 -138 l 1
 241 -129 l 1
 231 -104 l 1
 221 -33 l 1
 212 35 l 1
 204 101 l 1
 197 163 l 1
 190 219 l 1
 192 236 l 1
 182 231 l 1
 159 220 l 1
 143 209 l 1
 140 207 l 1
 142 208 l 1
 121 189 l 1
 94 189 l 1
 79 195 l 1
 68 205 l 1
 63 213 l 1
 57 225 l 1
 55 235 l 1
 60 246 l 1
 58 258 l 1
 61 268 l 1
 61 278 l 1
 58 292 l 1
 69 293 l 1
 74 281 l 1
 80 275 l 1
 86 268 l 1
 93 264 l 1
 100 260 l 1
 91 260 l 1
 83 258 l 1
 102 266 l 1
 118 269 l 1
 138 274 l 1
 161 282 l 1
 185 298 l 1
 180 293 l 1
 176 326 l 1
 170 372 l 1
 164 417 l 1
 160 461 l 1
 162 461 l 1
 160 464 l 1
 158 469 l 1
 160 471 l 1
 157 474 l 1
 151 471 l 1
 134 484 l 1
 153 486 l 1
 152 500 l 1
 162 504 l 1
 173 507 l 1
 186 501 l 1
 196 497 l 1
 207 494 l 1
 217 488 l 1
 220 485 l 1
 226 483 l 1
 229 475 l 1
 237 469 l 1
 242 439 l 1
 235 433 l 1
 236 428 l 1
 242 383 l 1
 248 333 l 1
 247 314 l 1
 253 312 l 1
 289 325 l 1
 331 340 l 1
 336 342 l 1
 348 350 l 1
 355 363 l 1
 364 369 l 1
 365 370 l 1
 370 374 l 1
 386 382 l 1
 403 382 l 1
 416 377 l 1
 429 370 l 1
 440 360 l 1
 449 345 l 1
 450 316 l 1
 438 314 l 1
 437 317 l 1
 436 294 l 1
 423 277 l 1
 413 260 l 1
 402 240 l 1
 389 221 l 1
 376 201 l 1
 361 180 l 1
 345 158 l 1
 328 135 l 1
 309 109 l 1
 298 117 l 1
EndSplineSet
Comment: "Kage: aj1-00338+AAoA-Alias: uf0152"
EndChar
StartChar: uF0153
Encoding: 983379 983379 12
Width: 500
VWidth: 0
Flags: MW
LayerCount: 2
Fore
SplineSet
286 360 m 1
 297 374 l 1
 299 381 l 1
 314 389 l 1
 329 389 l 1
 341 384 l 1
 351 376 l 1
 357 370 l 1
 365 361 l 1
 371 350 l 1
 379 336 l 1
 374 307 l 1
 366 300 l 1
 310 62 l 1
 307 60 l 1
 349 64 l 1
 367 66 l 1
 374 67 l 1
 373 58 l 1
 377 56 l 1
 377 74 l 1
 387 82 l 1
 400 85 l 1
 413 85 l 1
 424 81 l 1
 435 75 l 1
 444 67 l 1
 451 59 l 1
 462 45 l 1
 464 19 l 1
 446 -4 l 1
 417 -6 l 1
 405 3 l 1
 395 4 l 1
 393 6 l 1
 393 5 l 1
 384 7 l 1
 375 14 l 1
 360 15 l 1
 342 15 l 1
 322 15 l 1
 299 10 l 1
 274 5 l 1
 230 8 l 1
 229 10 l 1
 235 12 l 1
 204 5 l 1
 175 2 l 1
 152 -3 l 1
 129 -7 l 1
 122 4 l 1
 130 6 l 1
 110 -21 l 1
 83 -17 l 1
 71 -5 l 1
 62 5 l 1
 55 16 l 1
 51 29 l 1
 54 40 l 1
 53 52 l 1
 54 62 l 1
 57 74 l 1
 61 83 l 1
 61 97 l 1
 73 97 l 1
 73 84 l 1
 79 76 l 1
 84 70 l 1
 88 64 l 1
 94 60 l 1
 98 58 l 1
 99 61 l 1
 108 63 l 1
 127 58 l 1
 147 57 l 1
 172 56 l 1
 200 58 l 1
 232 58 l 1
 246 59 l 1
 296 314 l 1
 302 308 l 1
 298 312 l 1
 290 313 l 1
 280 315 l 1
 269 313 l 1
 255 312 l 1
 243 307 l 1
 216 302 l 1
 217 309 l 1
 216 307 l 1
 203 301 l 1
 193 295 l 1
 195 294 l 1
 195 292 l 1
 170 276 l 1
 156 278 l 1
 149 280 l 1
 149 281 l 1
 143 282 l 1
 131 292 l 1
 122 301 l 1
 117 314 l 1
 118 326 l 1
 116 338 l 1
 118 349 l 1
 117 358 l 1
 122 369 l 1
 122 379 l 1
 124 393 l 1
 136 393 l 1
 137 380 l 1
 141 371 l 1
 145 365 l 1
 151 360 l 1
 156 356 l 1
 162 353 l 1
 166 350 l 1
 164 352 l 1
 168 353 l 1
 180 352 l 1
 193 351 l 1
 206 349 l 1
 221 353 l 1
 237 355 l 1
 255 355 l 1
 274 357 l 1
 286 361 l 1
 290 364 l 1
 294 369 l 1
 292 356 l 1
 286 360 l 1
EndSplineSet
Comment: "Kage: aj1-00339+AAoA-Alias: uf0153"
EndChar
StartChar: uF0154
Encoding: 983380 983380 13
Width: 500
VWidth: 0
Flags: MW
LayerCount: 2
Fore
SplineSet
112 206 m 1
 115 214 l 1
 118 222 l 1
 117 233 l 1
 129 233 l 1
 130 223 l 1
 134 219 l 1
 139 215 l 1
 145 214 l 1
 149 211 l 1
 151 212 l 1
 149 213 l 1
 147 213 l 1
 156 214 l 1
 163 213 l 1
 164 210 l 1
 162 210 l 1
 174 209 l 1
 186 209 l 1
 199 207 l 1
 215 211 l 1
 233 213 l 1
 253 216 l 1
 275 218 l 1
 310 224 l 1
 308 220 l 1
 303 225 l 1
 319 227 l 1
 314 226 l 1
 310 257 l 1
 312 299 l 1
 314 341 l 1
 331 390 l 1
 337 367 l 1
 318 368 l 1
 307 371 l 1
 291 368 l 1
 273 368 l 1
 253 366 l 1
 229 363 l 1
 192 358 l 1
 195 362 l 1
 194 357 l 1
 180 353 l 1
 173 349 l 1
 159 338 l 1
 133 341 l 1
 122 350 l 1
 115 358 l 1
 109 368 l 1
 106 377 l 1
 103 387 l 1
 104 396 l 1
 108 405 l 1
 112 414 l 1
 115 422 l 1
 115 433 l 1
 127 433 l 1
 127 423 l 1
 133 419 l 1
 136 414 l 1
 142 410 l 1
 146 409 l 1
 147 410 l 1
 147 412 l 1
 160 412 l 1
 170 409 l 1
 183 410 l 1
 199 411 l 1
 217 411 l 1
 237 414 l 1
 260 416 l 1
 285 420 l 1
 322 423 l 1
 317 420 l 1
 311 422 l 1
 310 424 l 1
 309 424 l 1
 317 431 l 1
 327 438 l 1
 341 441 l 1
 356 438 l 1
 366 431 l 1
 376 422 l 1
 383 412 l 1
 391 402 l 1
 397 382 l 1
 391 359 l 1
 386 356 l 1
 386 337 l 1
 384 295 l 1
 382 253 l 1
 381 210 l 1
 377 167 l 1
 374 123 l 1
 372 78 l 1
 370 33 l 1
 369 -13 l 1
 366 -62 l 1
 353 -84 l 1
 328 -95 l 1
 303 -82 l 1
 294 -60 l 1
 297 -41 l 1
 303 -43 l 1
 303 -44 l 1
 294 -42 l 1
 287 -40 l 1
 276 -40 l 1
 262 -39 l 1
 245 -39 l 1
 227 -41 l 1
 207 -42 l 1
 173 -46 l 1
 176 -45 l 1
 178 -48 l 1
 166 -51 l 1
 159 -55 l 1
 143 -66 l 1
 116 -60 l 1
 106 -51 l 1
 98 -41 l 1
 94 -33 l 1
 91 -23 l 1
 89 -13 l 1
 91 -3 l 1
 91 6 l 1
 94 15 l 1
 97 22 l 1
 97 33 l 1
 109 33 l 1
 110 23 l 1
 114 19 l 1
 119 16 l 1
 125 13 l 1
 129 10 l 1
 134 7 l 1
 137 7 l 1
 138 8 l 1
 138 8 l 1
 147 8 l 1
 156 5 l 1
 168 5 l 1
 183 5 l 1
 201 6 l 1
 219 7 l 1
 241 9 l 1
 265 12 l 1
 302 15 l 1
 301 14 l 1
 302 20 l 1
 306 18 308 19 301 17 c 1
 298 36 l 1
 300 82 l 1
 303 127 l 1
 305 173 l 1
 306 170 l 1
 312 161 l 1
 314 161 l 1
 306 163 l 1
 301 168 l 1
 291 168 l 1
 279 168 l 1
 263 167 l 1
 246 165 l 1
 227 163 l 1
 195 157 l 1
 197 163 l 1
 196 159 l 1
 185 154 l 1
 176 147 l 1
 170 143 l 1
 148 141 l 1
 147 149 l 1
 141 146 l 1
 129 154 l 1
 120 160 l 1
 114 169 l 1
 110 179 l 1
 107 188 l 1
 109 197 l 1
 112 206 l 1
EndSplineSet
Comment: "Kage: aj1-00340+AAoA-Alias: uf0154"
EndChar
StartChar: uF0155
Encoding: 983381 983381 14
Width: 500
VWidth: 0
Flags: MW
LayerCount: 2
Fore
SplineSet
72 404 m 1
 81 412 l 1
 95 400 l 1
 107 390 l 1
 120 376 l 1
 130 363 l 1
 141 349 l 1
 151 332 l 1
 159 315 l 1
 167 297 l 1
 173 278 l 1
 179 254 l 1
 173 231 l 1
 151 216 l 1
 126 222 l 1
 112 241 l 1
 107 265 l 1
 107 281 l 1
 103 297 l 1
 100 314 l 1
 97 330 l 1
 93 345 l 1
 90 361 l 1
 85 375 l 1
 80 391 l 1
 72 404 l 1
185 456 m 1
 194 464 l 1
 207 452 l 1
 220 442 l 1
 233 430 l 1
 244 416 l 1
 253 401 l 1
 263 385 l 1
 272 369 l 1
 279 351 l 1
 285 332 l 1
 292 310 l 1
 286 287 l 1
 264 272 l 1
 238 278 l 1
 225 297 l 1
 222 317 l 1
 219 335 l 1
 216 351 l 1
 213 367 l 1
 209 383 l 1
 207 398 l 1
 203 413 l 1
 199 427 l 1
 194 443 l 1
 185 456 l 1
359 433 m 1
 351 449 l 1
 368 442 l 1
 377 446 l 1
 385 444 l 1
 395 440 l 1
 404 433 l 1
 411 426 l 1
 420 418 l 1
 427 407 l 1
 433 393 l 1
 440 376 l 1
 434 353 l 1
 429 348 l 1
 417 304 l 1
 396 238 l 1
 373 175 l 1
 345 116 l 1
 316 64 l 1
 285 16 l 1
 248 -24 l 1
 211 -60 l 1
 169 -87 l 1
 124 -110 l 1
 116 -102 l 1
 119 -100 l 1
 120 -99 l 1
 154 -59 l 1
 187 -19 l 1
 219 23 l 1
 246 67 l 1
 274 115 l 1
 299 163 l 1
 321 215 l 1
 340 270 l 1
 356 327 l 1
 368 383 l 1
 367 386 l 1
 368 396 l 1
 367 403 l 1
 367 411 l 1
 366 416 l 1
 364 421 l 1
 364 425 l 1
 365 429 l 1
 359 433 l 1
EndSplineSet
Comment: "Kage: aj1-00341+AAoA-Alias: uf0155"
EndChar
StartChar: uF0156
Encoding: 983382 983382 15
Width: 500
VWidth: 0
Flags: MW
LayerCount: 2
Fore
SplineSet
6 371 m 1
 10 391 l 1
 13 415 l 1
 19 433 l 1
 25 415 l 1
 28 393 l 1
 36 376 l 1
 42 362 l 1
 49 351 l 1
 57 343 l 1
 63 336 l 1
 66 335 l 1
 69 336 l 1
 71 336 l 1
 73 336 l 1
 75 336 l 1
 86 333 l 1
 128 333 l 1
 170 334 l 1
 212 334 l 1
 254 335 l 1
 298 336 l 1
 341 336 l 1
 385 336 l 1
 406 336 l 1
 412 339 l 1
 420 341 l 1
 429 347 l 1
 440 350 l 1
 454 352 l 1
 472 349 l 1
 488 340 l 1
 501 314 l 1
 503 315 l 1
 500 327 l 1
 508 319 l 1
 513 310 l 1
 514 281 l 1
 493 257 l 1
 464 260 l 1
 460 263 l 1
 429 261 l 1
 385 264 l 1
 342 264 l 1
 298 264 l 1
 255 263 l 1
 212 262 l 1
 170 262 l 1
 128 261 l 1
 95 260 l 1
 87 249 l 1
 59 244 l 1
 38 256 l 1
 25 268 l 1
 15 282 l 1
 7 298 l 1
 5 317 l 1
 3 335 l 1
 5 352 l 1
 6 371 l 1
EndSplineSet
Comment: "Kage: aj1-00342+AAoA-Alias: uf0156"
EndChar
StartChar: uF0157
Encoding: 983383 983383 16
Width: 500
VWidth: 0
Flags: MW
LayerCount: 2
Fore
SplineSet
205 454 m 1
 198 473 l 1
 215 466 l 1
 224 469 l 1
 234 470 l 1
 245 466 l 1
 257 461 l 1
 266 453 l 1
 275 444 l 1
 286 436 l 1
 291 429 l 1
 294 427 l 1
 297 421 l 1
 304 406 l 1
 303 379 l 1
 297 373 l 1
 298 352 l 1
 298 349 l 1
 291 284 l 1
 281 220 l 1
 265 159 l 1
 241 101 l 1
 213 50 l 1
 180 3 l 1
 140 -38 l 1
 93 -71 l 1
 46 -91 l 1
 40 -97 l 1
 40 -96 l 1
 42 -95 l 1
 26 -99 l 1
 36 -87 l 1
 36 -87 l 1
 34 -87 l 1
 41 -82 l 1
 73 -44 l 1
 105 -1 l 1
 135 44 l 1
 162 89 l 1
 185 136 l 1
 201 186 l 1
 215 240 l 1
 225 295 l 1
 229 351 l 1
 239 406 l 1
 243 404 l 1
 229 414 l 1
 225 423 l 1
 223 431 l 1
 220 437 l 1
 218 444 l 1
 216 448 l 1
 213 453 l 1
 205 454 l 1
288 306 m 1
 307 339 l 1
 322 369 l 1
 338 396 l 1
 353 423 l 1
 367 449 l 1
 379 473 l 1
 390 497 l 1
 399 520 l 1
 407 542 l 1
 410 546 l 1
 421 550 l 1
 432 539 l 1
 415 536 l 1
 406 539 l 1
 394 543 l 1
 376 546 l 1
 354 546 l 1
 329 544 l 1
 299 542 l 1
 267 541 l 1
 216 537 l 1
 219 543 l 1
 205 537 l 1
 172 531 l 1
 143 525 l 1
 120 519 l 1
 111 517 l 1
 112 515 l 1
 89 500 l 1
 63 506 l 1
 50 519 l 1
 41 530 l 1
 35 543 l 1
 31 556 l 1
 29 567 l 1
 25 581 l 1
 25 593 l 1
 27 604 l 1
 31 616 l 1
 31 631 l 1
 43 631 l 1
 44 617 l 1
 48 609 l 1
 56 602 l 1
 62 594 l 1
 67 588 l 1
 73 582 l 1
 80 577 l 1
 83 577 l 1
 91 579 l 1
 111 578 l 1
 135 580 l 1
 164 582 l 1
 198 585 l 1
 237 590 l 1
 279 592 l 1
 327 597 l 1
 394 599 l 1
 392 595 l 1
 392 598 l 1
 392 600 l 1
 391 602 l 1
 405 612 l 1
 420 616 l 1
 436 614 l 1
 450 606 l 1
 462 596 l 1
 471 583 l 1
 480 570 l 1
 488 549 l 1
 487 524 l 1
 463 505 l 1
 463 507 l 1
 456 492 l 1
 443 469 l 1
 427 446 l 1
 409 422 l 1
 391 397 l 1
 371 375 l 1
 349 349 l 1
 326 325 l 1
 297 300 l 1
 288 306 l 1
EndSplineSet
Comment: "Kage: aj1-00343+AAoA-Alias: uf0157"
EndChar
StartChar: uF0158
Encoding: 983384 983384 17
Width: 500
VWidth: 0
Flags: MW
LayerCount: 2
Fore
SplineSet
325 664 m 1
 316 685 l 1
 334 676 l 1
 343 678 l 1
 354 678 l 1
 362 671 l 1
 372 666 l 1
 380 656 l 1
 388 646 l 1
 395 632 l 1
 404 619 l 1
 409 599 l 1
 403 575 l 1
 394 568 l 1
 381 541 l 1
 355 493 l 1
 326 444 l 1
 291 392 l 1
 266 363 l 1
 260 366 l 1
 270 365 l 1
 277 360 l 1
 286 353 l 1
 293 346 l 1
 294 344 l 1
 298 341 l 1
 300 335 l 1
 300 336 l 1
 308 321 l 1
 306 295 l 1
 300 289 l 1
 301 290 l 1
 301 249 l 1
 300 208 l 1
 301 166 l 1
 301 124 l 1
 301 81 l 1
 301 38 l 1
 301 -6 l 1
 301 -50 l 1
 301 -99 l 1
 291 -121 l 1
 265 -131 l 1
 239 -121 l 1
 229 -99 l 1
 229 -50 l 1
 229 -6 l 1
 229 38 l 1
 229 81 l 1
 229 124 l 1
 229 166 l 1
 228 208 l 1
 229 249 l 1
 229 290 l 1
 236 344 l 1
 234 339 l 1
 235 329 l 1
 234 336 l 1
 239 331 l 1
 210 293 l 1
 166 245 l 1
 117 203 l 1
 67 164 l 1
 13 129 l 1
 7 138 l 1
 52 182 l 1
 95 226 l 1
 136 273 l 1
 175 323 l 1
 207 376 l 1
 243 425 l 1
 273 475 l 1
 299 525 l 1
 321 569 l 1
 351 624 l 1
 351 599 l 1
 337 613 l 1
 335 625 l 1
 334 635 l 1
 334 642 l 1
 333 649 l 1
 333 655 l 1
 331 658 l 1
 331 663 l 1
 325 664 l 1
EndSplineSet
Comment: "Kage: aj1-00344+AAoA-Alias: uf0158"
EndChar
StartChar: uF0159
Encoding: 983385 983385 18
Width: 500
VWidth: 0
Flags: MW
LayerCount: 2
Fore
SplineSet
195 674 m 1
 186 695 l 1
 205 686 l 1
 213 688 l 1
 224 688 l 1
 234 684 l 1
 245 678 l 1
 254 670 l 1
 265 663 l 1
 273 651 l 1
 284 639 l 1
 293 621 l 1
 292 595 l 1
 286 589 l 1
 282 489 l 1
 306 490 l 1
 344 492 l 1
 354 484 l 1
 358 481 l 1
 365 505 l 1
 381 511 l 1
 396 513 l 1
 414 508 l 1
 427 499 l 1
 438 487 l 1
 446 472 l 1
 452 457 l 1
 459 435 l 1
 453 409 l 1
 443 402 l 1
 435 352 l 1
 418 274 l 1
 395 203 l 1
 369 137 l 1
 337 78 l 1
 300 25 l 1
 257 -21 l 1
 210 -57 l 1
 158 -86 l 1
 106 -103 l 1
 103 -105 l 1
 99 -107 l 1
 94 -96 l 1
 143 -55 l 1
 184 -11 l 1
 222 35 l 1
 257 81 l 1
 287 133 l 1
 315 186 l 1
 335 245 l 1
 353 307 l 1
 366 374 l 1
 376 434 l 1
 379 430 l 1
 376 432 l 1
 371 433 l 1
 362 438 l 1
 348 440 l 1
 331 439 l 1
 313 438 l 1
 291 436 l 1
 265 429 l 1
 229 428 l 1
 228 431 l 1
 221 431 l 1
 199 426 l 1
 182 421 l 1
 167 415 l 1
 155 412 l 1
 138 410 l 1
 136 416 l 1
 132 415 l 1
 119 420 l 1
 114 425 l 1
 126 424 l 1
 133 434 l 1
 133 415 l 1
 133 394 l 1
 132 372 l 1
 133 350 l 1
 133 328 l 1
 133 304 l 1
 133 280 l 1
 133 256 l 1
 133 231 l 1
 133 201 l 1
 123 179 l 1
 97 168 l 1
 70 179 l 1
 61 202 l 1
 61 231 l 1
 61 256 l 1
 61 280 l 1
 61 304 l 1
 61 328 l 1
 61 350 l 1
 60 372 l 1
 61 394 l 1
 61 415 l 1
 65 447 l 1
 65 446 l 1
 60 446 l 1
 59 461 l 1
 60 475 l 1
 61 487 l 1
 63 496 l 1
 62 503 l 1
 60 511 l 1
 60 518 l 1
 62 523 l 1
 59 525 l 1
 56 548 l 1
 71 533 l 1
 80 531 l 1
 87 527 l 1
 95 519 l 1
 102 511 l 1
 110 500 l 1
 116 491 l 1
 121 491 l 1
 124 488 l 1
 128 486 l 1
 130 484 l 1
 132 480 l 1
 137 479 l 1
 137 480 l 1
 136 481 l 1
 140 483 l 1
 153 483 l 1
 155 480 l 1
 157 481 l 1
 173 480 l 1
 191 480 l 1
 214 482 l 1
 218 482 l 1
 216 626 l 1
 215 633 l 1
 211 643 l 1
 211 651 l 1
 208 658 l 1
 207 664 l 1
 204 668 l 1
 203 673 l 1
 195 674 l 1
EndSplineSet
Comment: "Kage: aj1-00345+AAoA-Alias: uf0159"
EndChar
StartChar: uF015A
Encoding: 983386 983386 19
Width: 500
VWidth: 0
Flags: MW
LayerCount: 2
Fore
SplineSet
72 494 m 1
 75 506 l 1
 79 516 l 1
 79 531 l 1
 91 531 l 1
 91 517 l 1
 97 510 l 1
 103 502 l 1
 107 494 l 1
 114 489 l 1
 120 483 l 1
 124 480 l 1
 126 483 l 1
 136 482 l 1
 151 481 l 1
 171 482 l 1
 194 484 l 1
 219 485 l 1
 249 490 l 1
 280 493 l 1
 315 495 l 1
 331 498 l 1
 328 502 l 1
 339 513 l 1
 351 521 l 1
 369 525 l 1
 385 522 l 1
 398 517 l 1
 412 509 l 1
 421 497 l 1
 435 482 l 1
 438 455 l 1
 420 430 l 1
 391 428 l 1
 378 439 l 1
 366 442 l 1
 367 443 l 1
 371 438 l 1
 359 439 l 1
 347 442 l 1
 330 445 l 1
 311 445 l 1
 289 441 l 1
 263 438 l 1
 235 437 l 1
 231 442 l 1
 223 446 l 1
 233 447 l 1
 243 443 l 1
 252 439 l 1
 261 431 l 1
 270 424 l 1
 277 414 l 1
 281 409 l 1
 284 406 l 1
 286 395 l 1
 290 385 l 1
 286 369 l 1
 281 120 l 1
 321 124 l 1
 374 127 l 1
 408 133 l 1
 405 130 l 1
 412 140 l 1
 427 147 l 1
 438 149 l 1
 452 149 l 1
 466 143 l 1
 477 136 l 1
 487 127 l 1
 495 115 l 1
 507 101 l 1
 510 73 l 1
 491 49 l 1
 463 48 l 1
 444 63 l 1
 445 62 l 1
 444 59 l 1
 437 62 l 1
 431 64 l 1
 422 67 l 1
 407 72 l 1
 388 74 l 1
 366 73 l 1
 339 72 l 1
 311 70 l 1
 277 68 l 1
 228 66 l 1
 228 67 l 1
 232 69 l 1
 192 64 l 1
 157 58 l 1
 125 53 l 1
 98 49 l 1
 98 50 l 1
 101 52 l 1
 76 33 l 1
 49 37 l 1
 33 48 l 1
 23 60 l 1
 15 74 l 1
 14 89 l 1
 10 101 l 1
 9 115 l 1
 8 129 l 1
 11 142 l 1
 14 154 l 1
 15 171 l 1
 27 171 l 1
 30 155 l 1
 33 144 l 1
 39 136 l 1
 46 127 l 1
 50 120 l 1
 56 117 l 1
 61 115 l 1
 58 118 l 1
 72 119 l 1
 95 115 l 1
 122 113 l 1
 153 115 l 1
 188 115 l 1
 214 108 l 1
 217 99 l 1
 217 408 l 1
 217 406 l 1
 218 398 l 1
 216 406 l 1
 216 413 l 1
 215 417 l 1
 215 422 l 1
 213 427 l 1
 211 433 l 1
 193 430 l 1
 196 431 l 1
 192 430 l 1
 193 432 l 1
 180 427 l 1
 161 421 l 1
 152 429 l 1
 144 429 l 1
 156 426 l 1
 131 403 l 1
 104 409 l 1
 91 422 l 1
 83 432 l 1
 79 446 l 1
 77 458 l 1
 74 469 l 1
 74 482 l 1
 72 494 l 1
EndSplineSet
Comment: "Kage: aj1-00346+AAoA-Alias: uf015a"
EndChar
StartChar: uF015B
Encoding: 983387 983387 20
Width: 500
VWidth: 0
Flags: MW
LayerCount: 2
Fore
SplineSet
256 456 m 1
 256 539 l 1
 259 638 l 1
 258 636 l 1
 259 629 l 1
 256 638 l 1
 255 646 l 1
 253 650 l 1
 251 655 l 1
 248 660 l 1
 245 665 l 1
 237 665 l 1
 236 678 l 1
 247 678 l 1
 255 683 l 1
 267 682 l 1
 276 679 l 1
 285 674 l 1
 296 668 l 1
 305 660 l 1
 317 651 l 1
 328 640 l 1
 337 621 l 1
 335 594 l 1
 328 589 l 1
 328 539 l 1
 328 456 l 1
 325 439 l 1
 322 437 l 1
 374 442 l 1
 406 446 l 1
 403 441 l 1
 411 454 l 1
 424 461 l 1
 440 465 l 1
 453 462 l 1
 464 458 l 1
 478 451 l 1
 488 441 l 1
 495 431 l 1
 507 415 l 1
 510 389 l 1
 491 365 l 1
 463 364 l 1
 448 376 l 1
 444 374 l 1
 439 376 l 1
 433 377 l 1
 420 379 l 1
 407 387 l 1
 388 388 l 1
 366 388 l 1
 339 387 l 1
 326 386 l 1
 331 378 l 1
 328 302 l 1
 329 229 l 1
 330 160 l 1
 330 96 l 1
 332 34 l 1
 335 -24 l 1
 334 -83 l 1
 325 -107 l 1
 298 -119 l 1
 271 -107 l 1
 262 -84 l 1
 261 -70 l 1
 256 -67 l 1
 256 -63 l 1
 255 -65 l 1
 250 -59 l 1
 242 -51 l 1
 238 -35 l 1
 228 -25 l 1
 214 -10 l 1
 198 6 l 1
 181 22 l 1
 159 42 l 1
 166 50 l 1
 191 36 l 1
 213 26 l 1
 234 17 l 1
 250 8 l 1
 266 1 l 1
 266 0 l 1
 260 33 l 1
 258 94 l 1
 258 160 l 1
 257 229 l 1
 256 301 l 1
 269 340 l 1
 280 339 l 1
 256 289 l 1
 232 239 l 1
 206 193 l 1
 177 149 l 1
 146 107 l 1
 113 69 l 1
 78 30 l 1
 42 -6 l 1
 -0 -41 l 1
 -8 -32 l 1
 24 9 l 1
 55 50 l 1
 82 91 l 1
 109 133 l 1
 132 177 l 1
 157 221 l 1
 178 267 l 1
 200 313 l 1
 217 362 l 1
 229 380 l 1
 228 378 l 1
 228 385 l 1
 232 387 l 1
 192 379 l 1
 157 374 l 1
 125 369 l 1
 99 365 l 1
 99 365 l 1
 101 367 l 1
 77 347 l 1
 49 351 l 1
 33 364 l 1
 24 374 l 1
 16 389 l 1
 14 404 l 1
 10 417 l 1
 10 431 l 1
 8 444 l 1
 11 456 l 1
 14 470 l 1
 15 487 l 1
 27 485 l 1
 30 470 l 1
 33 459 l 1
 39 452 l 1
 46 442 l 1
 50 435 l 1
 56 431 l 1
 63 427 l 1
 62 429 l 1
 72 433 l 1
 95 429 l 1
 122 428 l 1
 153 428 l 1
 188 430 l 1
 227 429 l 1
 258 436 l 1
 256 456 l 1
EndSplineSet
Comment: "Kage: aj1-00347+AAoA-Alias: uf015b"
EndChar
StartChar: uF015C
Encoding: 983388 983388 21
Width: 500
VWidth: 0
Flags: MW
LayerCount: 2
Fore
SplineSet
214 124 m 1
 222 131 l 1
 245 110 l 1
 264 93 l 1
 282 77 l 1
 299 64 l 1
 312 50 l 1
 325 38 l 1
 337 24 l 1
 330 31 l 1
 324 50 l 1
 337 88 l 1
 346 134 l 1
 357 182 l 1
 367 236 l 1
 376 292 l 1
 382 349 l 1
 393 394 l 1
 388 390 l 1
 385 394 l 1
 387 391 l 1
 380 393 l 1
 371 398 l 1
 356 399 l 1
 338 399 l 1
 317 398 l 1
 293 396 l 1
 265 395 l 1
 263 392 l 1
 254 333 l 1
 233 250 l 1
 206 175 l 1
 176 107 l 1
 141 50 l 1
 100 -1 l 1
 54 -43 l 1
 -0 -82 l 1
 -8 -72 l 1
 31 -17 l 1
 67 34 l 1
 98 89 l 1
 126 145 l 1
 150 206 l 1
 170 276 l 1
 189 355 l 1
 201 389 l 1
 187 385 l 1
 158 378 l 1
 134 374 l 1
 101 370 l 1
 104 369 l 1
 102 355 l 1
 75 358 l 1
 61 371 l 1
 52 383 l 1
 47 398 l 1
 44 410 l 1
 42 422 l 1
 42 436 l 1
 42 449 l 1
 44 462 l 1
 48 474 l 1
 49 491 l 1
 61 491 l 1
 61 474 l 1
 67 464 l 1
 72 455 l 1
 78 446 l 1
 82 439 l 1
 88 435 l 1
 94 431 l 1
 96 432 l 1
 106 432 l 1
 125 431 l 1
 149 433 l 1
 179 436 l 1
 217 441 l 1
 210 444 l 1
 203 443 l 1
 218 541 l 1
 229 648 l 1
 232 650 l 1
 230 656 l 1
 227 661 l 1
 225 665 l 1
 220 669 l 1
 217 675 l 1
 207 675 l 1
 207 687 l 1
 218 687 l 1
 225 692 l 1
 237 694 l 1
 247 691 l 1
 257 688 l 1
 270 686 l 1
 281 679 l 1
 291 669 l 1
 299 657 l 1
 309 642 l 1
 307 615 l 1
 295 604 l 1
 288 531 l 1
 270 445 l 1
 295 450 l 1
 345 455 l 1
 371 461 l 1
 372 464 l 1
 388 471 l 1
 405 471 l 1
 419 466 l 1
 430 457 l 1
 439 448 l 1
 447 433 l 1
 458 421 l 1
 467 401 l 1
 467 375 l 1
 456 365 l 1
 454 343 l 1
 447 281 l 1
 438 223 l 1
 428 169 l 1
 418 116 l 1
 405 70 l 1
 393 29 l 1
 383 -9 l 1
 370 -38 l 1
 352 -63 l 1
 328 -74 l 1
 300 -65 l 1
 289 -40 l 1
 297 -15 l 1
 311 -19 l 1
 300 -37 l 1
 289 -22 l 1
 285 -14 l 1
 282 -4 l 1
 281 9 l 1
 275 23 l 1
 266 38 l 1
 255 56 l 1
 244 77 l 1
 230 98 l 1
 214 124 l 1
EndSplineSet
Comment: "Kage: aj1-00348+AAoA-Alias: uf015c"
EndChar
StartChar: uF015D
Encoding: 983389 983389 22
Width: 500
VWidth: 0
Flags: MW
LayerCount: 2
Fore
SplineSet
160 650 m 1
 169 655 l 1
 171 663 l 1
 183 668 l 1
 195 667 l 1
 205 666 l 1
 217 664 l 1
 228 658 l 1
 242 652 l 1
 244 649 l 1
 253 647 l 1
 256 634 l 1
 264 627 l 1
 268 599 l 1
 259 590 l 1
 260 579 l 1
 265 521 l 1
 270 454 l 1
 270 464 l 1
 293 478 l 1
 349 494 l 1
 349 491 l 1
 340 492 l 1
 339 494 l 1
 348 504 l 1
 360 512 l 1
 377 516 l 1
 391 515 l 1
 404 510 l 1
 417 504 l 1
 430 492 l 1
 439 465 l 1
 424 437 l 1
 397 431 l 1
 396 434 l 1
 398 433 l 1
 384 430 l 1
 372 430 l 1
 357 431 l 1
 339 427 l 1
 317 421 l 1
 292 414 l 1
 274 407 l 1
 276 393 l 1
 283 322 l 1
 290 247 l 1
 288 233 l 1
 288 234 l 1
 342 252 l 1
 399 272 l 1
 400 278 l 1
 412 287 l 1
 428 294 l 1
 448 294 l 1
 463 288 l 1
 477 279 l 1
 491 262 l 1
 495 236 l 1
 479 211 l 1
 449 207 l 1
 453 208 l 1
 455 207 l 1
 438 206 l 1
 427 207 l 1
 409 205 l 1
 403 206 l 1
 398 201 l 1
 389 202 l 1
 385 203 l 1
 360 195 l 1
 329 188 l 1
 296 172 l 1
 297 176 l 1
 298 169 l 1
 306 86 l 1
 314 -1 l 1
 324 -94 l 1
 318 -120 l 1
 291 -134 l 1
 263 -125 l 1
 252 -101 l 1
 242 -7 l 1
 234 80 l 1
 226 163 l 1
 229 157 l 1
 212 151 l 1
 149 132 l 1
 150 136 l 1
 148 132 l 1
 121 122 l 1
 116 118 l 1
 117 118 l 1
 93 98 l 1
 64 100 l 1
 62 103 l 1
 56 104 l 1
 53 108 l 1
 50 109 l 1
 40 121 l 1
 34 134 l 1
 28 146 l 1
 27 157 l 1
 23 168 l 1
 22 181 l 1
 25 192 l 1
 26 202 l 1
 28 215 l 1
 40 215 l 1
 41 204 l 1
 47 197 l 1
 53 190 l 1
 57 185 l 1
 63 182 l 1
 69 177 l 1
 75 176 l 1
 77 176 l 1
 85 178 l 1
 105 179 l 1
 130 186 l 1
 161 194 l 1
 198 206 l 1
 222 216 l 1
 218 241 l 1
 212 316 l 1
 205 387 l 1
 208 392 l 1
 194 388 l 1
 140 372 l 1
 142 374 l 1
 151 377 l 1
 131 368 l 1
 123 363 l 1
 124 364 l 1
 107 349 l 1
 88 350 l 1
 82 350 l 1
 64 358 l 1
 56 368 l 1
 48 380 l 1
 42 393 l 1
 41 402 l 1
 37 413 l 1
 36 425 l 1
 38 436 l 1
 41 447 l 1
 40 461 l 1
 52 461 l 1
 53 449 l 1
 58 443 l 1
 64 436 l 1
 71 431 l 1
 76 428 l 1
 82 425 l 1
 87 423 l 1
 95 421 l 1
 93 422 l 1
 96 423 l 1
 113 425 l 1
 133 428 l 1
 156 436 l 1
 184 444 l 1
 200 451 l 1
 199 453 l 1
 194 515 l 1
 188 573 l 1
 186 617 l 1
 186 619 l 1
 185 625 l 1
 181 629 l 1
 181 633 l 1
 177 636 l 1
 176 641 l 1
 172 643 l 1
 165 640 l 1
 160 650 l 1
EndSplineSet
Comment: "Kage: aj1-00349+AAoA-Alias: uf015d"
EndChar
StartChar: uF015E
Encoding: 983390 983390 23
Width: 500
VWidth: 0
Flags: MW
LayerCount: 2
Fore
SplineSet
189 664 m 1
 180 685 l 1
 199 676 l 1
 206 679 l 1
 217 679 l 1
 226 675 l 1
 237 669 l 1
 245 662 l 1
 255 653 l 1
 263 643 l 1
 272 629 l 1
 271 632 l 1
 276 628 l 1
 275 621 l 1
 279 615 l 1
 277 588 l 1
 264 578 l 1
 262 568 l 1
 250 536 l 1
 247 540 l 1
 254 533 l 1
 253 534 l 1
 247 537 l 1
 249 537 l 1
 256 534 l 1
 264 532 l 1
 275 532 l 1
 289 533 l 1
 305 535 l 1
 323 535 l 1
 341 539 l 1
 372 545 l 1
 369 544 l 1
 366 553 l 1
 381 560 l 1
 399 559 l 1
 414 553 l 1
 426 542 l 1
 436 529 l 1
 446 516 l 1
 456 496 l 1
 454 469 l 1
 431 449 l 1
 432 451 l 1
 428 416 l 1
 406 339 l 1
 377 263 l 1
 349 187 l 1
 312 117 l 1
 271 51 l 1
 225 -6 l 1
 173 -55 l 1
 114 -94 l 1
 49 -116 l 1
 43 -106 l 1
 95 -59 l 1
 140 -12 l 1
 183 42 l 1
 222 99 l 1
 258 161 l 1
 288 227 l 1
 319 293 l 1
 341 364 l 1
 361 436 l 1
 378 487 l 1
 378 483 l 1
 377 485 l 1
 380 483 l 1
 373 486 l 1
 368 489 l 1
 360 493 l 1
 348 492 l 1
 334 493 l 1
 319 491 l 1
 303 489 l 1
 276 481 l 1
 276 486 l 1
 273 482 l 1
 262 477 l 1
 260 474 l 1
 258 473 l 1
 231 468 l 1
 225 471 l 1
 219 473 l 1
 217 476 l 1
 226 476 l 1
 229 474 l 1
 209 431 l 1
 187 389 l 1
 167 351 l 1
 143 313 l 1
 116 280 l 1
 89 248 l 1
 57 220 l 1
 48 226 l 1
 71 263 l 1
 89 298 l 1
 108 334 l 1
 126 371 l 1
 142 410 l 1
 158 451 l 1
 171 494 l 1
 182 538 l 1
 195 585 l 1
 213 634 l 1
 210 632 l 1
 205 627 l 1
 203 636 l 1
 202 642 l 1
 200 648 l 1
 198 654 l 1
 197 658 l 1
 197 663 l 1
 189 664 l 1
EndSplineSet
Comment: "Kage: aj1-00350+AAoA-Alias: uf015e"
EndChar
StartChar: uF015F
Encoding: 983391 983391 24
Width: 500
VWidth: 0
Flags: MW
LayerCount: 2
Fore
SplineSet
135 664 m 1
 128 683 l 1
 146 677 l 1
 155 677 l 1
 165 678 l 1
 176 674 l 1
 187 667 l 1
 197 658 l 1
 207 648 l 1
 216 637 l 1
 225 625 l 1
 235 606 l 1
 232 578 l 1
 202 564 l 1
 205 560 l 1
 213 548 l 1
 198 496 l 1
 183 446 l 1
 178 432 l 1
 177 436 l 1
 184 426 l 1
 181 423 l 1
 181 427 l 1
 197 425 l 1
 216 423 l 1
 236 423 l 1
 261 425 l 1
 289 432 l 1
 319 429 l 1
 353 433 l 1
 391 437 l 1
 412 443 l 1
 409 441 l 1
 413 446 l 1
 423 455 l 1
 439 457 l 1
 452 455 l 1
 465 449 l 1
 472 440 l 1
 481 433 l 1
 486 420 l 1
 496 407 l 1
 494 379 l 1
 475 360 l 1
 444 360 l 1
 433 375 l 1
 425 376 l 1
 425 378 l 1
 429 376 l 1
 421 378 l 1
 414 382 l 1
 402 385 l 1
 386 384 l 1
 368 385 l 1
 349 383 l 1
 326 381 l 1
 317 384 l 1
 311 394 l 1
 319 391 l 1
 326 387 l 1
 334 380 l 1
 341 371 l 1
 348 360 l 1
 350 333 l 1
 342 324 l 1
 337 285 l 1
 323 220 l 1
 307 160 l 1
 285 103 l 1
 258 49 l 1
 230 2 l 1
 195 -41 l 1
 156 -75 l 1
 112 -101 l 1
 69 -113 l 1
 67 -115 l 1
 63 -117 l 1
 58 -107 l 1
 95 -71 l 1
 126 -34 l 1
 155 4 l 1
 182 43 l 1
 205 87 l 1
 227 133 l 1
 243 184 l 1
 257 238 l 1
 267 297 l 1
 276 355 l 1
 277 357 l 1
 273 364 l 1
 274 370 l 1
 275 372 l 1
 275 375 l 1
 274 371 l 1
 264 369 l 1
 266 375 l 1
 269 374 l 1
 242 368 l 1
 220 364 l 1
 202 359 l 1
 204 360 l 1
 205 357 l 1
 179 345 l 1
 153 352 l 1
 142 367 l 1
 150 369 l 1
 147 352 l 1
 124 309 l 1
 104 268 l 1
 77 229 l 1
 52 194 l 1
 21 160 l 1
 12 166 l 1
 34 207 l 1
 50 245 l 1
 68 286 l 1
 85 327 l 1
 99 370 l 1
 107 417 l 1
 125 464 l 1
 135 512 l 1
 146 563 l 1
 156 617 l 1
 156 622 l 1
 153 632 l 1
 151 640 l 1
 149 647 l 1
 147 653 l 1
 145 658 l 1
 143 663 l 1
 135 664 l 1
EndSplineSet
Comment: "Kage: aj1-00351+AAoA-Alias: uf015f"
EndChar
StartChar: uF0160
Encoding: 983392 983392 25
Width: 500
VWidth: 0
Flags: MW
LayerCount: 2
Fore
SplineSet
58 511 m 1
 61 523 l 1
 62 536 l 1
 64 551 l 1
 76 551 l 1
 77 537 l 1
 83 527 l 1
 89 518 l 1
 93 510 l 1
 100 503 l 1
 106 498 l 1
 100 504 l 1
 95 503 l 1
 118 506 l 1
 138 500 l 1
 160 500 l 1
 187 502 l 1
 218 505 l 1
 253 508 l 1
 291 510 l 1
 334 513 l 1
 354 514 l 1
 353 517 l 1
 353 522 l 1
 367 531 l 1
 383 538 l 1
 405 535 l 1
 420 527 l 1
 432 515 l 1
 440 500 l 1
 453 488 l 1
 463 464 l 1
 460 437 l 1
 434 416 l 1
 437 419 l 1
 407 105 l 1
 406 105 l 1
 428 90 l 1
 427 58 l 1
 405 37 l 1
 373 44 l 1
 373 45 l 1
 372 40 l 1
 363 42 l 1
 352 43 l 1
 338 52 l 1
 322 53 l 1
 302 51 l 1
 281 50 l 1
 257 48 l 1
 214 45 l 1
 219 53 l 1
 207 46 l 1
 179 42 l 1
 157 37 l 1
 135 34 l 1
 132 31 l 1
 132 27 l 1
 107 13 l 1
 77 19 l 1
 64 32 l 1
 55 45 l 1
 50 59 l 1
 49 73 l 1
 48 86 l 1
 47 100 l 1
 47 114 l 1
 49 126 l 1
 50 140 l 1
 52 155 l 1
 64 155 l 1
 65 141 l 1
 71 129 l 1
 77 120 l 1
 82 112 l 1
 88 103 l 1
 95 98 l 1
 101 94 l 1
 100 97 l 1
 106 100 l 1
 128 97 l 1
 150 97 l 1
 173 97 l 1
 201 99 l 1
 230 100 l 1
 259 102 l 1
 292 104 l 1
 327 103 l 1
 337 107 l 1
 376 476 l 1
 387 466 l 1
 385 466 l 1
 386 463 l 1
 379 451 l 1
 379 452 l 1
 379 451 l 1
 369 455 l 1
 358 460 l 1
 341 460 l 1
 321 461 l 1
 299 458 l 1
 273 456 l 1
 243 454 l 1
 196 449 l 1
 199 454 l 1
 194 451 l 1
 165 446 l 1
 146 441 l 1
 146 438 l 1
 144 427 l 1
 119 412 l 1
 89 419 l 1
 76 432 l 1
 67 444 l 1
 60 459 l 1
 56 471 l 1
 61 485 l 1
 59 498 l 1
 58 511 l 1
EndSplineSet
Comment: "Kage: aj1-00352+AAoA-Alias: uf0160"
EndChar
StartChar: uF0161
Encoding: 983393 983393 26
Width: 500
VWidth: 0
Flags: MW
LayerCount: 2
Fore
SplineSet
285 659 m 1
 277 680 l 1
 297 671 l 1
 307 671 l 1
 318 669 l 1
 329 665 l 1
 339 658 l 1
 349 648 l 1
 360 638 l 1
 367 625 l 1
 370 625 l 1
 374 622 l 1
 376 609 l 1
 385 593 l 1
 380 562 l 1
 376 562 l 1
 373 438 l 1
 375 437 l 1
 405 441 l 1
 402 438 l 1
 412 450 l 1
 427 458 l 1
 439 459 l 1
 452 459 l 1
 466 453 l 1
 478 446 l 1
 487 437 l 1
 495 425 l 1
 506 412 l 1
 511 383 l 1
 490 359 l 1
 463 358 l 1
 444 373 l 1
 445 372 l 1
 442 369 l 1
 437 372 l 1
 431 373 l 1
 421 376 l 1
 407 382 l 1
 388 384 l 1
 366 383 l 1
 373 382 l 1
 376 269 l 1
 375 261 l 1
 372 209 l 1
 364 150 l 1
 348 99 l 1
 327 53 l 1
 301 11 l 1
 271 -25 l 1
 236 -53 l 1
 197 -73 l 1
 157 -90 l 1
 116 -94 l 1
 113 -95 l 1
 110 -95 l 1
 93 -96 l 1
 108 -86 l 1
 142 -58 l 1
 173 -32 l 1
 201 -5 l 1
 227 24 l 1
 250 56 l 1
 270 91 l 1
 284 129 l 1
 296 171 l 1
 302 217 l 1
 304 270 l 1
 307 379 l 1
 310 380 l 1
 277 378 l 1
 226 376 l 1
 230 381 l 1
 233 379 l 1
 194 368 l 1
 200 373 l 1
 200 354 l 1
 200 296 l 1
 200 231 l 1
 199 156 l 1
 189 133 l 1
 162 120 l 1
 134 133 l 1
 127 157 l 1
 128 232 l 1
 128 296 l 1
 128 354 l 1
 131 364 l 1
 125 363 l 1
 98 359 l 1
 98 360 l 1
 101 362 l 1
 76 342 l 1
 49 347 l 1
 33 358 l 1
 22 370 l 1
 15 384 l 1
 14 399 l 1
 10 411 l 1
 9 425 l 1
 8 439 l 1
 11 452 l 1
 14 464 l 1
 15 481 l 1
 27 481 l 1
 30 465 l 1
 33 454 l 1
 39 446 l 1
 46 437 l 1
 50 430 l 1
 56 427 l 1
 61 425 l 1
 58 428 l 1
 72 430 l 1
 95 425 l 1
 122 423 l 1
 130 425 l 1
 128 452 l 1
 128 492 l 1
 128 526 l 1
 125 554 l 1
 127 574 l 1
 131 587 l 1
 129 593 l 1
 128 603 l 1
 126 609 l 1
 125 616 l 1
 122 621 l 1
 119 627 l 1
 111 631 l 1
 104 650 l 1
 122 639 l 1
 132 641 l 1
 143 638 l 1
 153 634 l 1
 163 628 l 1
 173 618 l 1
 184 608 l 1
 186 608 l 1
 194 606 l 1
 200 584 l 1
 201 585 l 1
 211 563 l 1
 207 536 l 1
 200 532 l 1
 200 526 l 1
 200 492 l 1
 200 453 l 1
 197 426 l 1
 188 425 l 1
 228 427 l 1
 272 430 l 1
 306 435 l 1
 307 623 l 1
 307 622 l 1
 308 614 l 1
 305 623 l 1
 304 632 l 1
 301 639 l 1
 300 646 l 1
 296 651 l 1
 294 657 l 1
 285 659 l 1
EndSplineSet
Comment: "Kage: aj1-00353+AAoA-Alias: uf0161"
EndChar
StartChar: uF0162
Encoding: 983394 983394 27
Width: 500
VWidth: 0
Flags: MW
LayerCount: 2
Fore
SplineSet
41 425 m 1
 49 436 l 1
 67 428 l 1
 85 421 l 1
 100 412 l 1
 119 402 l 1
 133 387 l 1
 147 374 l 1
 161 359 l 1
 174 342 l 1
 185 324 l 1
 198 302 l 1
 196 277 l 1
 177 258 l 1
 153 258 l 1
 134 274 l 1
 127 295 l 1
 120 311 l 1
 113 327 l 1
 104 343 l 1
 96 359 l 1
 87 373 l 1
 79 386 l 1
 68 400 l 1
 57 413 l 1
 41 425 l 1
67 65 m 1
 79 67 l 1
 81 49 l 1
 88 36 l 1
 95 26 l 1
 101 16 l 1
 108 9 l 1
 115 5 l 1
 114 5 l 1
 145 30 l 1
 187 63 l 1
 227 99 l 1
 265 142 l 1
 303 188 l 1
 339 237 l 1
 372 292 l 1
 405 351 l 1
 438 415 l 1
 471 484 l 1
 482 483 l 1
 459 407 l 1
 435 338 l 1
 408 274 l 1
 376 215 l 1
 344 157 l 1
 310 106 l 1
 269 60 l 1
 229 15 l 1
 186 -23 l 1
 161 -41 l 1
 161 -48 l 1
 145 -67 l 1
 120 -71 l 1
 103 -61 l 1
 92 -52 l 1
 80 -41 l 1
 72 -27 l 1
 71 -14 l 1
 67 0 l 1
 64 15 l 1
 66 31 l 1
 66 46 l 1
 67 65 l 1
111 632 m 1
 117 640 l 1
 137 632 l 1
 153 623 l 1
 169 615 l 1
 186 602 l 1
 200 590 l 1
 215 575 l 1
 229 560 l 1
 242 542 l 1
 253 524 l 1
 267 502 l 1
 265 477 l 1
 247 458 l 1
 221 458 l 1
 204 473 l 1
 195 495 l 1
 188 510 l 1
 179 527 l 1
 171 544 l 1
 163 560 l 1
 154 575 l 1
 144 589 l 1
 136 603 l 1
 125 617 l 1
 111 632 l 1
EndSplineSet
Comment: "Kage: aj1-00354+AAoA-Alias: uf0162"
EndChar
StartChar: uF0163
Encoding: 983395 983395 28
Width: 500
VWidth: 0
Flags: MW
LayerCount: 2
Fore
SplineSet
337 522 m 1
 347 515 l 1
 348 522 l 1
 345 531 l 1
 337 522 l 1
90 564 m 1
 93 576 l 1
 97 586 l 1
 97 601 l 1
 109 601 l 1
 110 587 l 1
 115 578 l 1
 121 572 l 1
 127 563 l 1
 132 556 l 1
 137 552 l 1
 143 547 l 1
 151 543 l 1
 149 546 l 1
 152 547 l 1
 167 545 l 1
 185 546 l 1
 204 551 l 1
 229 554 l 1
 255 556 l 1
 285 561 l 1
 316 565 l 1
 316 565 l 1
 318 572 l 1
 332 580 l 1
 346 582 l 1
 364 579 l 1
 377 571 l 1
 386 560 l 1
 396 547 l 1
 404 533 l 1
 412 513 l 1
 409 487 l 1
 385 470 l 1
 386 472 l 1
 377 431 l 1
 347 353 l 1
 314 279 l 1
 296 247 l 1
 306 230 l 1
 331 209 l 1
 355 185 l 1
 376 159 l 1
 397 134 l 1
 418 106 l 1
 436 76 l 1
 455 45 l 1
 472 13 l 1
 488 -25 l 1
 487 -51 l 1
 465 -69 l 1
 438 -69 l 1
 421 -50 l 1
 407 -15 l 1
 396 17 l 1
 383 49 l 1
 369 79 l 1
 355 107 l 1
 340 135 l 1
 322 161 l 1
 305 188 l 1
 289 214 l 1
 279 222 l 1
 280 211 l 1
 242 148 l 1
 203 90 l 1
 159 38 l 1
 113 -8 l 1
 64 -47 l 1
 12 -81 l 1
 4 -72 l 1
 46 -24 l 1
 84 26 l 1
 123 77 l 1
 157 131 l 1
 192 189 l 1
 225 251 l 1
 257 317 l 1
 283 385 l 1
 311 459 l 1
 343 520 l 1
 342 508 l 1
 340 508 l 1
 330 509 l 1
 318 512 l 1
 303 510 l 1
 285 506 l 1
 265 503 l 1
 241 498 l 1
 202 489 l 1
 202 500 l 1
 208 500 l 1
 196 493 l 1
 178 488 l 1
 168 494 l 1
 162 494 l 1
 171 485 l 1
 146 471 l 1
 133 474 l 1
 127 476 l 1
 126 478 l 1
 123 477 l 1
 109 490 l 1
 102 502 l 1
 98 515 l 1
 94 526 l 1
 93 539 l 1
 92 551 l 1
 90 564 l 1
EndSplineSet
Comment: "Kage: aj1-00355+AAoA-Alias: uf0163"
EndChar
StartChar: uF0164
Encoding: 983396 983396 29
Width: 500
VWidth: 0
Flags: MW
LayerCount: 2
Fore
SplineSet
282 141 m 1
 299 177 l 1
 315 208 l 1
 330 236 l 1
 346 264 l 1
 360 290 l 1
 370 315 l 1
 382 341 l 1
 394 362 l 1
 402 384 l 1
 401 379 l 1
 409 371 l 1
 403 372 l 1
 393 375 l 1
 381 372 l 1
 363 369 l 1
 343 365 l 1
 319 357 l 1
 294 348 l 1
 258 332 l 1
 257 335 l 1
 227 318 l 1
 216 308 l 1
 217 75 l 1
 217 68 l 1
 218 63 l 1
 220 56 l 1
 222 48 l 1
 224 42 l 1
 224 34 l 1
 224 31 l 1
 231 30 l 1
 238 21 l 1
 238 20 l 1
 246 17 l 1
 258 11 l 1
 273 8 l 1
 289 6 l 1
 311 4 l 1
 334 4 l 1
 359 6 l 1
 385 10 l 1
 421 14 l 1
 444 8 l 1
 459 -14 l 1
 453 -43 l 1
 431 -56 l 1
 397 -62 l 1
 365 -66 l 1
 335 -68 l 1
 308 -68 l 1
 283 -66 l 1
 259 -63 l 1
 237 -58 l 1
 215 -50 l 1
 198 -40 l 1
 199 -41 l 1
 196 -40 l 1
 189 -34 l 1
 174 -14 l 1
 175 -15 l 1
 174 -19 l 1
 170 -11 l 1
 169 -4 l 1
 166 5 l 1
 157 15 l 1
 153 27 l 1
 148 38 l 1
 146 50 l 1
 145 63 l 1
 145 75 l 1
 153 283 l 1
 157 283 l 1
 128 270 l 1
 103 258 l 1
 107 260 l 1
 109 259 l 1
 91 234 l 1
 64 231 l 1
 46 238 l 1
 32 248 l 1
 23 259 l 1
 13 272 l 1
 13 289 l 1
 10 301 l 1
 10 318 l 1
 11 332 l 1
 12 346 l 1
 13 365 l 1
 25 367 l 1
 28 349 l 1
 32 335 l 1
 40 326 l 1
 45 317 l 1
 52 311 l 1
 58 306 l 1
 56 309 l 1
 61 315 l 1
 82 317 l 1
 107 324 l 1
 136 335 l 1
 147 341 l 1
 148 587 l 1
 146 589 l 1
 145 598 l 1
 140 605 l 1
 137 612 l 1
 133 617 l 1
 129 623 l 1
 126 628 l 1
 117 629 l 1
 116 642 l 1
 128 641 l 1
 136 643 l 1
 147 645 l 1
 159 642 l 1
 169 637 l 1
 180 631 l 1
 190 625 l 1
 203 619 l 1
 213 608 l 1
 215 606 l 1
 217 603 l 1
 225 589 l 1
 227 563 l 1
 217 552 l 1
 211 360 l 1
 209 359 l 1
 252 376 l 1
 298 395 l 1
 350 417 l 1
 386 435 l 1
 396 444 l 1
 410 449 l 1
 425 450 l 1
 443 446 l 1
 457 438 l 1
 468 428 l 1
 478 413 l 1
 487 394 l 1
 484 368 l 1
 461 349 l 1
 460 351 l 1
 462 356 l 1
 449 333 l 1
 436 311 l 1
 420 287 l 1
 402 263 l 1
 384 241 l 1
 364 215 l 1
 342 189 l 1
 319 162 l 1
 291 133 l 1
 282 141 l 1
414 384 m 1
 414 396 l 1
 414 384 l 1
EndSplineSet
Comment: "Kage: aj1-00356+AAoA-Alias: uf0164"
EndChar
StartChar: uF0165
Encoding: 983397 983397 30
Width: 500
VWidth: 0
Flags: MW
LayerCount: 2
Fore
SplineSet
62 587 m 1
 70 595 l 1
 91 576 l 1
 107 556 l 1
 123 537 l 1
 138 515 l 1
 152 493 l 1
 164 469 l 1
 174 445 l 1
 184 421 l 1
 194 394 l 1
 202 364 l 1
 197 342 l 1
 174 324 l 1
 148 331 l 1
 132 349 l 1
 127 378 l 1
 121 403 l 1
 117 427 l 1
 111 450 l 1
 104 472 l 1
 97 495 l 1
 89 518 l 1
 80 540 l 1
 71 562 l 1
 62 587 l 1
363 594 m 1
 355 614 l 1
 374 606 l 1
 383 607 l 1
 393 606 l 1
 404 601 l 1
 415 593 l 1
 423 583 l 1
 433 571 l 1
 441 557 l 1
 444 549 l 1
 451 546 l 1
 453 537 l 1
 452 532 l 1
 456 521 l 1
 451 497 l 1
 443 491 l 1
 433 438 l 1
 409 352 l 1
 382 271 l 1
 351 195 l 1
 314 129 l 1
 274 70 l 1
 229 19 l 1
 181 -25 l 1
 128 -57 l 1
 70 -82 l 1
 64 -71 l 1
 113 -27 l 1
 156 22 l 1
 195 71 l 1
 232 125 l 1
 267 183 l 1
 295 247 l 1
 323 313 l 1
 347 386 l 1
 365 460 l 1
 381 538 l 1
 383 538 l 1
 381 549 l 1
 379 560 l 1
 376 569 l 1
 375 577 l 1
 374 582 l 1
 371 588 l 1
 371 593 l 1
 363 594 l 1
EndSplineSet
Comment: "Kage: aj1-00357+AAoA-Alias: uf0165"
EndChar
StartChar: uF0166
Encoding: 983398 983398 31
Width: 500
VWidth: 0
Flags: MW
LayerCount: 2
Fore
SplineSet
189 664 m 1
 180 685 l 1
 199 676 l 1
 206 679 l 1
 217 679 l 1
 226 675 l 1
 237 669 l 1
 245 662 l 1
 255 653 l 1
 263 643 l 1
 272 629 l 1
 271 632 l 1
 275 628 l 1
 275 621 l 1
 279 615 l 1
 277 588 l 1
 264 578 l 1
 262 568 l 1
 250 536 l 1
 247 540 l 1
 254 533 l 1
 253 534 l 1
 247 537 l 1
 249 537 l 1
 256 534 l 1
 264 532 l 1
 275 532 l 1
 289 533 l 1
 305 535 l 1
 323 535 l 1
 341 539 l 1
 372 545 l 1
 369 544 l 1
 366 552 l 1
 381 559 l 1
 399 558 l 1
 414 553 l 1
 426 542 l 1
 436 529 l 1
 446 515 l 1
 455 496 l 1
 453 468 l 1
 428 449 l 1
 431 451 l 1
 428 416 l 1
 406 339 l 1
 377 263 l 1
 350 187 l 1
 312 117 l 1
 271 51 l 1
 225 -6 l 1
 173 -55 l 1
 114 -94 l 1
 49 -116 l 1
 43 -106 l 1
 95 -59 l 1
 140 -12 l 1
 183 42 l 1
 222 99 l 1
 258 161 l 1
 275 182 l 1
 268 175 l 1
 251 192 l 1
 241 211 l 1
 236 231 l 1
 231 246 l 1
 224 260 l 1
 215 275 l 1
 207 289 l 1
 198 301 l 1
 191 315 l 1
 181 328 l 1
 168 342 l 1
 176 350 l 1
 191 342 l 1
 207 335 l 1
 222 327 l 1
 239 316 l 1
 252 303 l 1
 265 291 l 1
 277 276 l 1
 292 260 l 1
 303 244 l 1
 300 238 l 1
 319 293 l 1
 341 364 l 1
 361 436 l 1
 378 487 l 1
 378 483 l 1
 377 485 l 1
 380 484 l 1
 373 486 l 1
 368 489 l 1
 360 493 l 1
 348 492 l 1
 334 493 l 1
 319 491 l 1
 303 489 l 1
 276 481 l 1
 276 486 l 1
 273 482 l 1
 262 477 l 1
 260 474 l 1
 258 473 l 1
 231 468 l 1
 225 471 l 1
 219 473 l 1
 217 476 l 1
 226 476 l 1
 229 474 l 1
 209 431 l 1
 187 389 l 1
 167 351 l 1
 143 313 l 1
 116 280 l 1
 89 248 l 1
 57 220 l 1
 48 226 l 1
 71 263 l 1
 89 298 l 1
 108 334 l 1
 126 371 l 1
 142 410 l 1
 158 451 l 1
 171 494 l 1
 182 538 l 1
 195 585 l 1
 213 634 l 1
 210 632 l 1
 205 627 l 1
 203 636 l 1
 202 642 l 1
 200 648 l 1
 198 654 l 1
 197 658 l 1
 197 663 l 1
 189 664 l 1
EndSplineSet
Comment: "Kage: aj1-00358+AAoA-Alias: uf0166"
EndChar
StartChar: uF0167
Encoding: 983399 983399 32
Width: 500
VWidth: 0
Flags: MW
LayerCount: 2
Fore
SplineSet
330 665 m 1
 338 676 l 1
 347 669 l 1
 358 667 l 1
 368 660 l 1
 378 651 l 1
 383 640 l 1
 390 629 l 1
 394 613 l 1
 398 600 l 1
 399 583 l 1
 394 560 l 1
 375 541 l 1
 346 539 l 1
 346 541 l 1
 326 528 l 1
 294 511 l 1
 279 513 l 1
 269 519 l 1
 278 513 l 1
 287 510 l 1
 294 503 l 1
 303 498 l 1
 311 489 l 1
 311 490 l 1
 314 488 l 1
 316 479 l 1
 317 475 l 1
 316 456 l 1
 316 378 l 1
 316 372 l 1
 312 338 l 1
 321 337 l 1
 374 342 l 1
 407 346 l 1
 403 341 l 1
 411 353 l 1
 424 361 l 1
 440 365 l 1
 453 362 l 1
 464 358 l 1
 478 351 l 1
 487 341 l 1
 495 331 l 1
 507 315 l 1
 510 289 l 1
 491 266 l 1
 463 264 l 1
 448 276 l 1
 444 274 l 1
 438 277 l 1
 433 278 l 1
 421 279 l 1
 407 287 l 1
 388 288 l 1
 366 288 l 1
 339 287 l 1
 311 287 l 1
 313 285 l 1
 314 280 l 1
 306 197 l 1
 294 126 l 1
 275 65 l 1
 253 9 l 1
 222 -37 l 1
 186 -76 l 1
 143 -107 l 1
 92 -132 l 1
 74 -134 l 1
 85 -121 l 1
 119 -77 l 1
 147 -33 l 1
 173 10 l 1
 194 55 l 1
 213 105 l 1
 227 160 l 1
 239 221 l 1
 246 281 l 1
 227 278 l 1
 227 284 l 1
 232 287 l 1
 192 279 l 1
 157 274 l 1
 125 269 l 1
 99 265 l 1
 99 265 l 1
 101 267 l 1
 77 248 l 1
 49 251 l 1
 33 264 l 1
 24 274 l 1
 16 289 l 1
 14 304 l 1
 10 317 l 1
 10 331 l 1
 8 344 l 1
 11 356 l 1
 14 370 l 1
 15 387 l 1
 27 385 l 1
 30 370 l 1
 33 359 l 1
 39 352 l 1
 46 342 l 1
 50 335 l 1
 56 331 l 1
 63 327 l 1
 62 329 l 1
 72 333 l 1
 95 329 l 1
 122 328 l 1
 153 328 l 1
 188 330 l 1
 227 329 l 1
 246 335 l 1
 246 375 l 1
 247 475 l 1
 246 480 l 1
 246 484 l 1
 244 490 l 1
 247 494 l 1
 238 497 l 1
 234 492 l 1
 228 483 l 1
 194 475 l 1
 158 467 l 1
 123 460 l 1
 86 459 l 1
 46 458 l 1
 44 471 l 1
 83 480 l 1
 115 493 l 1
 148 504 l 1
 179 517 l 1
 209 532 l 1
 234 553 l 1
 265 564 l 1
 291 582 l 1
 315 603 l 1
 333 617 l 1
 337 618 l 1
 338 624 l 1
 341 631 l 1
 341 637 l 1
 342 645 l 1
 341 652 l 1
 340 660 l 1
 330 665 l 1
EndSplineSet
Comment: "Kage: aj1-00359+AAoA-Alias: uf0167"
EndChar
StartChar: uF0168
Encoding: 983400 983400 33
Width: 500
VWidth: 0
Flags: MW
LayerCount: 2
Fore
SplineSet
29 557 m 1
 38 565 l 1
 56 550 l 1
 70 536 l 1
 85 520 l 1
 97 502 l 1
 111 483 l 1
 120 462 l 1
 130 441 l 1
 139 416 l 1
 147 392 l 1
 153 364 l 1
 147 341 l 1
 125 325 l 1
 99 332 l 1
 87 351 l 1
 81 377 l 1
 79 401 l 1
 73 422 l 1
 69 442 l 1
 63 464 l 1
 59 483 l 1
 52 501 l 1
 45 519 l 1
 39 537 l 1
 29 557 l 1
170 622 m 1
 178 631 l 1
 195 615 l 1
 211 600 l 1
 225 585 l 1
 238 567 l 1
 249 549 l 1
 261 529 l 1
 270 507 l 1
 279 486 l 1
 289 462 l 1
 295 434 l 1
 288 411 l 1
 267 395 l 1
 239 402 l 1
 227 421 l 1
 221 447 l 1
 219 469 l 1
 216 490 l 1
 210 511 l 1
 207 529 l 1
 199 548 l 1
 193 567 l 1
 187 585 l 1
 180 602 l 1
 170 622 l 1
387 589 m 1
 379 609 l 1
 398 601 l 1
 407 602 l 1
 417 601 l 1
 428 595 l 1
 439 587 l 1
 447 578 l 1
 457 567 l 1
 464 551 l 1
 472 537 l 1
 470 537 l 1
 474 535 l 1
 476 525 l 1
 479 516 l 1
 475 492 l 1
 466 485 l 1
 456 441 l 1
 453 436 l 1
 453 433 l 1
 426 348 l 1
 396 271 l 1
 363 198 l 1
 329 132 l 1
 289 74 l 1
 245 22 l 1
 197 -22 l 1
 147 -57 l 1
 91 -86 l 1
 86 -77 l 1
 87 -77 l 1
 85 -77 l 1
 93 -70 l 1
 133 -27 l 1
 174 23 l 1
 213 76 l 1
 251 132 l 1
 286 189 l 1
 318 250 l 1
 345 317 l 1
 370 386 l 1
 389 460 l 1
 406 531 l 1
 407 533 l 1
 405 545 l 1
 403 554 l 1
 401 565 l 1
 400 572 l 1
 399 578 l 1
 395 582 l 1
 395 588 l 1
 387 589 l 1
EndSplineSet
Comment: "Kage: aj1-00360+AAoA-Alias: uf0168"
EndChar
StartChar: uF0169
Encoding: 983401 983401 34
Width: 500
VWidth: 0
Flags: MW
LayerCount: 2
Fore
SplineSet
8 419 m 1
 11 432 l 1
 14 444 l 1
 15 461 l 1
 27 461 l 1
 30 445 l 1
 33 434 l 1
 39 426 l 1
 46 417 l 1
 50 410 l 1
 56 407 l 1
 61 405 l 1
 59 408 l 1
 72 408 l 1
 95 405 l 1
 122 403 l 1
 153 405 l 1
 188 405 l 1
 228 407 l 1
 272 410 l 1
 321 414 l 1
 374 417 l 1
 408 423 l 1
 405 421 l 1
 412 429 l 1
 427 436 l 1
 439 438 l 1
 452 438 l 1
 465 433 l 1
 477 425 l 1
 487 417 l 1
 495 405 l 1
 507 391 l 1
 509 363 l 1
 490 340 l 1
 463 338 l 1
 444 353 l 1
 445 352 l 1
 444 349 l 1
 437 352 l 1
 431 354 l 1
 422 357 l 1
 407 362 l 1
 388 364 l 1
 366 363 l 1
 339 362 l 1
 311 360 l 1
 277 358 l 1
 260 366 l 1
 258 374 l 1
 266 368 l 1
 274 365 l 1
 282 359 l 1
 291 353 l 1
 294 350 l 1
 304 346 l 1
 303 338 l 1
 301 340 l 1
 314 320 l 1
 310 292 l 1
 302 287 l 1
 301 269 l 1
 292 205 l 1
 278 148 l 1
 261 95 l 1
 239 45 l 1
 216 0 l 1
 185 -38 l 1
 154 -72 l 1
 116 -101 l 1
 73 -123 l 1
 67 -112 l 1
 96 -72 l 1
 123 -33 l 1
 146 6 l 1
 167 47 l 1
 187 89 l 1
 201 133 l 1
 214 181 l 1
 224 231 l 1
 230 282 l 1
 239 331 l 1
 239 332 l 1
 238 339 l 1
 238 344 l 1
 236 349 l 1
 236 353 l 1
 228 350 l 1
 222 357 l 1
 228 360 l 1
 232 359 l 1
 192 354 l 1
 157 348 l 1
 125 343 l 1
 98 339 l 1
 99 343 l 1
 102 345 l 1
 76 323 l 1
 49 327 l 1
 34 339 l 1
 23 351 l 1
 15 364 l 1
 14 379 l 1
 10 391 l 1
 9 405 l 1
 8 419 l 1
85 619 m 1
 87 631 l 1
 91 642 l 1
 91 655 l 1
 103 655 l 1
 103 642 l 1
 109 634 l 1
 115 625 l 1
 119 619 l 1
 126 615 l 1
 132 609 l 1
 136 605 l 1
 139 606 l 1
 146 607 l 1
 161 605 l 1
 179 606 l 1
 200 607 l 1
 223 611 l 1
 249 613 l 1
 277 618 l 1
 307 620 l 1
 319 623 l 1
 315 625 l 1
 328 639 l 1
 342 645 l 1
 356 648 l 1
 371 648 l 1
 387 642 l 1
 400 631 l 1
 408 622 l 1
 423 607 l 1
 426 579 l 1
 408 556 l 1
 380 553 l 1
 359 569 l 1
 362 568 l 1
 364 562 l 1
 356 564 l 1
 350 565 l 1
 339 566 l 1
 324 570 l 1
 309 570 l 1
 289 566 l 1
 267 565 l 1
 242 562 l 1
 206 555 l 1
 207 561 l 1
 210 559 l 1
 189 552 l 1
 172 548 l 1
 168 545 l 1
 169 544 l 1
 143 529 l 1
 116 534 l 1
 103 546 l 1
 96 559 l 1
 91 570 l 1
 88 583 l 1
 86 595 l 1
 86 607 l 1
 85 619 l 1
EndSplineSet
Comment: "Kage: aj1-00361+AAoA-Alias: uf0169"
EndChar
StartChar: uF016A
Encoding: 983402 983402 35
Width: 500
VWidth: 0
Flags: MW
LayerCount: 2
Fore
SplineSet
160 481 m 1
 160 540 l 1
 160 592 l 1
 168 655 l 1
 166 652 l 1
 163 643 l 1
 161 652 l 1
 158 657 l 1
 156 664 l 1
 154 668 l 1
 152 673 l 1
 145 674 l 1
 136 695 l 1
 154 686 l 1
 162 688 l 1
 173 689 l 1
 184 686 l 1
 195 680 l 1
 204 673 l 1
 216 666 l 1
 224 656 l 1
 225 654 l 1
 229 651 l 1
 232 644 l 1
 233 643 l 1
 243 626 l 1
 241 598 l 1
 232 591 l 1
 232 592 l 1
 232 540 l 1
 232 481 l 1
 232 417 l 1
 230 370 l 1
 231 361 l 1
 254 357 l 1
 276 348 l 1
 297 338 l 1
 319 324 l 1
 338 309 l 1
 357 291 l 1
 377 272 l 1
 395 251 l 1
 415 227 l 1
 419 200 l 1
 402 177 l 1
 374 173 l 1
 354 186 l 1
 339 212 l 1
 326 233 l 1
 313 252 l 1
 300 270 l 1
 285 286 l 1
 270 301 l 1
 255 315 l 1
 239 330 l 1
 222 342 l 1
 227 336 l 1
 232 273 l 1
 232 193 l 1
 232 108 l 1
 232 16 l 1
 232 -84 l 1
 222 -106 l 1
 196 -117 l 1
 170 -106 l 1
 160 -84 l 1
 160 16 l 1
 160 108 l 1
 160 193 l 1
 160 273 l 1
 159 348 l 1
 160 417 l 1
 160 481 l 1
EndSplineSet
Comment: "Kage: aj1-00362+AAoA-Alias: uf016a"
EndChar
StartChar: uF016B
Encoding: 983403 983403 36
Width: 500
VWidth: 0
Flags: MW
LayerCount: 2
Fore
SplineSet
213 669 m 1
 205 689 l 1
 224 682 l 1
 232 684 l 1
 243 684 l 1
 253 680 l 1
 263 675 l 1
 274 669 l 1
 284 661 l 1
 295 652 l 1
 302 646 l 1
 308 642 l 1
 310 633 l 1
 317 623 l 1
 317 595 l 1
 310 589 l 1
 310 492 l 1
 305 423 l 1
 321 424 l 1
 374 427 l 1
 408 433 l 1
 405 430 l 1
 412 440 l 1
 427 447 l 1
 438 449 l 1
 452 449 l 1
 466 443 l 1
 477 436 l 1
 487 427 l 1
 495 415 l 1
 507 401 l 1
 510 373 l 1
 491 349 l 1
 463 348 l 1
 444 363 l 1
 445 362 l 1
 444 359 l 1
 437 362 l 1
 431 364 l 1
 422 367 l 1
 407 372 l 1
 388 374 l 1
 366 373 l 1
 339 372 l 1
 311 370 l 1
 305 368 l 1
 307 372 l 1
 301 269 l 1
 291 181 l 1
 276 106 l 1
 255 40 l 1
 225 -14 l 1
 186 -60 l 1
 139 -97 l 1
 84 -126 l 1
 69 -122 l 1
 77 -116 l 1
 80 -112 l 1
 114 -63 l 1
 146 -12 l 1
 174 35 l 1
 195 86 l 1
 212 144 l 1
 225 213 l 1
 233 291 l 1
 239 365 l 1
 227 365 l 1
 228 367 l 1
 232 369 l 1
 192 364 l 1
 157 358 l 1
 125 353 l 1
 98 349 l 1
 98 350 l 1
 101 352 l 1
 76 332 l 1
 49 337 l 1
 33 348 l 1
 23 360 l 1
 15 374 l 1
 14 389 l 1
 10 401 l 1
 9 415 l 1
 8 429 l 1
 11 442 l 1
 14 454 l 1
 15 471 l 1
 27 471 l 1
 30 455 l 1
 33 444 l 1
 39 436 l 1
 46 427 l 1
 50 420 l 1
 56 417 l 1
 61 415 l 1
 58 418 l 1
 72 419 l 1
 95 415 l 1
 122 413 l 1
 153 415 l 1
 188 415 l 1
 228 417 l 1
 240 420 l 1
 238 498 l 1
 238 621 l 1
 238 630 l 1
 235 638 l 1
 233 645 l 1
 228 652 l 1
 226 658 l 1
 224 663 l 1
 221 668 l 1
 213 669 l 1
EndSplineSet
Comment: "Kage: aj1-00363+AAoA-Alias: uf016b"
EndChar
StartChar: uF016C
Encoding: 983404 983404 37
Width: 500
VWidth: 0
Flags: MW
LayerCount: 2
Fore
SplineSet
11 156 m 1
 14 170 l 1
 15 187 l 1
 27 185 l 1
 30 170 l 1
 33 159 l 1
 39 152 l 1
 46 142 l 1
 50 135 l 1
 56 131 l 1
 63 127 l 1
 62 129 l 1
 72 133 l 1
 95 129 l 1
 122 128 l 1
 153 128 l 1
 188 130 l 1
 228 129 l 1
 272 136 l 1
 322 137 l 1
 374 142 l 1
 403 141 l 1
 403 136 l 1
 412 155 l 1
 425 162 l 1
 439 165 l 1
 453 163 l 1
 465 158 l 1
 478 152 l 1
 488 141 l 1
 495 131 l 1
 507 115 l 1
 511 89 l 1
 491 65 l 1
 463 64 l 1
 448 76 l 1
 442 74 l 1
 438 77 l 1
 433 77 l 1
 420 79 l 1
 407 87 l 1
 388 88 l 1
 366 88 l 1
 339 87 l 1
 310 87 l 1
 278 84 l 1
 227 79 l 1
 230 87 l 1
 232 87 l 1
 192 79 l 1
 157 74 l 1
 125 69 l 1
 98 64 l 1
 99 64 l 1
 101 67 l 1
 77 47 l 1
 49 51 l 1
 33 64 l 1
 24 74 l 1
 16 89 l 1
 14 104 l 1
 10 117 l 1
 10 131 l 1
 8 144 l 1
 11 156 l 1
85 479 m 1
 87 491 l 1
 91 502 l 1
 91 515 l 1
 103 515 l 1
 103 502 l 1
 109 494 l 1
 115 485 l 1
 119 479 l 1
 126 475 l 1
 132 469 l 1
 136 465 l 1
 139 466 l 1
 146 467 l 1
 161 465 l 1
 179 466 l 1
 200 467 l 1
 223 471 l 1
 249 473 l 1
 277 478 l 1
 307 480 l 1
 318 483 l 1
 315 485 l 1
 327 500 l 1
 340 506 l 1
 355 509 l 1
 372 509 l 1
 387 503 l 1
 401 493 l 1
 409 482 l 1
 422 467 l 1
 427 439 l 1
 408 415 l 1
 380 413 l 1
 359 429 l 1
 363 427 l 1
 366 421 l 1
 356 423 l 1
 350 424 l 1
 338 426 l 1
 324 430 l 1
 309 430 l 1
 289 426 l 1
 267 425 l 1
 242 422 l 1
 206 415 l 1
 207 421 l 1
 210 419 l 1
 189 412 l 1
 172 408 l 1
 169 405 l 1
 170 404 l 1
 143 387 l 1
 116 394 l 1
 102 406 l 1
 95 419 l 1
 91 430 l 1
 88 443 l 1
 86 455 l 1
 86 467 l 1
 85 479 l 1
EndSplineSet
Comment: "Kage: aj1-00364+AAoA-Alias: uf016c"
EndChar
StartChar: uF016D
Encoding: 983405 983405 38
Width: 500
VWidth: 0
Flags: MW
LayerCount: 2
Fore
SplineSet
126 386 m 1
 133 396 l 1
 171 375 l 1
 204 352 l 1
 237 327 l 1
 269 298 l 1
 277 289 l 1
 280 316 l 1
 308 389 l 1
 333 466 l 1
 354 537 l 1
 366 528 l 1
 368 529 l 1
 355 529 l 1
 345 534 l 1
 331 535 l 1
 315 533 l 1
 295 531 l 1
 277 527 l 1
 241 520 l 1
 242 528 l 1
 242 527 l 1
 217 518 l 1
 195 511 l 1
 178 506 l 1
 175 502 l 1
 172 493 l 1
 146 479 l 1
 120 487 l 1
 108 500 l 1
 99 512 l 1
 92 524 l 1
 90 538 l 1
 89 551 l 1
 85 561 l 1
 85 575 l 1
 87 586 l 1
 91 597 l 1
 91 611 l 1
 103 611 l 1
 104 598 l 1
 108 591 l 1
 116 584 l 1
 122 576 l 1
 127 570 l 1
 133 565 l 1
 140 560 l 1
 139 563 l 1
 147 566 l 1
 165 563 l 1
 185 565 l 1
 207 567 l 1
 233 569 l 1
 261 575 l 1
 293 580 l 1
 327 586 l 1
 345 592 l 1
 349 599 l 1
 365 609 l 1
 384 609 l 1
 401 601 l 1
 411 590 l 1
 421 577 l 1
 428 564 l 1
 437 543 l 1
 434 518 l 1
 403 503 l 1
 405 499 l 1
 402 442 l 1
 376 357 l 1
 345 277 l 1
 326 240 l 1
 334 234 l 1
 357 194 l 1
 384 154 l 1
 409 110 l 1
 436 62 l 1
 436 35 l 1
 418 15 l 1
 387 14 l 1
 371 33 l 1
 350 79 l 1
 329 121 l 1
 306 161 l 1
 294 188 l 1
 275 138 l 1
 234 78 l 1
 189 24 l 1
 142 -24 l 1
 90 -63 l 1
 36 -96 l 1
 28 -88 l 1
 72 -39 l 1
 112 13 l 1
 149 66 l 1
 186 122 l 1
 221 181 l 1
 251 250 l 1
 250 244 l 1
 236 267 l 1
 210 300 l 1
 184 329 l 1
 156 357 l 1
 126 386 l 1
368 546 m 1
 369 547 l 1
 368 546 l 1
EndSplineSet
Comment: "Kage: aj1-00365+AAoA-Alias: uf016d"
EndChar
StartChar: uF016E
Encoding: 983406 983406 39
Width: 500
VWidth: 0
Flags: MW
LayerCount: 2
Fore
SplineSet
173 696 m 1
 181 707 l 1
 197 698 l 1
 210 691 l 1
 223 681 l 1
 236 671 l 1
 248 659 l 1
 259 644 l 1
 271 629 l 1
 282 611 l 1
 291 591 l 1
 302 570 l 1
 302 543 l 1
 279 523 l 1
 250 526 l 1
 233 547 l 1
 229 568 l 1
 225 586 l 1
 220 604 l 1
 214 620 l 1
 209 634 l 1
 203 648 l 1
 197 660 l 1
 191 673 l 1
 185 684 l 1
 173 696 l 1
290 261 m 1
 292 272 l 1
 313 269 l 1
 332 265 l 1
 351 259 l 1
 371 251 l 1
 389 239 l 1
 406 224 l 1
 423 209 l 1
 440 191 l 1
 456 169 l 1
 473 143 l 1
 476 118 l 1
 458 96 l 1
 429 93 l 1
 409 111 l 1
 399 135 l 1
 388 154 l 1
 377 172 l 1
 367 189 l 1
 356 205 l 1
 344 217 l 1
 333 231 l 1
 321 241 l 1
 306 251 l 1
 290 261 l 1
307 510 m 1
 320 524 l 1
 326 533 l 1
 342 537 l 1
 356 536 l 1
 369 529 l 1
 378 520 l 1
 386 512 l 1
 395 500 l 1
 402 487 l 1
 409 469 l 1
 406 442 l 1
 382 423 l 1
 380 424 l 1
 366 404 l 1
 331 360 l 1
 296 318 l 1
 259 278 l 1
 251 274 l 1
 243 280 l 1
 253 281 l 1
 261 274 l 1
 270 269 l 1
 277 263 l 1
 278 259 l 1
 283 257 l 1
 286 249 l 1
 291 242 l 1
 289 215 l 1
 286 212 l 1
 286 213 l 1
 286 190 l 1
 286 164 l 1
 286 132 l 1
 286 98 l 1
 286 58 l 1
 286 15 l 1
 286 -33 l 1
 286 -89 l 1
 276 -112 l 1
 250 -122 l 1
 224 -112 l 1
 214 -89 l 1
 214 -33 l 1
 214 15 l 1
 214 58 l 1
 214 98 l 1
 214 132 l 1
 214 164 l 1
 214 190 l 1
 214 213 l 1
 213 231 l 1
 222 260 l 1
 223 259 l 1
 219 246 l 1
 220 249 l 1
 226 248 l 1
 230 253 l 1
 220 241 l 1
 182 206 l 1
 141 173 l 1
 101 143 l 1
 59 115 l 1
 13 89 l 1
 7 98 l 1
 44 133 l 1
 82 167 l 1
 116 203 l 1
 150 239 l 1
 184 277 l 1
 217 316 l 1
 248 356 l 1
 280 399 l 1
 309 443 l 1
 329 462 l 1
 335 455 l 1
 328 457 l 1
 318 462 l 1
 305 463 l 1
 290 457 l 1
 271 454 l 1
 249 448 l 1
 217 443 l 1
 217 450 l 1
 203 444 l 1
 181 438 l 1
 164 432 l 1
 166 431 l 1
 163 422 l 1
 137 410 l 1
 113 417 l 1
 99 430 l 1
 90 443 l 1
 86 455 l 1
 81 470 l 1
 77 481 l 1
 77 495 l 1
 76 508 l 1
 79 520 l 1
 80 531 l 1
 82 545 l 1
 94 545 l 1
 95 533 l 1
 101 524 l 1
 107 516 l 1
 113 508 l 1
 118 501 l 1
 124 496 l 1
 131 490 l 1
 132 492 l 1
 138 493 l 1
 152 491 l 1
 171 492 l 1
 193 495 l 1
 219 497 l 1
 249 502 l 1
 283 505 l 1
 312 508 l 1
 323 513 l 1
 313 509 l 1
 307 510 l 1
331 518 m 1
 332 516 l 1
 331 518 l 1
327 506 m 1
 334 505 l 1
 332 506 l 1
 327 506 l 1
EndSplineSet
Comment: "Kage: aj1-00366+AAoA-Alias: uf016e"
EndChar
StartChar: uF016F
Encoding: 983407 983407 40
Width: 500
VWidth: 0
Flags: MW
LayerCount: 2
Fore
SplineSet
337 619 m 1
 331 637 l 1
 348 632 l 1
 358 634 l 1
 369 631 l 1
 381 626 l 1
 391 619 l 1
 401 610 l 1
 411 597 l 1
 421 583 l 1
 422 577 l 1
 426 574 l 1
 427 569 l 1
 428 569 l 1
 436 546 l 1
 431 522 l 1
 407 504 l 1
 407 507 l 1
 403 472 l 1
 376 386 l 1
 344 307 l 1
 310 231 l 1
 272 163 l 1
 234 99 l 1
 189 42 l 1
 142 -9 l 1
 90 -53 l 1
 36 -91 l 1
 28 -82 l 1
 74 -26 l 1
 116 33 l 1
 155 91 l 1
 192 151 l 1
 227 215 l 1
 260 283 l 1
 290 351 l 1
 315 424 l 1
 339 500 l 1
 359 572 l 1
 360 573 l 1
 357 584 l 1
 355 593 l 1
 352 600 l 1
 350 607 l 1
 348 612 l 1
 345 618 l 1
 337 619 l 1
EndSplineSet
Comment: "Kage: aj1-00367+AAoA-Alias: uf016f"
EndChar
StartChar: uF0170
Encoding: 983408 983408 41
Width: 500
VWidth: 0
Flags: MW
LayerCount: 2
Fore
SplineSet
133 511 m 1
 138 522 l 1
 149 517 l 1
 161 516 l 1
 171 512 l 1
 183 505 l 1
 192 497 l 1
 199 484 l 1
 208 472 l 1
 214 459 l 1
 216 451 l 1
 224 447 l 1
 223 433 l 1
 226 423 l 1
 218 399 l 1
 211 396 l 1
 210 389 l 1
 193 343 l 1
 174 299 l 1
 156 257 l 1
 132 217 l 1
 110 177 l 1
 86 140 l 1
 57 105 l 1
 30 72 l 1
 -3 40 l 1
 -12 46 l 1
 12 85 l 1
 31 123 l 1
 50 160 l 1
 69 198 l 1
 87 238 l 1
 103 280 l 1
 120 321 l 1
 134 364 l 1
 148 408 l 1
 157 439 l 1
 157 445 l 1
 156 455 l 1
 154 465 l 1
 153 475 l 1
 151 482 l 1
 148 490 l 1
 145 498 l 1
 142 505 l 1
 133 511 l 1
294 492 m 1
 302 500 l 1
 330 478 l 1
 353 454 l 1
 377 425 l 1
 398 393 l 1
 421 358 l 1
 440 319 l 1
 456 277 l 1
 473 232 l 1
 488 184 l 1
 503 130 l 1
 498 106 l 1
 477 93 l 1
 452 96 l 1
 438 114 l 1
 425 167 l 1
 413 214 l 1
 401 258 l 1
 387 299 l 1
 373 338 l 1
 359 372 l 1
 344 405 l 1
 327 435 l 1
 312 463 l 1
 294 492 l 1
EndSplineSet
Comment: "Kage: aj1-00368+AAoA-Alias: uf0170"
EndChar
StartChar: uF0171
Encoding: 983409 983409 42
Width: 500
VWidth: 0
Flags: MW
LayerCount: 2
Fore
SplineSet
346 501 m 1
 351 511 l 1
 363 508 l 1
 375 505 l 1
 386 501 l 1
 398 495 l 1
 407 485 l 1
 415 476 l 1
 426 465 l 1
 434 451 l 1
 438 436 l 1
 441 415 l 1
 432 390 l 1
 407 380 l 1
 395 384 l 1
 391 380 l 1
 366 364 l 1
 339 348 l 1
 311 335 l 1
 282 323 l 1
 254 309 l 1
 224 298 l 1
 194 289 l 1
 161 281 l 1
 161 273 l 1
 163 85 l 1
 163 78 l 1
 164 73 l 1
 166 66 l 1
 168 58 l 1
 169 53 l 1
 172 48 l 1
 175 43 l 1
 179 37 l 1
 184 31 l 1
 184 30 l 1
 193 27 l 1
 206 21 l 1
 225 18 l 1
 247 16 l 1
 273 14 l 1
 303 15 l 1
 336 16 l 1
 373 20 l 1
 415 24 l 1
 440 17 l 1
 452 -5 l 1
 445 -32 l 1
 425 -46 l 1
 379 -52 l 1
 341 -56 l 1
 304 -57 l 1
 272 -58 l 1
 241 -56 l 1
 213 -53 l 1
 188 -47 l 1
 164 -40 l 1
 145 -30 l 1
 146 -30 l 1
 142 -30 l 1
 134 -21 l 1
 121 -4 l 1
 122 -5 l 1
 120 -9 l 1
 117 -2 l 1
 115 4 l 1
 107 14 l 1
 103 27 l 1
 99 37 l 1
 94 48 l 1
 92 60 l 1
 91 73 l 1
 91 85 l 1
 96 603 l 1
 98 600 l 1
 99 592 l 1
 96 599 l 1
 94 605 l 1
 89 611 l 1
 85 617 l 1
 75 619 l 1
 75 632 l 1
 88 630 l 1
 98 631 l 1
 111 632 l 1
 121 627 l 1
 134 624 l 1
 145 618 l 1
 155 605 l 1
 156 604 l 1
 159 601 l 1
 163 595 l 1
 163 594 l 1
 171 582 l 1
 178 563 l 1
 175 537 l 1
 161 527 l 1
 156 307 l 1
 152 302 l 1
 180 319 l 1
 208 334 l 1
 233 350 l 1
 260 365 l 1
 283 383 l 1
 306 399 l 1
 329 418 l 1
 351 435 l 1
 370 450 l 1
 372 447 l 1
 371 455 l 1
 369 462 l 1
 367 470 l 1
 363 478 l 1
 361 487 l 1
 355 494 l 1
 346 501 l 1
EndSplineSet
Comment: "Kage: aj1-00369+AAoA-Alias: uf0171"
EndChar
StartChar: uF0172
Encoding: 983410 983410 43
Width: 500
VWidth: 0
Flags: MW
LayerCount: 2
Fore
SplineSet
57 558 m 1
 61 570 l 1
 61 585 l 1
 73 585 l 1
 74 571 l 1
 78 562 l 1
 86 554 l 1
 92 546 l 1
 97 539 l 1
 102 535 l 1
 109 532 l 1
 110 533 l 1
 107 533 l 1
 128 535 l 1
 149 536 l 1
 173 538 l 1
 201 542 l 1
 231 546 l 1
 265 552 l 1
 301 556 l 1
 343 560 l 1
 356 563 l 1
 353 560 l 1
 365 574 l 1
 380 581 l 1
 396 583 l 1
 414 578 l 1
 427 569 l 1
 438 556 l 1
 446 542 l 1
 453 527 l 1
 460 505 l 1
 453 480 l 1
 442 472 l 1
 432 420 l 1
 411 338 l 1
 386 261 l 1
 355 189 l 1
 323 124 l 1
 285 65 l 1
 243 14 l 1
 196 -30 l 1
 144 -68 l 1
 90 -96 l 1
 74 -93 l 1
 83 -86 l 1
 89 -81 l 1
 127 -37 l 1
 166 13 l 1
 202 66 l 1
 237 120 l 1
 268 177 l 1
 297 240 l 1
 323 303 l 1
 344 372 l 1
 365 446 l 1
 384 499 l 1
 391 497 l 1
 379 500 l 1
 373 501 l 1
 362 506 l 1
 348 507 l 1
 331 506 l 1
 310 504 l 1
 287 500 l 1
 261 496 l 1
 223 490 l 1
 224 497 l 1
 209 491 l 1
 183 484 l 1
 160 477 l 1
 141 472 l 1
 142 470 l 1
 142 469 l 1
 120 455 l 1
 95 458 l 1
 79 469 l 1
 70 481 l 1
 64 495 l 1
 60 508 l 1
 59 520 l 1
 55 533 l 1
 55 546 l 1
 57 558 l 1
EndSplineSet
Comment: "Kage: aj1-00370+AAoA-Alias: uf0172"
EndChar
StartChar: uF0173
Encoding: 983411 983411 44
Width: 500
VWidth: 0
Flags: MW
LayerCount: 2
Fore
SplineSet
127 510 m 1
 167 527 l 1
 200 517 l 1
 230 495 l 1
 262 460 l 1
 294 418 l 1
 328 366 l 1
 365 306 l 1
 406 242 l 1
 452 172 l 1
 504 97 l 1
 507 69 l 1
 503 65 l 1
 505 55 l 1
 486 29 l 1
 457 26 l 1
 435 41 l 1
 388 121 l 1
 347 196 l 1
 311 263 l 1
 275 324 l 1
 244 377 l 1
 217 421 l 1
 194 454 l 1
 174 478 l 1
 180 478 l 1
 182 478 l 1
 168 484 l 1
 169 483 l 1
 164 475 l 1
 157 460 l 1
 148 436 l 1
 137 406 l 1
 123 369 l 1
 107 328 l 1
 89 282 l 1
 62 219 l 1
 59 224 l 1
 64 216 l 1
 38 200 l 1
 19 203 l 1
 2 210 l 1
 -11 222 l 1
 -18 235 l 1
 -20 247 l 1
 -16 261 l 1
 -17 275 l 1
 -17 290 l 1
 -15 306 l 1
 -17 325 l 1
 -5 326 l 1
 -2 308 l 1
 4 295 l 1
 13 285 l 1
 18 275 l 1
 24 270 l 1
 19 275 l 1
 29 309 l 1
 50 352 l 1
 68 392 l 1
 85 427 l 1
 103 457 l 1
 118 481 l 1
 132 501 l 1
 129 504 l 1
 127 510 l 1
EndSplineSet
Comment: "Kage: aj1-00371+AAoA-Alias: uf0173"
EndChar
StartChar: uF0174
Encoding: 983412 983412 45
Width: 500
VWidth: 0
Flags: MW
LayerCount: 2
Fore
SplineSet
67 21 m 1
 43 11 l 1
 15 19 l 1
 3 45 l 1
 10 69 l 1
 27 86 l 1
 41 102 l 1
 54 121 l 1
 68 143 l 1
 81 166 l 1
 95 192 l 1
 108 220 l 1
 122 249 l 1
 137 280 l 1
 152 318 l 1
 163 315 l 1
 158 275 l 1
 153 240 l 1
 147 205 l 1
 137 175 l 1
 129 146 l 1
 119 118 l 1
 108 91 l 1
 95 68 l 1
 83 46 l 1
 67 21 l 1
214 211 m 1
 214 280 l 1
 214 349 l 1
 218 402 l 1
 193 399 l 1
 159 394 l 1
 127 389 l 1
 102 386 l 1
 104 390 l 1
 104 392 l 1
 79 369 l 1
 52 372 l 1
 37 386 l 1
 29 396 l 1
 21 409 l 1
 17 424 l 1
 16 437 l 1
 14 451 l 1
 13 464 l 1
 16 476 l 1
 18 490 l 1
 20 507 l 1
 32 505 l 1
 34 490 l 1
 38 479 l 1
 44 472 l 1
 50 462 l 1
 55 455 l 1
 60 450 l 1
 67 447 l 1
 66 448 l 1
 76 451 l 1
 98 449 l 1
 124 448 l 1
 154 448 l 1
 189 449 l 1
 217 453 l 1
 214 487 l 1
 214 556 l 1
 214 621 l 1
 214 630 l 1
 211 638 l 1
 209 645 l 1
 204 652 l 1
 202 658 l 1
 200 663 l 1
 197 668 l 1
 189 669 l 1
 182 688 l 1
 200 682 l 1
 208 684 l 1
 219 684 l 1
 229 680 l 1
 239 675 l 1
 250 669 l 1
 260 661 l 1
 271 652 l 1
 283 640 l 1
 293 623 l 1
 292 595 l 1
 286 589 l 1
 286 556 l 1
 286 487 l 1
 282 437 l 1
 272 447 l 1
 320 457 l 1
 371 462 l 1
 403 465 l 1
 400 462 l 1
 409 473 l 1
 421 480 l 1
 436 483 l 1
 448 481 l 1
 460 477 l 1
 473 470 l 1
 483 460 l 1
 491 450 l 1
 502 435 l 1
 505 409 l 1
 486 386 l 1
 458 383 l 1
 443 396 l 1
 440 395 l 1
 433 397 l 1
 429 399 l 1
 417 401 l 1
 404 407 l 1
 386 408 l 1
 364 408 l 1
 338 407 l 1
 308 407 l 1
 279 400 l 1
 284 404 l 1
 286 349 l 1
 286 280 l 1
 286 211 l 1
 286 142 l 1
 286 73 l 1
 286 4 l 1
 286 -69 l 1
 276 -92 l 1
 250 -102 l 1
 224 -92 l 1
 214 -69 l 1
 214 -58 l 1
 214 -60 l 1
 213 -60 l 1
 206 -53 l 1
 199 -43 l 1
 196 -29 l 1
 184 -16 l 1
 175 0 l 1
 160 17 l 1
 145 35 l 1
 126 56 l 1
 134 65 l 1
 157 49 l 1
 177 37 l 1
 196 26 l 1
 212 16 l 1
 227 6 l 1
 222 6 l 1
 214 3 l 1
 214 73 l 1
 214 142 l 1
 214 211 l 1
314 302 m 1
 322 311 l 1
 346 291 l 1
 365 271 l 1
 383 249 l 1
 400 225 l 1
 416 199 l 1
 432 173 l 1
 446 145 l 1
 460 115 l 1
 474 83 l 1
 486 47 l 1
 484 22 l 1
 461 3 l 1
 434 6 l 1
 417 26 l 1
 408 62 l 1
 401 93 l 1
 392 123 l 1
 381 151 l 1
 371 178 l 1
 361 204 l 1
 350 228 l 1
 337 252 l 1
 327 276 l 1
 314 302 l 1
EndSplineSet
Comment: "Kage: aj1-00372+AAoA-Alias: uf0174"
EndChar
StartChar: uF0175
Encoding: 983413 983413 46
Width: 500
VWidth: 0
Flags: MW
LayerCount: 2
Fore
SplineSet
116 302 m 1
 124 310 l 1
 153 290 l 1
 178 270 l 1
 205 247 l 1
 228 222 l 1
 250 195 l 1
 249 195 l 1
 256 197 l 1
 277 228 l 1
 296 259 l 1
 318 289 l 1
 337 320 l 1
 353 350 l 1
 370 379 l 1
 385 409 l 1
 400 437 l 1
 425 462 l 1
 418 451 l 1
 410 454 l 1
 397 460 l 1
 378 460 l 1
 354 460 l 1
 325 459 l 1
 294 457 l 1
 257 454 l 1
 204 450 l 1
 206 457 l 1
 193 453 l 1
 159 447 l 1
 129 440 l 1
 103 434 l 1
 99 432 l 1
 97 423 l 1
 71 410 l 1
 46 417 l 1
 33 431 l 1
 24 445 l 1
 18 458 l 1
 12 472 l 1
 10 485 l 1
 9 499 l 1
 7 512 l 1
 9 524 l 1
 13 536 l 1
 13 551 l 1
 25 551 l 1
 26 537 l 1
 32 529 l 1
 39 521 l 1
 44 512 l 1
 50 505 l 1
 56 499 l 1
 64 494 l 1
 68 493 l 1
 73 495 l 1
 95 493 l 1
 121 494 l 1
 151 498 l 1
 187 500 l 1
 229 504 l 1
 275 508 l 1
 327 512 l 1
 391 515 l 1
 392 513 l 1
 397 514 l 1
 398 517 l 1
 398 518 l 1
 411 528 l 1
 426 531 l 1
 442 529 l 1
 456 522 l 1
 468 512 l 1
 479 499 l 1
 484 483 l 1
 494 465 l 1
 493 439 l 1
 470 420 l 1
 467 422 l 1
 459 405 l 1
 441 375 l 1
 421 346 l 1
 401 318 l 1
 377 290 l 1
 354 261 l 1
 329 233 l 1
 301 207 l 1
 273 181 l 1
 268 169 l 1
 272 165 l 1
 292 133 l 1
 310 101 l 1
 328 65 l 1
 347 25 l 1
 346 -1 l 1
 327 -20 l 1
 296 -19 l 1
 281 0 l 1
 267 39 l 1
 253 73 l 1
 238 103 l 1
 222 137 l 1
 208 167 l 1
 192 195 l 1
 174 223 l 1
 157 249 l 1
 138 275 l 1
 116 302 l 1
434 454 m 1
 428 463 l 1
 430 461 l 1
 426 449 l 1
 434 454 l 1
EndSplineSet
Comment: "Kage: aj1-00373+AAoA-Alias: uf0175"
EndChar
StartChar: uF0176
Encoding: 983414 983414 47
Width: 500
VWidth: 0
Flags: MW
LayerCount: 2
Fore
SplineSet
82 155 m 1
 87 166 l 1
 123 155 l 1
 157 143 l 1
 190 127 l 1
 221 108 l 1
 253 88 l 1
 282 65 l 1
 311 41 l 1
 339 13 l 1
 365 -15 l 1
 391 -49 l 1
 395 -73 l 1
 380 -95 l 1
 355 -101 l 1
 333 -89 l 1
 312 -57 l 1
 290 -28 l 1
 267 -1 l 1
 245 26 l 1
 220 50 l 1
 195 72 l 1
 169 94 l 1
 142 113 l 1
 113 135 l 1
 82 155 l 1
130 401 m 1
 135 411 l 1
 163 405 l 1
 189 399 l 1
 212 388 l 1
 235 375 l 1
 259 361 l 1
 280 343 l 1
 299 325 l 1
 319 304 l 1
 337 280 l 1
 355 253 l 1
 357 230 l 1
 340 209 l 1
 314 205 l 1
 294 221 l 1
 280 244 l 1
 268 266 l 1
 254 286 l 1
 241 305 l 1
 225 322 l 1
 209 338 l 1
 191 355 l 1
 173 369 l 1
 153 385 l 1
 130 401 l 1
158 631 m 1
 160 642 l 1
 189 639 l 1
 217 635 l 1
 242 627 l 1
 265 617 l 1
 289 603 l 1
 310 589 l 1
 330 571 l 1
 350 552 l 1
 368 530 l 1
 385 503 l 1
 387 480 l 1
 370 459 l 1
 344 455 l 1
 324 471 l 1
 312 493 l 1
 298 513 l 1
 285 532 l 1
 272 549 l 1
 256 564 l 1
 240 578 l 1
 223 593 l 1
 203 605 l 1
 182 618 l 1
 158 631 l 1
EndSplineSet
Comment: "Kage: aj1-00374+AAoA-Alias: uf0176"
EndChar
StartChar: uF0177
Encoding: 983415 983415 48
Width: 500
VWidth: 0
Flags: MW
LayerCount: 2
Fore
SplineSet
297 313 m 1
 304 319 l 1
 334 284 l 1
 358 250 l 1
 382 216 l 1
 402 183 l 1
 421 148 l 1
 439 113 l 1
 452 77 l 1
 465 42 l 1
 477 8 l 1
 487 -31 l 1
 480 -55 l 1
 460 -69 l 1
 433 -65 l 1
 418 -44 l 1
 411 -9 l 1
 405 24 l 1
 395 58 l 1
 391 82 l 1
 366 78 l 1
 323 57 l 1
 280 40 l 1
 241 24 l 1
 204 9 l 1
 170 -2 l 1
 138 -12 l 1
 107 -21 l 1
 90 -23 l 1
 91 -22 l 1
 70 -39 l 1
 43 -35 l 1
 30 -24 l 1
 23 -14 l 1
 16 -4 l 1
 12 10 l 1
 10 21 l 1
 10 35 l 1
 8 46 l 1
 11 58 l 1
 12 70 l 1
 13 85 l 1
 25 87 l 1
 27 72 l 1
 33 62 l 1
 39 55 l 1
 43 47 l 1
 50 42 l 1
 55 37 l 1
 61 35 l 1
 62 35 l 1
 70 37 l 1
 94 39 l 1
 91 38 l 1
 109 66 l 1
 122 123 l 1
 140 178 l 1
 155 235 l 1
 168 292 l 1
 182 351 l 1
 195 411 l 1
 207 472 l 1
 221 534 l 1
 232 586 l 1
 232 590 l 1
 230 598 l 1
 229 606 l 1
 226 611 l 1
 225 618 l 1
 220 623 l 1
 217 628 l 1
 207 629 l 1
 207 641 l 1
 219 641 l 1
 228 643 l 1
 241 644 l 1
 251 640 l 1
 263 634 l 1
 272 626 l 1
 283 616 l 1
 291 603 l 1
 292 599 l 1
 301 594 l 1
 301 581 l 1
 305 571 l 1
 301 547 l 1
 292 540 l 1
 287 518 l 1
 273 456 l 1
 254 396 l 1
 236 336 l 1
 217 278 l 1
 197 221 l 1
 176 165 l 1
 155 111 l 1
 130 57 l 1
 122 39 l 1
 122 44 l 1
 154 51 l 1
 189 60 l 1
 227 69 l 1
 267 76 l 1
 313 87 l 1
 359 99 l 1
 381 110 l 1
 373 128 l 1
 361 162 l 1
 346 198 l 1
 331 235 l 1
 314 271 l 1
 297 313 l 1
EndSplineSet
Comment: "Kage: aj1-00375+AAoA-Alias: uf0177"
EndChar
StartChar: uF0178
Encoding: 983416 983416 49
Width: 500
VWidth: 0
Flags: MW
LayerCount: 2
Fore
SplineSet
332 646 m 1
 336 655 l 1
 347 653 l 1
 357 653 l 1
 367 651 l 1
 379 645 l 1
 390 636 l 1
 398 626 l 1
 408 615 l 1
 418 601 l 1
 418 597 l 1
 423 592 l 1
 422 586 l 1
 422 588 l 1
 429 564 l 1
 422 539 l 1
 396 523 l 1
 399 525 l 1
 394 485 l 1
 363 393 l 1
 331 308 l 1
 319 286 l 1
 320 288 l 1
 343 250 l 1
 366 213 l 1
 389 175 l 1
 412 132 l 1
 412 105 l 1
 393 85 l 1
 363 85 l 1
 347 104 l 1
 329 144 l 1
 312 182 l 1
 292 217 l 1
 288 233 l 1
 293 230 l 1
 254 157 l 1
 213 91 l 1
 167 33 l 1
 120 -19 l 1
 69 -63 l 1
 22 -95 l 1
 16 -100 l 1
 14 -101 l 1
 -1 -105 l 1
 7 -91 l 1
 53 -38 l 1
 94 17 l 1
 135 77 l 1
 171 139 l 1
 208 205 l 1
 238 277 l 1
 244 283 l 1
 245 279 l 1
 226 314 l 1
 201 343 l 1
 175 371 l 1
 149 398 l 1
 118 425 l 1
 123 436 l 1
 162 416 l 1
 196 397 l 1
 228 373 l 1
 259 345 l 1
 271 332 l 1
 272 349 l 1
 301 429 l 1
 329 510 l 1
 353 596 l 1
 354 594 l 1
 352 604 l 1
 352 613 l 1
 349 621 l 1
 349 628 l 1
 344 634 l 1
 341 641 l 1
 332 646 l 1
EndSplineSet
Comment: "Kage: aj1-00376+AAoA-Alias: uf0178"
EndChar
StartChar: uF0179
Encoding: 983417 983417 50
Width: 500
VWidth: 0
Flags: MW
LayerCount: 2
Fore
SplineSet
68 585 m 1
 71 597 l 1
 75 608 l 1
 75 623 l 1
 87 623 l 1
 87 608 l 1
 93 600 l 1
 98 591 l 1
 101 584 l 1
 107 578 l 1
 113 574 l 1
 114 574 l 1
 118 579 l 1
 134 575 l 1
 154 574 l 1
 177 574 l 1
 203 582 l 1
 233 584 l 1
 266 579 l 1
 301 581 l 1
 341 584 l 1
 360 583 l 1
 372 578 l 1
 365 576 l 1
 365 595 l 1
 376 603 l 1
 391 607 l 1
 404 603 l 1
 414 599 l 1
 425 593 l 1
 433 584 l 1
 441 573 l 1
 450 559 l 1
 450 532 l 1
 429 511 l 1
 403 511 l 1
 389 522 l 1
 374 531 l 1
 376 531 l 1
 383 524 l 1
 374 527 l 1
 365 533 l 1
 352 535 l 1
 336 535 l 1
 316 534 l 1
 295 533 l 1
 271 531 l 1
 252 528 l 1
 253 327 l 1
 273 328 l 1
 322 329 l 1
 374 334 l 1
 407 338 l 1
 403 333 l 1
 412 346 l 1
 426 353 l 1
 440 356 l 1
 453 354 l 1
 464 350 l 1
 478 343 l 1
 487 333 l 1
 495 324 l 1
 507 309 l 1
 510 282 l 1
 491 258 l 1
 463 257 l 1
 443 275 l 1
 445 272 l 1
 445 266 l 1
 437 269 l 1
 431 271 l 1
 422 274 l 1
 407 279 l 1
 388 280 l 1
 366 280 l 1
 339 281 l 1
 311 279 l 1
 277 276 l 1
 253 273 l 1
 256 85 l 1
 256 78 l 1
 257 72 l 1
 258 65 l 1
 259 59 l 1
 262 53 l 1
 264 47 l 1
 266 44 l 1
 272 39 l 1
 277 32 l 1
 280 27 l 1
 283 26 l 1
 293 21 l 1
 305 18 l 1
 318 16 l 1
 336 14 l 1
 355 14 l 1
 377 16 l 1
 399 19 l 1
 428 24 l 1
 454 21 l 1
 471 -5 l 1
 464 -33 l 1
 443 -48 l 1
 411 -52 l 1
 383 -56 l 1
 357 -58 l 1
 333 -58 l 1
 311 -56 l 1
 289 -53 l 1
 268 -47 l 1
 250 -37 l 1
 233 -28 l 1
 211 -4 l 1
 212 -4 l 1
 213 -8 l 1
 211 -2 l 1
 207 3 l 1
 201 14 l 1
 195 25 l 1
 190 38 l 1
 188 49 l 1
 186 60 l 1
 184 73 l 1
 184 85 l 1
 188 269 l 1
 192 271 l 1
 157 266 l 1
 125 261 l 1
 98 257 l 1
 98 258 l 1
 100 259 l 1
 76 242 l 1
 50 245 l 1
 35 257 l 1
 23 269 l 1
 16 282 l 1
 15 295 l 1
 10 308 l 1
 10 322 l 1
 9 335 l 1
 11 347 l 1
 14 360 l 1
 15 375 l 1
 27 375 l 1
 30 360 l 1
 33 349 l 1
 39 342 l 1
 45 334 l 1
 50 328 l 1
 56 323 l 1
 56 324 l 1
 51 325 l 1
 72 327 l 1
 95 323 l 1
 122 321 l 1
 153 321 l 1
 187 322 l 1
 186 323 l 1
 189 521 l 1
 181 519 l 1
 161 515 l 1
 139 509 l 1
 145 515 l 1
 144 518 l 1
 119 495 l 1
 92 502 l 1
 79 514 l 1
 72 525 l 1
 66 538 l 1
 63 550 l 1
 67 563 l 1
 68 573 l 1
 68 585 l 1
EndSplineSet
Comment: "Kage: aj1-00377+AAoA-Alias: uf0179"
EndChar
StartChar: uF017A
Encoding: 983418 983418 51
Width: 500
VWidth: 0
Flags: MW
LayerCount: 2
Fore
SplineSet
312 196 m 1
 326 233 l 1
 339 264 l 1
 352 295 l 1
 363 324 l 1
 373 350 l 1
 382 377 l 1
 392 401 l 1
 399 424 l 1
 405 446 l 1
 410 445 l 1
 418 441 l 1
 408 442 l 1
 393 439 l 1
 375 435 l 1
 355 430 l 1
 331 421 l 1
 305 412 l 1
 270 396 l 1
 270 399 l 1
 270 398 l 1
 247 382 l 1
 256 335 l 1
 264 260 l 1
 274 185 l 1
 284 103 l 1
 294 17 l 1
 306 -73 l 1
 298 -99 l 1
 274 -112 l 1
 247 -105 l 1
 234 -83 l 1
 223 11 l 1
 212 93 l 1
 202 175 l 1
 192 253 l 1
 184 325 l 1
 185 357 l 1
 194 360 l 1
 162 344 l 1
 134 332 l 1
 113 319 l 1
 106 316 l 1
 108 315 l 1
 88 294 l 1
 60 293 l 1
 44 303 l 1
 36 311 l 1
 26 321 l 1
 18 336 l 1
 21 348 l 1
 18 359 l 1
 15 373 l 1
 15 386 l 1
 16 399 l 1
 13 413 l 1
 23 418 l 1
 29 402 l 1
 36 393 l 1
 43 384 l 1
 51 377 l 1
 58 371 l 1
 63 368 l 1
 61 372 l 1
 67 375 l 1
 88 379 l 1
 112 386 l 1
 141 397 l 1
 174 408 l 1
 174 411 l 1
 167 458 l 1
 159 517 l 1
 152 574 l 1
 148 621 l 1
 149 624 l 1
 144 629 l 1
 142 633 l 1
 139 638 l 1
 138 641 l 1
 133 643 l 1
 127 641 l 1
 110 652 l 1
 130 655 l 1
 134 662 l 1
 145 668 l 1
 155 667 l 1
 167 666 l 1
 178 662 l 1
 190 660 l 1
 203 653 l 1
 205 650 l 1
 211 648 l 1
 215 639 l 1
 227 628 l 1
 229 600 l 1
 222 591 l 1
 224 584 l 1
 230 525 l 1
 238 466 l 1
 237 431 l 1
 255 435 l 1
 301 452 l 1
 352 471 l 1
 366 478 l 1
 376 483 l 1
 390 491 l 1
 395 499 l 1
 395 499 l 1
 407 510 l 1
 423 515 l 1
 439 516 l 1
 455 510 l 1
 468 501 l 1
 478 491 l 1
 490 475 l 1
 491 448 l 1
 472 426 l 1
 472 427 l 1
 471 423 l 1
 459 399 l 1
 447 378 l 1
 435 354 l 1
 421 329 l 1
 404 303 l 1
 387 276 l 1
 369 248 l 1
 346 221 l 1
 323 190 l 1
 312 196 l 1
EndSplineSet
Comment: "Kage: aj1-00378+AAoA-Alias: uf017a"
EndChar
StartChar: uF017B
Encoding: 983419 983419 52
Width: 500
VWidth: 0
Flags: MW
LayerCount: 2
Fore
SplineSet
301 500 m 1
 310 515 l 1
 316 523 l 1
 330 530 l 1
 347 530 l 1
 362 523 l 1
 370 517 l 1
 382 506 l 1
 389 493 l 1
 395 482 l 1
 404 463 l 1
 399 436 l 1
 386 424 l 1
 316 123 l 1
 321 124 l 1
 374 127 l 1
 405 131 l 1
 402 128 l 1
 412 141 l 1
 427 148 l 1
 439 150 l 1
 452 150 l 1
 466 143 l 1
 478 136 l 1
 487 127 l 1
 495 115 l 1
 506 102 l 1
 512 73 l 1
 491 48 l 1
 463 48 l 1
 444 63 l 1
 445 62 l 1
 442 59 l 1
 437 62 l 1
 431 63 l 1
 421 66 l 1
 407 72 l 1
 388 74 l 1
 366 73 l 1
 339 72 l 1
 311 70 l 1
 278 60 l 1
 226 63 l 1
 227 66 l 1
 232 69 l 1
 192 64 l 1
 157 58 l 1
 125 53 l 1
 98 49 l 1
 99 49 l 1
 102 51 l 1
 76 31 l 1
 49 36 l 1
 33 47 l 1
 22 60 l 1
 15 74 l 1
 14 89 l 1
 10 101 l 1
 9 115 l 1
 8 129 l 1
 11 142 l 1
 14 154 l 1
 15 171 l 1
 27 171 l 1
 30 155 l 1
 33 144 l 1
 39 136 l 1
 46 127 l 1
 50 120 l 1
 56 117 l 1
 61 115 l 1
 58 118 l 1
 72 120 l 1
 95 115 l 1
 122 113 l 1
 153 115 l 1
 188 115 l 1
 228 117 l 1
 251 118 l 1
 314 449 l 1
 320 440 l 1
 319 445 l 1
 310 446 l 1
 301 446 l 1
 287 444 l 1
 273 442 l 1
 256 440 l 1
 237 439 l 1
 212 433 l 1
 211 450 l 1
 205 446 l 1
 206 439 l 1
 190 431 l 1
 175 426 l 1
 176 422 l 1
 175 418 l 1
 150 403 l 1
 123 407 l 1
 107 420 l 1
 97 432 l 1
 94 447 l 1
 91 460 l 1
 90 472 l 1
 89 485 l 1
 89 499 l 1
 91 512 l 1
 92 524 l 1
 94 541 l 1
 106 541 l 1
 108 525 l 1
 113 514 l 1
 119 505 l 1
 123 497 l 1
 130 491 l 1
 136 486 l 1
 141 481 l 1
 143 483 l 1
 149 483 l 1
 163 482 l 1
 179 482 l 1
 195 484 l 1
 215 485 l 1
 235 488 l 1
 257 494 l 1
 280 496 l 1
 317 501 l 1
 314 498 l 1
 309 506 l 1
 305 497 l 1
 301 500 l 1
333 503 m 1
 325 506 l 1
 336 504 l 1
 324 505 l 1
 324 492 l 1
 327 493 l 1
 325 495 l 1
 333 503 l 1
EndSplineSet
Comment: "Kage: aj1-00379+AAoA-Alias: uf017b"
EndChar
StartChar: uF017C
Encoding: 983420 983420 53
Width: 500
VWidth: 0
Flags: MW
LayerCount: 2
Fore
SplineSet
343 559 m 1
 343 567 l 1
 337 557 l 1
 343 559 l 1
153 494 m 1
 136 480 l 1
 111 483 l 1
 99 492 l 1
 89 502 l 1
 83 512 l 1
 78 523 l 1
 79 535 l 1
 77 546 l 1
 78 557 l 1
 79 567 l 1
 83 577 l 1
 82 591 l 1
 94 591 l 1
 95 579 l 1
 100 572 l 1
 105 566 l 1
 111 560 l 1
 118 557 l 1
 121 553 l 1
 123 556 l 1
 123 556 l 1
 135 557 l 1
 151 555 l 1
 168 556 l 1
 187 558 l 1
 210 561 l 1
 235 564 l 1
 263 568 l 1
 293 571 l 1
 334 574 l 1
 332 569 l 1
 338 566 l 1
 336 585 l 1
 350 591 l 1
 365 592 l 1
 380 589 l 1
 393 580 l 1
 403 571 l 1
 410 558 l 1
 418 545 l 1
 424 525 l 1
 421 502 l 1
 412 495 l 1
 412 471 l 1
 408 419 l 1
 406 367 l 1
 403 313 l 1
 400 258 l 1
 397 203 l 1
 394 147 l 1
 391 89 l 1
 388 32 l 1
 385 -30 l 1
 373 -52 l 1
 347 -60 l 1
 322 -49 l 1
 314 -25 l 1
 319 0 l 1
 310 1 l 1
 309 5 l 1
 314 2 l 1
 308 3 l 1
 296 5 l 1
 282 5 l 1
 265 4 l 1
 245 4 l 1
 221 2 l 1
 195 -0 l 1
 157 -5 l 1
 159 0 l 1
 158 -4 l 1
 143 -9 l 1
 138 -1 l 1
 137 0 l 1
 117 -24 l 1
 91 -21 l 1
 78 -9 l 1
 69 2 l 1
 64 13 l 1
 59 26 l 1
 57 36 l 1
 55 48 l 1
 55 58 l 1
 57 68 l 1
 61 78 l 1
 61 91 l 1
 73 91 l 1
 73 79 l 1
 78 73 l 1
 83 67 l 1
 90 62 l 1
 95 58 l 1
 102 54 l 1
 108 52 l 1
 112 51 l 1
 109 51 l 1
 109 51 l 1
 120 52 l 1
 134 49 l 1
 148 50 l 1
 167 52 l 1
 189 54 l 1
 213 56 l 1
 239 59 l 1
 269 63 l 1
 315 64 l 1
 309 58 l 1
 301 62 l 1
 319 65 l 1
 321 63 l 1
 319 92 l 1
 322 151 l 1
 325 207 l 1
 328 263 l 1
 332 261 l 1
 331 259 l 1
 327 262 l 1
 330 260 l 1
 325 263 l 1
 315 264 l 1
 301 263 l 1
 284 263 l 1
 266 262 l 1
 245 259 l 1
 220 258 l 1
 184 253 l 1
 186 257 l 1
 180 252 l 1
 166 248 l 1
 155 242 l 1
 145 237 l 1
 125 235 l 1
 122 242 l 1
 118 240 l 1
 105 248 l 1
 96 255 l 1
 90 266 l 1
 84 276 l 1
 84 287 l 1
 82 295 l 1
 83 308 l 1
 84 317 l 1
 86 327 l 1
 85 341 l 1
 97 341 l 1
 99 329 l 1
 104 323 l 1
 109 316 l 1
 116 314 l 1
 121 310 l 1
 125 307 l 1
 126 309 l 1
 132 309 l 1
 136 307 l 1
 142 307 l 1
 143 304 l 1
 141 304 l 1
 155 305 l 1
 169 306 l 1
 187 307 l 1
 207 309 l 1
 228 313 l 1
 254 317 l 1
 281 320 l 1
 318 324 l 1
 319 318 l 1
 322 321 l 1
 335 325 l 1
 335 321 l 1
 331 314 l 1
 334 371 l 1
 337 424 l 1
 340 476 l 1
 346 515 l 1
 348 512 l 1
 335 516 l 1
 320 517 l 1
 301 516 l 1
 278 513 l 1
 252 510 l 1
 223 506 l 1
 185 502 l 1
 185 506 l 1
 177 502 l 1
 161 498 l 1
 153 494 l 1
EndSplineSet
Comment: "Kage: aj1-00380+AAoA-Alias: uf017c"
EndChar
StartChar: uF017D
Encoding: 983421 983421 54
Width: 500
VWidth: 0
Flags: MW
LayerCount: 2
Fore
SplineSet
336 616 m 1
 336 624 l 1
 331 614 l 1
 336 616 l 1
57 428 m 1
 61 440 l 1
 61 455 l 1
 73 455 l 1
 74 441 l 1
 78 432 l 1
 86 424 l 1
 92 416 l 1
 97 409 l 1
 102 405 l 1
 109 402 l 1
 110 403 l 1
 107 403 l 1
 128 405 l 1
 149 406 l 1
 173 408 l 1
 201 412 l 1
 231 416 l 1
 265 422 l 1
 301 426 l 1
 343 430 l 1
 356 433 l 1
 353 429 l 1
 365 445 l 1
 380 451 l 1
 396 455 l 1
 414 448 l 1
 427 439 l 1
 438 427 l 1
 446 412 l 1
 453 397 l 1
 461 375 l 1
 453 348 l 1
 441 342 l 1
 432 299 l 1
 410 231 l 1
 384 165 l 1
 353 109 l 1
 321 55 l 1
 281 10 l 1
 238 -29 l 1
 193 -62 l 1
 143 -86 l 1
 93 -100 l 1
 91 -101 l 1
 86 -104 l 1
 81 -91 l 1
 127 -50 l 1
 168 -11 l 1
 204 29 l 1
 238 75 l 1
 269 119 l 1
 298 166 l 1
 322 217 l 1
 346 271 l 1
 364 328 l 1
 374 368 l 1
 382 371 l 1
 389 366 l 1
 379 370 l 1
 373 371 l 1
 362 376 l 1
 348 377 l 1
 331 376 l 1
 310 374 l 1
 287 370 l 1
 261 366 l 1
 223 360 l 1
 224 367 l 1
 209 361 l 1
 183 354 l 1
 160 347 l 1
 141 342 l 1
 144 342 l 1
 145 340 l 1
 120 325 l 1
 95 328 l 1
 79 339 l 1
 70 351 l 1
 64 365 l 1
 60 378 l 1
 59 390 l 1
 55 403 l 1
 55 416 l 1
 57 428 l 1
102 626 m 1
 105 637 l 1
 108 648 l 1
 109 661 l 1
 121 661 l 1
 121 648 l 1
 127 639 l 1
 130 634 l 1
 137 628 l 1
 142 622 l 1
 147 619 l 1
 154 615 l 1
 156 614 l 1
 157 617 l 1
 169 615 l 1
 182 613 l 1
 198 612 l 1
 217 613 l 1
 239 615 l 1
 263 620 l 1
 291 621 l 1
 308 616 l 1
 316 612 l 1
 308 625 l 1
 325 631 l 1
 329 647 l 1
 341 651 l 1
 357 655 l 1
 373 649 l 1
 385 644 l 1
 397 633 l 1
 409 621 l 1
 419 602 l 1
 419 575 l 1
 400 555 l 1
 370 553 l 1
 359 565 l 1
 352 578 l 1
 353 578 l 1
 354 565 l 1
 348 566 l 1
 340 570 l 1
 326 569 l 1
 312 571 l 1
 294 571 l 1
 274 568 l 1
 251 566 l 1
 218 560 l 1
 224 566 l 1
 233 565 l 1
 206 559 l 1
 189 554 l 1
 180 550 l 1
 166 539 l 1
 138 543 l 1
 125 556 l 1
 118 567 l 1
 111 579 l 1
 106 592 l 1
 105 603 l 1
 102 615 l 1
 102 626 l 1
EndSplineSet
Comment: "Kage: aj1-00381+AAoA-Alias: uf017d"
EndChar
StartChar: uF017E
Encoding: 983422 983422 55
Width: 500
VWidth: 0
Flags: MW
LayerCount: 2
Fore
SplineSet
93 614 m 1
 86 633 l 1
 104 627 l 1
 114 628 l 1
 125 628 l 1
 135 621 l 1
 146 616 l 1
 157 606 l 1
 166 596 l 1
 175 584 l 1
 175 584 l 1
 180 581 l 1
 183 570 l 1
 185 569 l 1
 192 549 l 1
 189 522 l 1
 183 518 l 1
 184 518 l 1
 184 490 l 1
 184 456 l 1
 184 417 l 1
 184 372 l 1
 184 322 l 1
 184 266 l 1
 184 202 l 1
 174 179 l 1
 148 169 l 1
 122 179 l 1
 112 202 l 1
 112 266 l 1
 112 322 l 1
 112 372 l 1
 112 417 l 1
 112 456 l 1
 112 490 l 1
 112 518 l 1
 112 541 l 1
 112 558 l 1
 117 582 l 1
 115 573 l 1
 120 565 l 1
 113 580 l 1
 111 589 l 1
 108 596 l 1
 105 602 l 1
 104 608 l 1
 101 613 l 1
 93 614 l 1
301 649 m 1
 292 670 l 1
 310 661 l 1
 319 664 l 1
 331 662 l 1
 340 658 l 1
 353 652 l 1
 362 644 l 1
 371 634 l 1
 384 623 l 1
 392 611 l 1
 404 592 l 1
 402 565 l 1
 393 556 l 1
 394 319 l 1
 393 311 l 1
 391 254 l 1
 381 191 l 1
 367 134 l 1
 349 79 l 1
 322 32 l 1
 292 -13 l 1
 255 -47 l 1
 213 -77 l 1
 166 -96 l 1
 115 -106 l 1
 110 -96 l 1
 151 -62 l 1
 185 -29 l 1
 216 4 l 1
 244 41 l 1
 269 78 l 1
 287 118 l 1
 303 164 l 1
 315 212 l 1
 320 263 l 1
 322 320 l 1
 329 613 l 1
 328 610 l 1
 325 605 l 1
 321 616 l 1
 319 624 l 1
 316 632 l 1
 313 638 l 1
 310 642 l 1
 308 648 l 1
 301 649 l 1
EndSplineSet
Comment: "Kage: aj1-00382+AAoA-Alias: uf017e"
EndChar
StartChar: uF017F
Encoding: 983423 983423 56
Width: 500
VWidth: 0
Flags: MW
LayerCount: 2
Fore
SplineSet
99 489 m 1
 92 508 l 1
 110 502 l 1
 118 504 l 1
 131 504 l 1
 140 500 l 1
 151 494 l 1
 160 486 l 1
 169 476 l 1
 181 467 l 1
 184 462 l 1
 189 459 l 1
 192 449 l 1
 199 434 l 1
 195 408 l 1
 187 401 l 1
 185 385 l 1
 173 327 l 1
 161 271 l 1
 146 216 l 1
 128 166 l 1
 107 117 l 1
 84 71 l 1
 59 28 l 1
 28 -12 l 1
 -6 -50 l 1
 -13 -43 l 1
 10 1 l 1
 29 43 l 1
 48 88 l 1
 65 133 l 1
 79 181 l 1
 92 231 l 1
 103 284 l 1
 110 338 l 1
 117 393 l 1
 121 444 l 1
 122 449 l 1
 119 458 l 1
 117 466 l 1
 114 471 l 1
 111 478 l 1
 110 483 l 1
 107 488 l 1
 99 489 l 1
232 402 m 1
 232 453 l 1
 232 504 l 1
 236 567 l 1
 236 565 l 1
 234 564 l 1
 231 574 l 1
 231 581 l 1
 228 588 l 1
 226 593 l 1
 224 598 l 1
 221 603 l 1
 213 604 l 1
 206 623 l 1
 224 617 l 1
 232 618 l 1
 244 618 l 1
 254 614 l 1
 265 608 l 1
 274 600 l 1
 285 591 l 1
 293 580 l 1
 302 568 l 1
 309 549 l 1
 307 522 l 1
 303 519 l 1
 304 504 l 1
 304 453 l 1
 304 402 l 1
 304 350 l 1
 304 299 l 1
 304 248 l 1
 304 196 l 1
 304 144 l 1
 305 91 l 1
 296 92 l 1
 303 111 l 1
 332 140 l 1
 359 169 l 1
 383 203 l 1
 409 237 l 1
 432 275 l 1
 457 314 l 1
 482 355 l 1
 507 400 l 1
 518 395 l 1
 503 346 l 1
 487 299 l 1
 468 255 l 1
 447 213 l 1
 425 173 l 1
 401 137 l 1
 378 102 l 1
 351 69 l 1
 325 36 l 1
 311 25 l 1
 313 23 l 1
 299 -1 l 1
 273 -9 l 1
 248 4 l 1
 240 17 l 1
 238 22 l 1
 235 25 l 1
 230 35 l 1
 227 48 l 1
 224 58 l 1
 223 70 l 1
 225 83 l 1
 227 93 l 1
 230 103 l 1
 232 105 l 1
 232 144 l 1
 232 196 l 1
 232 248 l 1
 232 299 l 1
 232 350 l 1
 232 402 l 1
EndSplineSet
Comment: "Kage: aj1-00383+AAoA-Alias: uf017f"
EndChar
StartChar: uF0180
Encoding: 983424 983424 57
Width: 500
VWidth: 0
Flags: MW
LayerCount: 2
Fore
SplineSet
97 208 m 1
 97 267 l 1
 97 324 l 1
 97 378 l 1
 97 430 l 1
 97 479 l 1
 97 526 l 1
 97 567 l 1
 99 569 l 1
 98 576 l 1
 96 582 l 1
 97 586 l 1
 95 589 l 1
 92 593 l 1
 91 597 l 1
 84 595 l 1
 70 609 l 1
 89 609 l 1
 94 624 l 1
 107 618 l 1
 118 615 l 1
 128 611 l 1
 139 605 l 1
 149 595 l 1
 159 584 l 1
 159 585 l 1
 166 582 l 1
 169 565 l 1
 175 553 l 1
 171 527 l 1
 169 526 l 1
 169 526 l 1
 169 479 l 1
 169 430 l 1
 169 378 l 1
 169 324 l 1
 169 267 l 1
 169 208 l 1
 169 146 l 1
 169 82 l 1
 170 62 l 1
 171 58 l 1
 169 51 l 1
 161 31 l 1
 157 35 l 1
 195 66 l 1
 233 99 l 1
 271 136 l 1
 306 178 l 1
 341 223 l 1
 374 273 l 1
 407 326 l 1
 441 383 l 1
 474 446 l 1
 483 440 l 1
 460 373 l 1
 437 311 l 1
 409 253 l 1
 378 199 l 1
 347 147 l 1
 312 100 l 1
 275 57 l 1
 237 17 l 1
 197 -18 l 1
 178 -33 l 1
 169 -51 l 1
 139 -59 l 1
 117 -47 l 1
 107 -33 l 1
 100 -22 l 1
 94 -9 l 1
 91 4 l 1
 89 18 l 1
 89 30 l 1
 89 45 l 1
 92 58 l 1
 97 67 l 1
 97 82 l 1
 97 146 l 1
 97 208 l 1
EndSplineSet
Comment: "Kage: aj1-00384+AAoA-Alias: uf0180"
EndChar
StartChar: uF0181
Encoding: 983425 983425 58
Width: 500
VWidth: 0
Flags: MW
LayerCount: 2
Fore
SplineSet
363 517 m 1
 363 522 l 1
 378 532 l 1
 396 536 l 1
 413 529 l 1
 425 522 l 1
 436 511 l 1
 443 495 l 1
 454 482 l 1
 465 460 l 1
 462 434 l 1
 440 412 l 1
 441 415 l 1
 405 123 l 1
 408 123 l 1
 430 104 l 1
 430 74 l 1
 409 53 l 1
 381 54 l 1
 377 58 l 1
 371 55 l 1
 363 58 l 1
 353 65 l 1
 336 65 l 1
 317 64 l 1
 296 64 l 1
 272 62 l 1
 245 61 l 1
 205 56 l 1
 206 62 l 1
 193 57 l 1
 170 51 l 1
 151 46 l 1
 137 38 l 1
 138 42 l 1
 138 13 l 1
 132 -11 l 1
 104 -24 l 1
 76 -14 l 1
 66 10 l 1
 60 82 l 1
 62 144 l 1
 60 202 l 1
 58 256 l 1
 56 305 l 1
 54 351 l 1
 53 392 l 1
 52 428 l 1
 46 460 l 1
 50 504 l 1
 52 502 l 1
 51 498 l 1
 48 508 l 1
 46 517 l 1
 43 523 l 1
 40 531 l 1
 37 536 l 1
 37 543 l 1
 36 547 l 1
 27 551 l 1
 33 562 l 1
 40 559 l 1
 47 564 l 1
 57 562 l 1
 66 558 l 1
 77 552 l 1
 86 545 l 1
 94 537 l 1
 103 529 l 1
 113 521 l 1
 125 503 l 1
 125 501 l 1
 122 507 l 1
 124 506 l 1
 133 501 l 1
 135 497 l 1
 134 492 l 1
 141 490 l 1
 140 490 l 1
 142 491 l 1
 159 493 l 1
 178 493 l 1
 200 494 l 1
 225 498 l 1
 253 500 l 1
 283 504 l 1
 317 508 l 1
 355 513 l 1
 363 517 l 1
360 109 m 1
 335 102 l 1
 377 452 l 1
 381 446 l 1
 375 448 l 1
 364 453 l 1
 348 453 l 1
 330 453 l 1
 308 451 l 1
 283 448 l 1
 255 446 l 1
 215 440 l 1
 215 444 l 1
 209 440 l 1
 189 434 l 1
 170 427 l 1
 156 424 l 1
 146 420 l 1
 142 420 l 1
 141 420 l 1
 126 421 l 1
 126 423 l 1
 119 423 l 1
 104 431 l 1
 101 441 l 1
 115 438 l 1
 124 431 l 1
 125 394 l 1
 126 352 l 1
 128 308 l 1
 130 258 l 1
 132 204 l 1
 134 146 l 1
 133 106 l 1
 127 106 l 1
 143 105 l 1
 161 106 l 1
 185 108 l 1
 211 110 l 1
 241 111 l 1
 273 115 l 1
 310 118 l 1
 364 120 l 1
 362 118 l 1
 360 122 l 1
 360 109 l 1
388 460 m 1
 388 460 l 1
EndSplineSet
Comment: "Kage: aj1-00385+AAoA-Alias: uf0181"
EndChar
StartChar: uF0182
Encoding: 983426 983426 59
Width: 500
VWidth: 0
Flags: MW
LayerCount: 2
Fore
SplineSet
60 441 m 1
 61 464 l 1
 61 485 l 1
 65 517 l 1
 65 516 l 1
 60 516 l 1
 59 531 l 1
 61 545 l 1
 61 557 l 1
 63 566 l 1
 62 573 l 1
 60 581 l 1
 60 588 l 1
 62 593 l 1
 59 595 l 1
 56 617 l 1
 71 603 l 1
 80 601 l 1
 87 597 l 1
 95 589 l 1
 102 581 l 1
 110 570 l 1
 116 560 l 1
 120 560 l 1
 123 558 l 1
 128 556 l 1
 130 554 l 1
 132 550 l 1
 137 549 l 1
 137 550 l 1
 136 551 l 1
 140 553 l 1
 153 553 l 1
 155 550 l 1
 157 551 l 1
 173 550 l 1
 191 550 l 1
 214 552 l 1
 241 553 l 1
 271 558 l 1
 306 560 l 1
 344 562 l 1
 354 554 l 1
 358 551 l 1
 365 573 l 1
 380 580 l 1
 396 583 l 1
 414 577 l 1
 427 568 l 1
 437 555 l 1
 445 542 l 1
 452 527 l 1
 459 505 l 1
 453 480 l 1
 442 473 l 1
 436 421 l 1
 420 338 l 1
 398 259 l 1
 371 187 l 1
 341 121 l 1
 302 62 l 1
 259 9 l 1
 212 -35 l 1
 160 -73 l 1
 100 -103 l 1
 94 -91 l 1
 141 -45 l 1
 182 3 l 1
 219 54 l 1
 253 109 l 1
 282 166 l 1
 309 227 l 1
 333 293 l 1
 350 364 l 1
 366 440 l 1
 376 506 l 1
 379 502 l 1
 378 502 l 1
 371 504 l 1
 362 508 l 1
 348 510 l 1
 331 509 l 1
 313 508 l 1
 291 506 l 1
 265 504 l 1
 230 501 l 1
 230 505 l 1
 221 501 l 1
 199 496 l 1
 182 491 l 1
 167 485 l 1
 155 482 l 1
 138 481 l 1
 136 486 l 1
 132 485 l 1
 119 490 l 1
 114 495 l 1
 126 494 l 1
 133 504 l 1
 133 485 l 1
 133 464 l 1
 132 441 l 1
 133 418 l 1
 133 394 l 1
 133 369 l 1
 133 343 l 1
 133 316 l 1
 133 289 l 1
 133 256 l 1
 123 234 l 1
 97 223 l 1
 70 234 l 1
 61 257 l 1
 61 289 l 1
 61 316 l 1
 61 343 l 1
 61 369 l 1
 61 394 l 1
 61 418 l 1
 60 441 l 1
EndSplineSet
Comment: "Kage: aj1-00386+AAoA-Alias: uf0182"
EndChar
StartChar: uF0183
Encoding: 983427 983427 60
Width: 500
VWidth: 0
Flags: MW
LayerCount: 2
Fore
SplineSet
58 71 m 1
 70 71 l 1
 73 53 l 1
 78 40 l 1
 87 30 l 1
 94 21 l 1
 100 15 l 1
 106 10 l 1
 107 10 l 1
 138 34 l 1
 181 67 l 1
 223 103 l 1
 263 144 l 1
 301 189 l 1
 338 239 l 1
 372 293 l 1
 405 351 l 1
 438 416 l 1
 471 484 l 1
 482 483 l 1
 459 407 l 1
 435 338 l 1
 407 274 l 1
 375 215 l 1
 341 159 l 1
 305 108 l 1
 265 61 l 1
 224 17 l 1
 179 -21 l 1
 152 -37 l 1
 154 -42 l 1
 136 -63 l 1
 111 -65 l 1
 94 -56 l 1
 81 -47 l 1
 71 -34 l 1
 66 -21 l 1
 61 -8 l 1
 57 5 l 1
 57 21 l 1
 57 36 l 1
 59 52 l 1
 58 71 l 1
64 575 m 1
 69 587 l 1
 91 577 l 1
 108 568 l 1
 127 559 l 1
 144 545 l 1
 160 531 l 1
 175 513 l 1
 190 497 l 1
 204 478 l 1
 216 456 l 1
 229 430 l 1
 226 405 l 1
 207 387 l 1
 182 389 l 1
 164 404 l 1
 155 428 l 1
 147 448 l 1
 139 467 l 1
 133 485 l 1
 122 499 l 1
 112 517 l 1
 101 532 l 1
 91 547 l 1
 79 560 l 1
 64 575 l 1
EndSplineSet
Comment: "Kage: aj1-00387+AAoA-Alias: uf0183"
EndChar
StartChar: uF0185
Encoding: 983429 983429 62
Width: 500
VWidth: 0
Flags: MW
LayerCount: 2
Fore
SplineSet
238 622 m 1
 239 633 l 1
 236 643 l 1
 234 651 l 1
 229 658 l 1
 224 663 l 1
 216 669 l 1
 210 674 l 1
 201 677 l 1
 193 679 l 1
 182 680 l 1
 171 679 l 1
 164 677 l 1
 156 673 l 1
 148 669 l 1
 140 663 l 1
 135 658 l 1
 130 651 l 1
 128 643 l 1
 125 633 l 1
 126 622 l 1
 125 612 l 1
 128 604 l 1
 130 596 l 1
 136 588 l 1
 141 582 l 1
 148 576 l 1
 156 571 l 1
 164 568 l 1
 171 566 l 1
 182 566 l 1
 193 566 l 1
 201 568 l 1
 210 571 l 1
 216 575 l 1
 223 581 l 1
 228 588 l 1
 234 596 l 1
 236 604 l 1
 239 612 l 1
 238 622 l 1
296 622 m 1
 295 605 l 1
 291 587 l 1
 283 570 l 1
 275 555 l 1
 263 541 l 1
 249 530 l 1
 234 522 l 1
 219 515 l 1
 201 511 l 1
 182 508 l 1
 164 511 l 1
 146 515 l 1
 130 522 l 1
 115 530 l 1
 101 541 l 1
 90 556 l 1
 82 570 l 1
 74 587 l 1
 70 605 l 1
 68 622 l 1
 70 641 l 1
 74 659 l 1
 82 675 l 1
 91 689 l 1
 101 703 l 1
 114 716 l 1
 130 725 l 1
 146 731 l 1
 165 735 l 1
 182 737 l 1
 200 735 l 1
 219 731 l 1
 234 724 l 1
 250 716 l 1
 263 704 l 1
 274 689 l 1
 283 675 l 1
 291 659 l 1
 295 641 l 1
 296 622 l 1
EndSplineSet
Comment: "Kage: aj1-00389+AAoA-Alias: uf0185"
EndChar
StartChar: uF0187
Encoding: 983431 983431 63
Width: 500
VWidth: 0
Flags: MW
LayerCount: 2
Fore
SplineSet
256 266 m 1
 256 342 l 1
 256 412 l 1
 259 443 l 1
 238 440 l 1
 239 442 l 1
 247 446 l 1
 221 439 l 1
 198 434 l 1
 178 429 l 1
 160 425 l 1
 163 423 l 1
 164 422 l 1
 138 411 l 1
 110 418 l 1
 99 433 l 1
 94 443 l 1
 90 454 l 1
 87 467 l 1
 93 479 l 1
 94 490 l 1
 94 500 l 1
 98 513 l 1
 102 523 l 1
 103 538 l 1
 115 537 l 1
 115 523 l 1
 120 513 l 1
 125 506 l 1
 130 498 l 1
 135 491 l 1
 139 488 l 1
 139 491 l 1
 139 493 l 1
 154 492 l 1
 172 489 l 1
 192 488 l 1
 213 490 l 1
 240 491 l 1
 257 494 l 1
 253 486 l 1
 256 541 l 1
 256 598 l 1
 256 645 l 1
 258 652 l 1
 258 658 l 1
 256 664 l 1
 254 670 l 1
 254 675 l 1
 255 679 l 1
 249 679 l 1
 238 702 l 1
 258 692 l 1
 265 697 l 1
 275 694 l 1
 284 690 l 1
 293 683 l 1
 301 676 l 1
 312 669 l 1
 316 667 l 1
 326 663 l 1
 328 643 l 1
 337 630 l 1
 334 602 l 1
 328 599 l 1
 328 598 l 1
 328 541 l 1
 325 501 l 1
 333 499 l 1
 350 506 l 1
 350 509 l 1
 361 519 l 1
 378 521 l 1
 390 518 l 1
 403 514 l 1
 411 505 l 1
 417 498 l 1
 423 487 l 1
 433 473 l 1
 434 445 l 1
 411 423 l 1
 383 428 l 1
 369 441 l 1
 366 442 l 1
 367 441 l 1
 363 442 l 1
 354 446 l 1
 344 449 l 1
 330 450 l 1
 328 457 l 1
 326 468 l 1
 328 412 l 1
 328 342 l 1
 328 266 l 1
 325 227 l 1
 353 227 l 1
 376 231 l 1
 373 228 l 1
 382 241 l 1
 394 247 l 1
 407 250 l 1
 422 248 l 1
 433 243 l 1
 445 235 l 1
 454 224 l 1
 461 215 l 1
 471 197 l 1
 473 171 l 1
 452 148 l 1
 421 150 l 1
 410 162 l 1
 400 163 l 1
 399 166 l 1
 402 163 l 1
 389 165 l 1
 380 172 l 1
 366 174 l 1
 346 174 l 1
 326 173 l 1
 326 171 l 1
 328 100 l 1
 328 10 l 1
 328 -89 l 1
 319 -112 l 1
 292 -125 l 1
 265 -112 l 1
 256 -89 l 1
 256 10 l 1
 256 100 l 1
 259 167 l 1
 231 164 l 1
 235 171 l 1
 236 169 l 1
 205 157 l 1
 175 150 l 1
 147 153 l 1
 123 149 l 1
 128 149 l 1
 130 150 l 1
 103 133 l 1
 76 138 l 1
 60 152 l 1
 53 165 l 1
 48 176 l 1
 48 190 l 1
 46 203 l 1
 45 216 l 1
 47 229 l 1
 49 242 l 1
 52 254 l 1
 53 271 l 1
 65 271 l 1
 68 254 l 1
 71 244 l 1
 77 235 l 1
 82 226 l 1
 87 220 l 1
 93 215 l 1
 96 215 l 1
 101 219 l 1
 121 215 l 1
 142 213 l 1
 142 213 l 1
 141 374 l 1
 142 372 l 1
 144 365 l 1
 144 371 l 1
 143 377 l 1
 144 380 l 1
 142 384 l 1
 141 389 l 1
 135 389 l 1
 124 412 l 1
 144 401 l 1
 150 403 l 1
 161 406 l 1
 169 403 l 1
 179 396 l 1
 187 391 l 1
 196 383 l 1
 203 376 l 1
 206 376 l 1
 210 371 l 1
 211 360 l 1
 217 345 l 1
 213 318 l 1
 211 319 l 1
 208 217 l 1
 231 217 l 1
 257 221 l 1
 253 212 l 1
 256 266 l 1
EndSplineSet
Comment: "Kage: aj1-00391+AAoA-Alias: uf0187"
EndChar
StartChar: uF0188
Encoding: 983432 983432 64
Width: 500
VWidth: 0
Flags: MW
LayerCount: 2
Fore
SplineSet
345 514 m 1
 346 521 l 1
 340 513 l 1
 345 514 l 1
202 349 m 1
 192 371 l 1
 212 362 l 1
 220 366 l 1
 231 363 l 1
 241 359 l 1
 251 352 l 1
 260 345 l 1
 270 333 l 1
 265 340 l 1
 264 337 l 1
 275 357 l 1
 285 378 l 1
 294 397 l 1
 303 415 l 1
 310 431 l 1
 317 447 l 1
 323 462 l 1
 328 476 l 1
 329 471 l 1
 335 462 l 1
 329 464 l 1
 322 470 l 1
 310 470 l 1
 295 471 l 1
 279 469 l 1
 259 467 l 1
 229 460 l 1
 231 470 l 1
 236 469 l 1
 213 461 l 1
 194 454 l 1
 177 450 l 1
 173 451 l 1
 171 456 l 1
 167 435 l 1
 142 423 l 1
 115 431 l 1
 103 445 l 1
 96 458 l 1
 92 469 l 1
 93 482 l 1
 90 493 l 1
 89 507 l 1
 90 518 l 1
 93 530 l 1
 96 541 l 1
 97 555 l 1
 109 555 l 1
 109 542 l 1
 115 534 l 1
 121 526 l 1
 126 518 l 1
 130 511 l 1
 137 507 l 1
 141 505 l 1
 132 506 l 1
 134 508 l 1
 152 509 l 1
 167 507 l 1
 185 508 l 1
 205 509 l 1
 227 510 l 1
 251 515 l 1
 277 518 l 1
 307 522 l 1
 324 529 l 1
 320 526 l 1
 322 537 l 1
 343 549 l 1
 363 546 l 1
 376 539 l 1
 387 528 l 1
 395 514 l 1
 403 501 l 1
 413 479 l 1
 408 451 l 1
 385 431 l 1
 372 444 l 1
 372 439 l 1
 378 429 l 1
 367 416 l 1
 355 402 l 1
 342 389 l 1
 328 375 l 1
 315 358 l 1
 296 342 l 1
 280 325 l 1
 280 314 l 1
 286 312 l 1
 295 293 l 1
 290 266 l 1
 286 264 l 1
 281 106 l 1
 309 107 l 1
 353 112 l 1
 375 111 l 1
 375 106 l 1
 382 123 l 1
 393 131 l 1
 408 135 l 1
 424 131 l 1
 434 126 l 1
 444 119 l 1
 454 110 l 1
 460 97 l 1
 471 84 l 1
 471 55 l 1
 452 34 l 1
 421 35 l 1
 404 55 l 1
 407 52 l 1
 406 46 l 1
 400 49 l 1
 397 51 l 1
 392 53 l 1
 381 57 l 1
 366 59 l 1
 346 59 l 1
 326 59 l 1
 301 57 l 1
 274 49 l 1
 232 47 l 1
 230 54 l 1
 234 50 l 1
 203 49 l 1
 173 44 l 1
 148 39 l 1
 125 34 l 1
 128 35 l 1
 129 34 l 1
 103 17 l 1
 76 24 l 1
 61 37 l 1
 54 48 l 1
 47 61 l 1
 48 77 l 1
 46 87 l 1
 45 101 l 1
 46 114 l 1
 49 126 l 1
 52 140 l 1
 53 157 l 1
 65 155 l 1
 68 140 l 1
 71 129 l 1
 77 120 l 1
 82 112 l 1
 87 104 l 1
 93 100 l 1
 97 99 l 1
 92 102 l 1
 102 103 l 1
 120 99 l 1
 142 98 l 1
 168 98 l 1
 198 100 l 1
 219 100 l 1
 217 313 l 1
 218 311 l 1
 213 310 l 1
 216 320 l 1
 214 326 l 1
 214 333 l 1
 212 338 l 1
 209 343 l 1
 209 348 l 1
 202 349 l 1
EndSplineSet
Comment: "Kage: aj1-00392+AAoA-Alias: uf0188"
EndChar
StartChar: uF0189
Encoding: 983433 983433 65
Width: 500
VWidth: 0
Flags: MW
LayerCount: 2
Fore
SplineSet
56 313 m 1
 56 331 l 2
 56 342 56 353 60 376 c 1
 60 375 l 1
 55 370 55 377 54 384 c 2
 58 394 l 1
 57 402 l 1
 57 410 l 2
 57 414 57 419 57 423 c 2
 57 428 l 1
 58 432 l 1
 53 435 l 1
 52 457 l 1
 65 443 l 1
 72 443 l 1
 80 440 l 1
 88 437 l 1
 96 428 l 1
 104 420 l 1
 109 410 l 2
 110 409 112 408 105 416 c 1
 92 414 94 415 105 417 c 1
 113 412 l 1
 114 412 l 2
 115 411 116 404 120 403 c 2
 125 403 l 1
 129 404 l 1
 128 406 l 1
 130 409 l 1
 136 410 l 1
 146 409 l 2
 151 405 152 404 149 406 c 2
 153 406 l 1
 167 406 l 1
 187 406 l 1
 209 408 l 1
 237 408 l 1
 268 408 l 1
 301 410 l 1
 340 413 l 1
 358 414 l 2
 360 415 361 415 359 417 c 2
 363 423 l 1
 374 429 l 1
 390 432 l 1
 406 429 l 1
 419 422 l 1
 429 413 l 1
 438 401 l 1
 445 387 l 1
 453 368 l 1
 449 343 l 1
 436 334 l 1
 430 295 l 1
 413 227 l 1
 391 164 l 1
 364 105 l 1
 333 51 l 1
 295 5 l 1
 253 -38 l 1
 205 -73 l 1
 153 -100 l 1
 95 -122 l 1
 91 -112 l 1
 138 -72 l 1
 179 -33 l 1
 216 9 l 1
 251 51 l 1
 280 98 l 1
 306 147 l 1
 328 200 l 1
 347 254 l 1
 360 314 l 2
 364 332 366 350 369 361 c 1
 375 354 l 1
 374 354 l 1
 367 356 l 1
 357 363 l 1
 343 363 l 1
 326 364 l 1
 306 364 l 1
 284 364 l 1
 261 362 l 1
 233 359 l 1
 216 355 l 1
 193 352 l 1
 175 347 l 1
 161 343 l 1
 151 338 l 1
 131 337 l 1
 129 344 l 1
 138 343 136 342 130 341 c 2
 117 344 l 1
 110 350 l 2
 108 354 106 356 104 360 c 2
 119 359 l 1
 126 378 127 378 128 372 c 0
 128 365 127 364 124 375 c 1
 124 376 l 1
 128 353 128 342 128 331 c 2
 128 313 l 1
 128 295 l 2
 128 253 128 212 128 167 c 1
 118 144 l 1
 92 133 l 1
 66 144 l 1
 56 167 l 1
 56 212 56 253 56 295 c 2
 56 313 l 1
EndSplineSet
Comment: "Kage: aj1-00393+AAoA-Alias: uf0189"
EndChar
StartChar: uF018A
Encoding: 983434 983434 66
Width: 500
VWidth: 0
Flags: MW
LayerCount: 2
Fore
SplineSet
353 -95 m 1
 329 -105 l 1
 302 -95 l 1
 291 -69 l 1
 295 -61 293 -58 299 -69 c 1
 297 -72 l 1
 290 -58 l 1
 289 -55 l 1
 287 -48 l 1
 286 -37 l 2
 282 -29 277 -21 273 -12 c 0
 267 -2 261 9 255 20 c 2
 243 38 l 1
 227 58 l 1
 236 66 l 1
 254 49 l 2
 266 41 278 32 289 24 c 0
 298 16 306 9 315 3 c 0
 321 -2 330 -7 337 -13 c 0
 338 -14 338 -15 326 -7 c 1
 317 -10 321 -3 323 3 c 2
 333 34 l 1
 341 69 l 1
 350 107 l 1
 358 151 l 1
 366 194 l 1
 372 240 l 2
 374 253 374 267 380 270 c 1
 371 277 l 1
 373 281 l 1
 382 267 l 1
 380 267 l 1
 375 269 l 1
 365 273 l 1
 353 275 l 1
 336 276 l 1
 318 275 l 1
 296 276 l 1
 274 274 l 1
 275 270 l 1
 274 261 270 244 266 225 c 2
 247 158 l 1
 224 96 l 1
 198 43 l 1
 166 -3 l 1
 129 -43 l 1
 88 -78 l 1
 40 -106 l 1
 27 -113 l 1
 34 -104 24 -111 33 -98 c 2
 67 -51 l 1
 98 -10 l 1
 124 34 l 1
 148 80 l 1
 169 129 l 1
 187 184 l 1
 204 245 l 1
 213 266 l 1
 219 266 212 265 204 263 c 2
 178 257 l 1
 157 252 l 1
 141 248 l 1
 144 248 l 2
 143 245 139 242 130 237 c 1
 104 241 l 1
 91 252 l 1
 84 262 l 1
 79 273 l 1
 77 286 l 1
 74 296 l 1
 75 308 l 1
 75 319 l 1
 78 329 l 1
 81 340 l 1
 82 353 l 1
 94 353 l 1
 95 340 l 1
 99 332 l 1
 104 325 l 1
 109 319 l 1
 114 314 l 1
 117 313 l 1
 123 312 l 2
 127 308 128 306 124 312 c 1
 133 311 l 1
 149 311 l 1
 171 313 l 1
 197 313 l 2
 208 313 218 315 218 318 c 2
 214 315 l 1
 227 394 l 2
 230 423 234 453 239 478 c 1
 241 477 l 1
 241 482 l 1
 240 486 l 1
 238 491 l 1
 235 493 l 1
 231 499 l 1
 224 500 l 1
 222 511 l 1
 232 511 l 1
 239 516 l 1
 248 517 l 1
 257 516 l 1
 267 516 l 1
 277 513 l 1
 289 509 l 1
 297 502 l 1
 305 493 l 1
 314 479 l 1
 314 452 l 1
 305 442 l 1
 298 384 l 2
 294 358 288 332 281 321 c 1
 292 322 318 326 343 328 c 2
 366 333 l 2
 362 330 364 332 368 336 c 2
 381 343 l 1
 396 343 l 1
 409 338 l 1
 418 332 l 1
 427 324 l 1
 435 314 l 1
 444 304 l 1
 454 287 l 1
 454 259 l 1
 448 251 446 250 446 251 c 2
 444 232 l 1
 438 184 l 1
 430 137 l 1
 422 93 l 1
 412 52 l 1
 401 14 l 1
 391 -19 l 1
 381 -49 l 1
 369 -74 l 1
 353 -95 l 1
EndSplineSet
Comment: "Kage: aj1-00394+AAoA-Alias: uf018a"
EndChar
StartChar: uF018B
Encoding: 983435 983435 67
Width: 500
VWidth: 0
Flags: MW
LayerCount: 2
Fore
SplineSet
141 491 m 1
 132 511 l 1
 149 501 153 504 158 506 c 2
 168 505 l 1
 176 502 l 1
 186 499 l 1
 196 491 l 1
 204 484 l 1
 215 475 l 2
 221 468 225 460 231 449 c 1
 230 424 l 1
 211 403 l 1
 203 402 202 402 213 405 c 1
 212 397 l 1
 200 355 l 1
 187 314 l 2
 184 308 181 302 181 303 c 0
 182 310 183 309 183 309 c 2
 187 303 l 2
 185 305 181 304 179 308 c 1
 183 309 l 1
 196 305 l 1
 212 306 l 1
 231 304 l 1
 253 304 l 1
 277 311 l 1
 296 304 315 306 334 307 c 2
 367 311 l 1
 379 313 l 2
 378 313 379 313 380 313 c 2
 386 315 l 2
 389 315 391 316 389 319 c 2
 382 314 l 2
 380 310 380 311 384 320 c 1
 396 329 l 1
 409 331 l 1
 420 331 l 1
 432 325 l 1
 441 319 l 1
 447 311 l 1
 454 304 l 1
 463 291 l 1
 462 264 l 1
 443 243 l 1
 413 243 l 1
 405 252 403 255 404 253 c 2
 389 267 l 1
 393 272 l 1
 396 257 397 256 397 256 c 0
 398 255 396 257 395 258 c 2
 395 258 l 1
 387 262 l 1
 376 266 l 1
 364 266 l 1
 349 265 l 1
 330 265 l 1
 310 264 l 1
 278 259 l 1
 286 270 269 269 279 261 c 1
 287 261 286 261 300 267 c 1
 287 277 286 287 287 287 c 2
 296 285 l 1
 305 280 l 1
 310 275 l 1
 317 272 l 2
 323 266 327 261 332 253 c 1
 335 227 l 1
 329 220 l 2
 328 212 325 200 323 187 c 2
 311 134 l 1
 296 85 l 1
 276 39 l 1
 252 -3 l 1
 226 -42 l 1
 195 -76 l 1
 159 -102 l 1
 120 -122 l 1
 82 -131 l 2
 82 -131 81 -132 78 -134 c 2
 77 -133 l 1
 76 -134 l 1
 69 -130 66 -129 72 -124 c 2
 104 -94 l 1
 132 -65 l 1
 158 -34 l 1
 181 -2 l 1
 201 33 l 1
 219 70 l 1
 234 111 l 1
 245 154 l 1
 255 199 l 1
 265 260 l 1
 278 264 278 263 263 257 c 1
 264 244 l 1
 262 249 l 1
 264 254 l 2
 267 254 265 256 264 259 c 2
 262 253 l 1
 254 253 l 1
 257 256 l 2
 257 254 246 253 236 250 c 2
 217 244 l 1
 200 242 l 2
 198 241 196 241 204 242 c 1
 207 251 207 251 206 243 c 1
 180 230 l 1
 155 236 l 1
 143 248 l 1
 138 259 l 2
 138 260 138 260 154 250 c 1
 161 255 156 247 153 239 c 2
 135 204 l 1
 113 172 l 1
 92 142 l 1
 68 113 l 1
 40 86 l 1
 31 93 l 1
 44 116 55 136 65 158 c 2
 81 190 l 2
 90 212 98 236 106 259 c 2
 113 297 l 1
 129 333 l 1
 138 371 l 1
 147 413 l 1
 160 466 l 1
 173 469 174 469 158 463 c 1
 158 448 158 448 158 448 c 2
 156 455 l 2
 155 460 153 465 152 470 c 0
 151 474 151 477 150 480 c 2
 148 484 l 1
 148 489 l 1
 141 491 l 1
EndSplineSet
Comment: "Kage: aj1-00395+AAoA-Alias: uf018b"
EndChar
StartChar: uF018C
Encoding: 983436 983436 68
Width: 500
VWidth: 0
Flags: MW
LayerCount: 2
Fore
SplineSet
205 674 m 1
 196 695 l 1
 213 686 l 1
 221 688 l 1
 231 688 l 1
 239 684 l 1
 249 678 l 1
 257 669 l 1
 267 660 l 1
 274 650 l 1
 284 638 l 1
 292 619 l 1
 289 593 l 1
 285 590 l 1
 281 486 l 1
 296 488 l 1
 328 492 l 1
 339 496 l 1
 343 501 l 1
 355 509 l 1
 373 512 l 1
 390 507 l 1
 402 496 l 1
 410 485 l 1
 418 471 l 1
 424 455 l 1
 429 433 l 1
 422 409 l 1
 414 404 l 1
 410 353 l 1
 395 276 l 1
 377 204 l 1
 355 139 l 1
 327 79 l 1
 296 27 l 1
 261 -19 l 1
 219 -56 l 1
 175 -86 l 1
 125 -106 l 1
 119 -98 l 1
 122 -96 l 1
 123 -95 l 1
 159 -55 l 1
 191 -13 l 1
 223 32 l 1
 252 79 l 1
 277 131 l 1
 297 185 l 1
 315 243 l 1
 331 305 l 1
 341 373 l 1
 353 435 l 1
 359 431 l 1
 354 432 l 1
 349 434 l 1
 342 438 l 1
 332 440 l 1
 318 441 l 1
 302 440 l 1
 285 439 l 1
 265 432 l 1
 232 429 l 1
 231 432 l 1
 227 432 l 1
 209 426 l 1
 194 421 l 1
 183 416 l 1
 174 413 l 1
 155 412 l 1
 154 418 l 1
 145 415 l 1
 151 418 l 1
 158 415 l 1
 158 394 l 1
 158 372 l 1
 158 350 l 1
 158 328 l 1
 158 304 l 1
 158 280 l 1
 158 256 l 1
 158 231 l 1
 158 201 l 1
 148 179 l 1
 122 169 l 1
 96 179 l 1
 86 201 l 1
 86 231 l 1
 86 256 l 1
 86 280 l 1
 86 304 l 1
 86 328 l 1
 86 350 l 1
 86 372 l 1
 86 394 l 1
 86 415 l 1
 90 447 l 1
 91 446 l 1
 87 446 l 1
 86 463 l 1
 88 476 l 1
 88 488 l 1
 90 498 l 1
 90 505 l 1
 90 513 l 1
 89 519 l 1
 93 523 l 1
 90 525 l 1
 93 548 l 1
 101 532 l 1
 110 531 l 1
 117 525 l 1
 125 519 l 1
 131 508 l 1
 137 499 l 1
 143 488 l 1
 145 488 l 1
 146 487 l 1
 147 485 l 1
 148 486 l 1
 151 484 l 1
 155 484 l 1
 157 480 l 1
 156 482 l 1
 160 481 l 1
 159 481 l 1
 167 484 l 1
 171 481 l 1
 170 481 l 1
 185 479 l 1
 200 480 l 1
 220 481 l 1
 220 480 l 1
 218 637 l 1
 218 635 l 1
 216 636 l 1
 215 645 l 1
 213 652 l 1
 211 658 l 1
 210 664 l 1
 208 669 l 1
 209 673 l 1
 205 674 l 1
338 693 m 1
 346 699 l 1
 358 689 l 1
 368 680 l 1
 380 670 l 1
 388 657 l 1
 398 645 l 1
 407 631 l 1
 414 615 l 1
 422 599 l 1
 429 582 l 1
 436 559 l 1
 430 535 l 1
 408 520 l 1
 382 523 l 1
 365 544 l 1
 363 567 l 1
 363 582 l 1
 360 597 l 1
 357 614 l 1
 356 627 l 1
 354 641 l 1
 349 653 l 1
 347 668 l 1
 344 680 l 1
 338 693 l 1
388 746 m 1
 396 754 l 1
 408 745 l 1
 419 738 l 1
 429 729 l 1
 439 718 l 1
 448 707 l 1
 459 693 l 1
 466 680 l 1
 474 666 l 1
 482 651 l 1
 488 631 l 1
 483 605 l 1
 461 590 l 1
 434 593 l 1
 418 613 l 1
 416 634 l 1
 415 647 l 1
 413 661 l 1
 411 675 l 1
 409 687 l 1
 406 700 l 1
 402 711 l 1
 399 723 l 1
 395 736 l 1
 388 746 l 1
EndSplineSet
Comment: "Kage: aj1-00396+AAoA-Alias: uf018c"
EndChar
StartChar: uF018D
Encoding: 983437 983437 69
Width: 500
VWidth: 0
Flags: MW
LayerCount: 2
Fore
SplineSet
218 125 m 1
 227 131 l 1
 247 109 l 1
 264 92 l 1
 281 77 l 1
 293 61 l 1
 306 49 l 1
 316 37 l 1
 312 36 l 1
 306 48 l 1
 316 87 l 1
 324 132 l 1
 335 181 l 1
 342 234 l 1
 348 290 l 1
 354 348 l 1
 362 398 l 1
 377 396 l 1
 379 394 l 1
 361 391 l 1
 356 393 l 1
 350 398 l 1
 338 399 l 1
 323 400 l 1
 307 399 l 1
 286 398 l 1
 264 391 l 1
 267 394 l 1
 259 334 l 1
 241 250 l 1
 218 176 l 1
 192 111 l 1
 163 53 l 1
 128 -1 l 1
 89 -43 l 1
 43 -80 l 1
 28 -87 l 1
 34 -73 l 1
 35 -71 l 1
 38 -67 l 1
 65 -18 l 1
 94 33 l 1
 119 87 l 1
 142 143 l 1
 162 206 l 1
 178 275 l 1
 193 353 l 1
 204 388 l 1
 199 385 l 1
 175 378 l 1
 155 374 l 1
 146 380 l 1
 142 381 l 1
 148 367 l 1
 125 355 l 1
 98 360 l 1
 85 374 l 1
 79 386 l 1
 75 399 l 1
 73 412 l 1
 71 425 l 1
 73 438 l 1
 74 450 l 1
 77 463 l 1
 81 474 l 1
 81 491 l 1
 93 491 l 1
 93 474 l 1
 99 464 l 1
 104 455 l 1
 109 446 l 1
 115 439 l 1
 119 433 l 1
 125 429 l 1
 125 431 l 1
 128 432 l 1
 145 431 l 1
 165 433 l 1
 189 436 l 1
 207 441 l 1
 205 441 l 1
 217 540 l 1
 230 651 l 1
 231 651 l 1
 228 658 l 1
 228 663 l 1
 227 666 l 1
 224 670 l 1
 223 674 l 1
 215 675 l 1
 204 696 l 1
 224 687 l 1
 230 694 l 1
 240 692 l 1
 251 690 l 1
 259 688 l 1
 271 686 l 1
 281 677 l 1
 291 668 l 1
 295 661 l 1
 296 659 l 1
 285 657 l 1
 285 656 l 1
 305 640 l 1
 303 613 l 1
 294 606 l 1
 288 532 l 1
 270 446 l 1
 287 450 l 1
 328 455 l 1
 349 461 l 1
 350 463 l 1
 364 471 l 1
 381 471 l 1
 394 465 l 1
 404 457 l 1
 415 445 l 1
 419 431 l 1
 430 419 l 1
 437 399 l 1
 436 373 l 1
 427 366 l 1
 426 343 l 1
 420 283 l 1
 413 224 l 1
 404 169 l 1
 396 119 l 1
 386 71 l 1
 375 30 l 1
 367 -5 l 1
 356 -35 l 1
 343 -60 l 1
 319 -73 l 1
 291 -68 l 1
 277 -44 l 1
 282 -17 l 1
 285 -27 l 1
 286 -36 l 1
 275 -19 l 1
 273 -12 l 1
 270 -3 l 1
 270 10 l 1
 267 24 l 1
 260 40 l 1
 251 57 l 1
 243 77 l 1
 233 101 l 1
 218 125 l 1
338 683 m 1
 346 689 l 1
 358 679 l 1
 368 670 l 1
 380 660 l 1
 388 647 l 1
 398 635 l 1
 407 621 l 1
 414 605 l 1
 422 589 l 1
 429 572 l 1
 436 550 l 1
 432 523 l 1
 408 509 l 1
 382 512 l 1
 365 534 l 1
 363 557 l 1
 363 572 l 1
 360 587 l 1
 357 604 l 1
 356 617 l 1
 354 631 l 1
 349 643 l 1
 347 658 l 1
 344 670 l 1
 338 683 l 1
388 736 m 1
 396 744 l 1
 408 735 l 1
 419 728 l 1
 429 719 l 1
 439 708 l 1
 448 697 l 1
 459 683 l 1
 466 670 l 1
 474 656 l 1
 482 641 l 1
 488 621 l 1
 485 595 l 1
 461 579 l 1
 434 582 l 1
 418 603 l 1
 416 624 l 1
 415 637 l 1
 413 651 l 1
 411 665 l 1
 409 677 l 1
 406 690 l 1
 402 701 l 1
 399 713 l 1
 395 726 l 1
 388 736 l 1
EndSplineSet
Comment: "Kage: aj1-00397+AAoA-Alias: uf018d"
EndChar
StartChar: uF018E
Encoding: 983438 983438 70
Width: 500
VWidth: 0
Flags: MW
LayerCount: 2
Fore
SplineSet
163 652 m 1
 181 655 l 1
 181 671 l 1
 195 668 l 1
 205 669 l 1
 216 669 l 1
 227 663 l 1
 237 657 l 1
 248 650 l 1
 251 648 l 1
 258 645 l 1
 259 633 l 1
 267 625 l 1
 269 598 l 1
 263 592 l 1
 264 579 l 1
 268 521 l 1
 273 453 l 1
 272 465 l 1
 284 476 l 1
 336 494 l 1
 335 492 l 1
 320 490 l 1
 319 489 l 1
 327 503 l 1
 339 512 l 1
 355 517 l 1
 372 514 l 1
 382 509 l 1
 394 502 l 1
 406 489 l 1
 413 462 l 1
 397 436 l 1
 367 432 l 1
 369 432 l 1
 371 432 l 1
 361 431 l 1
 353 431 l 1
 341 432 l 1
 326 427 l 1
 308 423 l 1
 286 416 l 1
 276 410 l 1
 278 392 l 1
 284 321 l 1
 290 246 l 1
 286 235 l 1
 280 234 l 1
 324 251 l 1
 368 272 l 1
 368 276 l 1
 383 287 l 1
 397 293 l 1
 416 293 l 1
 432 286 l 1
 445 276 l 1
 457 262 l 1
 460 233 l 1
 441 209 l 1
 412 209 l 1
 415 208 l 1
 418 206 l 1
 406 207 l 1
 399 206 l 1
 383 208 l 1
 381 207 l 1
 375 203 l 1
 367 203 l 1
 366 203 l 1
 344 196 l 1
 318 188 l 1
 288 175 l 1
 293 175 l 1
 296 169 l 1
 302 85 l 1
 310 -1 l 1
 318 -96 l 1
 310 -121 l 1
 284 -133 l 1
 255 -124 l 1
 246 -100 l 1
 238 -7 l 1
 230 81 l 1
 224 165 l 1
 228 158 l 1
 220 152 l 1
 171 132 l 1
 170 135 l 1
 167 132 l 1
 146 123 l 1
 142 118 l 1
 143 116 l 1
 117 99 l 1
 90 101 l 1
 77 113 l 1
 67 123 l 1
 61 135 l 1
 58 147 l 1
 59 159 l 1
 57 171 l 1
 58 182 l 1
 61 192 l 1
 62 202 l 1
 64 215 l 1
 76 215 l 1
 78 204 l 1
 81 196 l 1
 88 190 l 1
 93 183 l 1
 98 179 l 1
 103 175 l 1
 106 174 l 1
 102 177 l 1
 109 178 l 1
 127 179 l 1
 148 185 l 1
 174 194 l 1
 204 206 l 1
 221 214 l 1
 218 242 l 1
 212 317 l 1
 206 387 l 1
 210 391 l 1
 205 388 l 1
 158 372 l 1
 161 375 l 1
 171 377 l 1
 153 368 l 1
 144 359 l 1
 144 358 l 1
 128 349 l 1
 119 351 l 1
 108 349 l 1
 105 352 l 1
 103 352 l 1
 88 361 l 1
 80 370 l 1
 73 382 l 1
 72 395 l 1
 70 405 l 1
 70 416 l 1
 68 427 l 1
 70 438 l 1
 75 447 l 1
 74 461 l 1
 86 461 l 1
 87 449 l 1
 93 442 l 1
 99 436 l 1
 103 429 l 1
 108 427 l 1
 114 423 l 1
 118 422 l 1
 121 421 l 1
 119 422 l 1
 120 421 l 1
 132 424 l 1
 149 428 l 1
 169 435 l 1
 193 444 l 1
 203 450 l 1
 202 453 l 1
 196 515 l 1
 192 574 l 1
 191 620 l 1
 191 621 l 1
 190 627 l 1
 190 631 l 1
 186 635 l 1
 188 639 l 1
 189 641 l 1
 186 643 l 1
 180 640 l 1
 163 652 l 1
338 683 m 1
 346 689 l 1
 358 679 l 1
 368 670 l 1
 380 660 l 1
 388 647 l 1
 398 635 l 1
 407 621 l 1
 414 605 l 1
 422 589 l 1
 429 572 l 1
 436 550 l 1
 433 523 l 1
 408 508 l 1
 381 511 l 1
 365 534 l 1
 363 557 l 1
 363 572 l 1
 360 587 l 1
 357 604 l 1
 356 617 l 1
 354 631 l 1
 349 643 l 1
 347 658 l 1
 344 670 l 1
 338 683 l 1
388 736 m 1
 396 744 l 1
 408 735 l 1
 419 728 l 1
 429 719 l 1
 439 708 l 1
 448 697 l 1
 459 683 l 1
 466 670 l 1
 474 656 l 1
 482 641 l 1
 488 621 l 1
 486 594 l 1
 461 578 l 1
 433 582 l 1
 418 603 l 1
 416 624 l 1
 415 637 l 1
 413 651 l 1
 411 665 l 1
 409 677 l 1
 406 690 l 1
 402 701 l 1
 399 713 l 1
 395 726 l 1
 388 736 l 1
EndSplineSet
Comment: "Kage: aj1-00398+AAoA-Alias: uf018e"
EndChar
StartChar: uF018F
Encoding: 983439 983439 71
Width: 500
VWidth: 0
Flags: MW
LayerCount: 2
Fore
SplineSet
199 664 m 1
 191 685 l 1
 208 676 l 1
 215 678 l 1
 225 678 l 1
 233 673 l 1
 242 668 l 1
 251 661 l 1
 259 651 l 1
 266 641 l 1
 269 634 l 1
 275 630 l 1
 277 620 l 1
 280 613 l 1
 275 587 l 1
 267 581 l 1
 265 569 l 1
 252 536 l 1
 249 540 l 1
 253 537 l 1
 253 536 l 1
 256 533 l 1
 262 532 l 1
 271 530 l 1
 282 533 l 1
 295 535 l 1
 309 537 l 1
 325 537 l 1
 347 545 l 1
 345 544 l 1
 342 551 l 1
 359 559 l 1
 376 557 l 1
 391 550 l 1
 402 538 l 1
 410 526 l 1
 419 514 l 1
 427 493 l 1
 425 468 l 1
 410 457 l 1
 404 417 l 1
 385 340 l 1
 363 263 l 1
 335 191 l 1
 307 119 l 1
 272 54 l 1
 233 -4 l 1
 188 -54 l 1
 138 -92 l 1
 84 -116 l 1
 75 -108 l 1
 79 -106 l 1
 80 -105 l 1
 119 -62 l 1
 155 -13 l 1
 190 39 l 1
 221 97 l 1
 252 159 l 1
 279 223 l 1
 300 292 l 1
 320 362 l 1
 337 434 l 1
 350 490 l 1
 345 495 l 1
 347 493 l 1
 353 486 l 1
 346 488 l 1
 341 492 l 1
 332 493 l 1
 321 493 l 1
 309 489 l 1
 294 489 l 1
 272 482 l 1
 272 486 l 1
 270 483 l 1
 264 476 l 1
 261 475 l 1
 257 472 l 1
 231 468 l 1
 223 473 l 1
 221 476 l 1
 217 480 l 1
 227 474 l 1
 237 477 l 1
 222 432 l 1
 204 390 l 1
 184 352 l 1
 164 316 l 1
 143 281 l 1
 118 250 l 1
 90 220 l 1
 81 226 l 1
 98 263 l 1
 113 297 l 1
 128 333 l 1
 143 370 l 1
 155 410 l 1
 168 450 l 1
 179 492 l 1
 188 538 l 1
 199 583 l 1
 207 625 l 1
 208 629 l 1
 206 637 l 1
 206 645 l 1
 205 651 l 1
 206 655 l 1
 204 658 l 1
 204 663 l 1
 199 664 l 1
350 716 m 1
 358 725 l 1
 371 714 l 1
 381 705 l 1
 393 695 l 1
 402 683 l 1
 411 669 l 1
 419 655 l 1
 427 640 l 1
 435 624 l 1
 442 606 l 1
 448 584 l 1
 443 561 l 1
 419 544 l 1
 393 551 l 1
 378 570 l 1
 376 592 l 1
 375 607 l 1
 373 623 l 1
 370 637 l 1
 369 652 l 1
 365 665 l 1
 362 679 l 1
 360 691 l 1
 356 705 l 1
 350 716 l 1
400 772 m 1
 408 780 l 1
 421 770 l 1
 432 762 l 1
 441 754 l 1
 452 743 l 1
 461 731 l 1
 471 719 l 1
 479 705 l 1
 487 692 l 1
 495 675 l 1
 500 654 l 1
 495 632 l 1
 474 614 l 1
 445 621 l 1
 431 641 l 1
 429 658 l 1
 425 673 l 1
 426 687 l 1
 423 700 l 1
 421 713 l 1
 418 725 l 1
 415 737 l 1
 411 748 l 1
 408 761 l 1
 400 772 l 1
346 498 m 1
 347 498 l 1
 346 498 l 1
EndSplineSet
Comment: "Kage: aj1-00399+AAoA-Alias: uf018f"
EndChar
StartChar: uF0190
Encoding: 983440 983440 72
Width: 500
VWidth: 0
Flags: MW
LayerCount: 2
Fore
SplineSet
155 664 m 1
 146 685 l 1
 164 676 l 1
 172 679 l 1
 181 678 l 1
 191 671 l 1
 202 666 l 1
 209 657 l 1
 218 648 l 1
 227 636 l 1
 236 622 l 1
 243 601 l 1
 239 578 l 1
 229 570 l 1
 225 550 l 1
 212 497 l 1
 198 447 l 1
 192 430 l 1
 194 433 l 1
 201 423 l 1
 195 424 l 1
 189 426 l 1
 205 426 l 1
 220 423 l 1
 238 423 l 1
 258 423 l 1
 280 430 l 1
 307 429 l 1
 335 432 l 1
 367 435 l 1
 380 438 l 1
 378 433 l 1
 381 443 l 1
 392 454 l 1
 409 457 l 1
 423 454 l 1
 433 447 l 1
 441 439 l 1
 448 429 l 1
 453 420 l 1
 461 404 l 1
 457 378 l 1
 436 360 l 1
 409 361 l 1
 391 384 l 1
 392 385 l 1
 393 379 l 1
 391 380 l 1
 386 382 l 1
 377 387 l 1
 365 386 l 1
 350 385 l 1
 333 383 l 1
 314 381 l 1
 307 383 l 1
 303 392 l 1
 311 389 l 1
 319 383 l 1
 325 377 l 1
 330 369 l 1
 338 357 l 1
 337 328 l 1
 332 324 l 1
 328 285 l 1
 317 222 l 1
 303 161 l 1
 283 104 l 1
 263 52 l 1
 238 2 l 1
 207 -38 l 1
 175 -74 l 1
 137 -100 l 1
 95 -116 l 1
 89 -108 l 1
 119 -71 l 1
 143 -35 l 1
 167 2 l 1
 188 43 l 1
 208 85 l 1
 225 132 l 1
 239 183 l 1
 250 237 l 1
 258 295 l 1
 268 369 l 1
 268 367 l 1
 269 360 l 1
 266 366 l 1
 268 370 l 1
 267 373 l 1
 266 378 l 1
 265 372 l 1
 263 371 l 1
 266 377 l 1
 268 375 l 1
 246 369 l 1
 227 364 l 1
 210 359 l 1
 214 359 l 1
 214 356 l 1
 188 345 l 1
 163 356 l 1
 167 363 l 1
 170 353 l 1
 150 310 l 1
 131 268 l 1
 111 230 l 1
 86 195 l 1
 61 160 l 1
 50 166 l 1
 68 205 l 1
 81 245 l 1
 95 284 l 1
 109 325 l 1
 118 369 l 1
 127 415 l 1
 141 461 l 1
 149 511 l 1
 156 563 l 1
 169 626 l 1
 168 624 l 1
 167 624 l 1
 164 633 l 1
 165 642 l 1
 162 648 l 1
 161 655 l 1
 160 659 l 1
 160 663 l 1
 155 664 l 1
338 656 m 1
 346 664 l 1
 358 654 l 1
 368 645 l 1
 378 634 l 1
 389 623 l 1
 398 609 l 1
 407 595 l 1
 414 580 l 1
 422 564 l 1
 429 547 l 1
 436 524 l 1
 431 500 l 1
 407 483 l 1
 381 490 l 1
 365 509 l 1
 363 533 l 1
 363 547 l 1
 360 563 l 1
 357 577 l 1
 357 592 l 1
 354 605 l 1
 350 619 l 1
 347 632 l 1
 344 645 l 1
 338 656 l 1
388 712 m 1
 396 720 l 1
 408 710 l 1
 419 702 l 1
 429 694 l 1
 439 683 l 1
 448 671 l 1
 459 659 l 1
 466 645 l 1
 474 631 l 1
 482 615 l 1
 488 595 l 1
 485 572 l 1
 460 553 l 1
 433 560 l 1
 418 579 l 1
 416 599 l 1
 415 613 l 1
 413 627 l 1
 410 640 l 1
 409 653 l 1
 406 665 l 1
 402 677 l 1
 399 688 l 1
 395 701 l 1
 388 712 l 1
EndSplineSet
Comment: "Kage: aj1-00400+AAoA-Alias: uf0190"
EndChar
StartChar: uF0191
Encoding: 983441 983441 73
Width: 500
VWidth: 0
Flags: MW
LayerCount: 2
Fore
SplineSet
88 512 m 1
 90 523 l 1
 92 536 l 1
 94 551 l 1
 106 551 l 1
 108 536 l 1
 112 525 l 1
 118 517 l 1
 123 509 l 1
 128 501 l 1
 134 497 l 1
 133 501 l 1
 139 505 l 1
 156 502 l 1
 174 500 l 1
 197 502 l 1
 223 503 l 1
 251 506 l 1
 284 509 l 1
 319 511 l 1
 332 513 l 1
 333 514 l 1
 331 517 l 1
 332 520 l 1
 345 530 l 1
 363 536 l 1
 379 533 l 1
 395 526 l 1
 408 514 l 1
 416 499 l 1
 425 484 l 1
 432 463 l 1
 428 436 l 1
 414 427 l 1
 386 104 l 1
 384 105 l 1
 403 85 l 1
 401 57 l 1
 376 38 l 1
 362 44 l 1
 361 42 l 1
 347 42 l 1
 342 44 l 1
 334 45 l 1
 323 52 l 1
 310 53 l 1
 294 53 l 1
 276 50 l 1
 256 51 l 1
 224 45 l 1
 225 53 l 1
 215 48 l 1
 193 42 l 1
 173 38 l 1
 156 34 l 1
 155 31 l 1
 153 25 l 1
 126 13 l 1
 101 22 l 1
 88 36 l 1
 81 50 l 1
 78 63 l 1
 79 74 l 1
 76 89 l 1
 78 101 l 1
 76 114 l 1
 80 126 l 1
 82 140 l 1
 84 155 l 1
 96 155 l 1
 98 141 l 1
 103 129 l 1
 108 120 l 1
 114 111 l 1
 119 103 l 1
 124 96 l 1
 127 94 l 1
 121 98 l 1
 128 99 l 1
 147 97 l 1
 165 97 l 1
 186 97 l 1
 207 97 l 1
 231 100 l 1
 258 102 l 1
 285 102 l 1
 314 103 l 1
 317 106 l 1
 350 474 l 1
 359 467 l 1
 361 454 l 1
 363 454 l 1
 361 452 l 1
 352 453 l 1
 347 455 l 1
 339 458 l 1
 326 462 l 1
 310 461 l 1
 291 460 l 1
 269 458 l 1
 245 456 l 1
 208 451 l 1
 210 455 l 1
 205 451 l 1
 183 446 l 1
 162 441 l 1
 149 441 l 1
 157 442 l 1
 163 426 l 1
 136 413 l 1
 111 422 l 1
 99 436 l 1
 91 448 l 1
 86 461 l 1
 83 475 l 1
 88 487 l 1
 88 499 l 1
 88 512 l 1
360 693 m 1
 368 699 l 1
 381 689 l 1
 391 680 l 1
 403 670 l 1
 412 657 l 1
 421 645 l 1
 429 631 l 1
 437 615 l 1
 445 599 l 1
 452 581 l 1
 458 560 l 1
 456 533 l 1
 430 518 l 1
 403 522 l 1
 388 546 l 1
 386 566 l 1
 385 582 l 1
 382 597 l 1
 381 613 l 1
 377 627 l 1
 376 641 l 1
 372 653 l 1
 370 667 l 1
 366 680 l 1
 360 693 l 1
410 746 m 1
 418 754 l 1
 431 745 l 1
 442 738 l 1
 451 728 l 1
 462 718 l 1
 472 707 l 1
 481 693 l 1
 489 680 l 1
 497 666 l 1
 505 651 l 1
 510 631 l 1
 508 605 l 1
 484 588 l 1
 455 592 l 1
 441 615 l 1
 439 633 l 1
 435 647 l 1
 436 661 l 1
 433 675 l 1
 430 687 l 1
 428 700 l 1
 425 711 l 1
 421 723 l 1
 418 736 l 1
 410 746 l 1
EndSplineSet
Comment: "Kage: aj1-00401+AAoA-Alias: uf0191"
EndChar
StartChar: uF0192
Encoding: 983442 983442 74
Width: 500
VWidth: 0
Flags: MW
LayerCount: 2
Fore
SplineSet
279 661 m 1
 271 683 l 1
 290 669 l 1
 299 672 l 1
 310 669 l 1
 321 663 l 1
 328 655 l 1
 337 648 l 1
 346 637 l 1
 353 623 l 1
 354 624 l 1
 359 622 l 1
 361 608 l 1
 368 590 l 1
 360 560 l 1
 359 561 l 1
 358 438 l 1
 354 437 l 1
 377 440 l 1
 374 438 l 1
 383 448 l 1
 393 455 l 1
 408 459 l 1
 422 456 l 1
 433 452 l 1
 444 443 l 1
 453 434 l 1
 461 425 l 1
 471 406 l 1
 471 381 l 1
 452 360 l 1
 421 360 l 1
 410 372 l 1
 400 373 l 1
 398 377 l 1
 400 375 l 1
 390 377 l 1
 381 383 l 1
 366 384 l 1
 346 393 l 1
 358 403 l 1
 361 269 l 1
 360 261 l 1
 359 242 l 1
 358 209 l 1
 349 152 l 1
 337 101 l 1
 321 53 l 1
 297 14 l 1
 272 -21 l 1
 242 -50 l 1
 208 -73 l 1
 173 -88 l 1
 135 -96 l 1
 130 -86 l 1
 157 -60 l 1
 183 -33 l 1
 207 -7 l 1
 226 22 l 1
 245 54 l 1
 259 88 l 1
 273 126 l 1
 283 170 l 1
 288 217 l 1
 289 270 l 1
 292 381 l 1
 300 383 l 1
 274 381 l 1
 233 376 l 1
 235 381 l 1
 236 379 l 1
 204 367 l 1
 211 372 l 1
 214 354 l 1
 214 296 l 1
 214 231 l 1
 214 156 l 1
 204 133 l 1
 177 121 l 1
 150 134 l 1
 142 157 l 1
 142 232 l 1
 142 296 l 1
 142 354 l 1
 146 364 l 1
 147 363 l 1
 123 359 l 1
 127 360 l 1
 129 360 l 1
 103 345 l 1
 77 349 l 1
 61 363 l 1
 54 376 l 1
 49 387 l 1
 48 400 l 1
 46 413 l 1
 45 426 l 1
 47 439 l 1
 49 452 l 1
 52 464 l 1
 53 481 l 1
 65 481 l 1
 68 464 l 1
 71 454 l 1
 77 445 l 1
 82 436 l 1
 87 430 l 1
 93 425 l 1
 96 425 l 1
 101 429 l 1
 121 425 l 1
 142 423 l 1
 145 423 l 1
 142 452 l 1
 142 492 l 1
 142 526 l 1
 139 554 l 1
 141 575 l 1
 146 591 l 1
 145 594 l 1
 143 603 l 1
 144 611 l 1
 140 617 l 1
 141 623 l 1
 140 627 l 1
 134 631 l 1
 130 650 l 1
 144 639 l 1
 153 642 l 1
 164 640 l 1
 175 633 l 1
 182 625 l 1
 190 618 l 1
 200 608 l 1
 203 606 l 1
 210 603 l 1
 214 581 l 1
 215 580 l 1
 223 561 l 1
 218 535 l 1
 214 533 l 1
 214 526 l 1
 214 492 l 1
 214 453 l 1
 210 426 l 1
 231 427 l 1
 267 429 l 1
 292 434 l 1
 292 623 l 1
 292 621 l 1
 293 615 l 1
 291 625 l 1
 290 633 l 1
 290 640 l 1
 286 647 l 1
 286 652 l 1
 286 657 l 1
 279 661 l 1
351 683 m 1
 361 689 l 1
 373 679 l 1
 384 670 l 1
 395 659 l 1
 404 647 l 1
 413 635 l 1
 422 621 l 1
 430 605 l 1
 437 589 l 1
 445 572 l 1
 451 550 l 1
 447 523 l 1
 423 509 l 1
 395 512 l 1
 381 536 l 1
 379 555 l 1
 377 572 l 1
 376 587 l 1
 372 603 l 1
 369 617 l 1
 368 631 l 1
 364 643 l 1
 363 657 l 1
 358 670 l 1
 351 683 l 1
403 736 m 1
 411 744 l 1
 423 735 l 1
 434 728 l 1
 444 719 l 1
 456 709 l 1
 465 697 l 1
 473 683 l 1
 482 670 l 1
 489 655 l 1
 497 641 l 1
 503 621 l 1
 499 593 l 1
 476 579 l 1
 448 582 l 1
 433 603 l 1
 431 624 l 1
 430 637 l 1
 428 651 l 1
 425 664 l 1
 421 677 l 1
 419 690 l 1
 417 701 l 1
 414 713 l 1
 411 726 l 1
 403 736 l 1
EndSplineSet
Comment: "Kage: aj1-00402+AAoA-Alias: uf0192"
EndChar
StartChar: uF0193
Encoding: 983443 983443 75
Width: 500
VWidth: 0
Flags: MW
LayerCount: 2
Fore
SplineSet
75 426 m 1
 83 437 l 1
 100 427 l 1
 115 419 l 1
 129 409 l 1
 143 399 l 1
 156 387 l 1
 169 374 l 1
 181 357 l 1
 192 340 l 1
 202 323 l 1
 213 299 l 1
 210 274 l 1
 191 256 l 1
 163 259 l 1
 147 275 l 1
 139 296 l 1
 135 314 l 1
 130 330 l 1
 123 345 l 1
 118 360 l 1
 111 373 l 1
 103 388 l 1
 96 400 l 1
 88 413 l 1
 75 426 l 1
97 65 m 1
 109 67 l 1
 112 49 l 1
 117 35 l 1
 123 24 l 1
 130 14 l 1
 135 8 l 1
 141 3 l 1
 137 6 l 1
 156 27 l 1
 191 59 l 1
 225 98 l 1
 259 139 l 1
 290 185 l 1
 319 237 l 1
 348 292 l 1
 377 351 l 1
 406 413 l 1
 433 484 l 1
 443 483 l 1
 427 407 l 1
 407 339 l 1
 384 274 l 1
 360 216 l 1
 332 161 l 1
 305 109 l 1
 273 61 l 1
 239 17 l 1
 203 -23 l 1
 179 -42 l 1
 180 -49 l 1
 162 -67 l 1
 136 -69 l 1
 121 -60 l 1
 110 -49 l 1
 102 -38 l 1
 96 -25 l 1
 96 -11 l 1
 94 3 l 1
 92 17 l 1
 95 32 l 1
 96 46 l 1
 97 65 l 1
134 632 m 1
 140 640 l 1
 157 631 l 1
 172 623 l 1
 185 611 l 1
 200 601 l 1
 212 587 l 1
 225 574 l 1
 237 557 l 1
 248 541 l 1
 259 523 l 1
 270 499 l 1
 267 476 l 1
 249 457 l 1
 221 459 l 1
 205 474 l 1
 197 496 l 1
 192 513 l 1
 186 530 l 1
 179 546 l 1
 174 562 l 1
 167 575 l 1
 159 590 l 1
 152 605 l 1
 144 617 l 1
 134 632 l 1
338 683 m 1
 346 689 l 1
 358 679 l 1
 368 670 l 1
 380 660 l 1
 388 647 l 1
 398 635 l 1
 407 621 l 1
 414 605 l 1
 422 589 l 1
 429 572 l 1
 435 549 l 1
 429 525 l 1
 407 511 l 1
 382 515 l 1
 366 536 l 1
 363 557 l 1
 363 572 l 1
 360 587 l 1
 357 604 l 1
 356 617 l 1
 354 631 l 1
 349 643 l 1
 347 658 l 1
 344 670 l 1
 338 683 l 1
388 736 m 1
 396 744 l 1
 408 735 l 1
 419 728 l 1
 429 719 l 1
 439 708 l 1
 448 697 l 1
 459 683 l 1
 466 670 l 1
 474 656 l 1
 482 641 l 1
 487 621 l 1
 483 596 l 1
 460 581 l 1
 434 585 l 1
 419 605 l 1
 416 623 l 1
 415 637 l 1
 413 651 l 1
 411 665 l 1
 409 677 l 1
 406 690 l 1
 402 701 l 1
 399 713 l 1
 395 726 l 1
 388 736 l 1
EndSplineSet
Comment: "Kage: aj1-00403+AAoA-Alias: uf0193"
EndChar
StartChar: uF0194
Encoding: 983444 983444 76
Width: 500
VWidth: 0
Flags: MW
LayerCount: 2
Fore
SplineSet
317 525 m 1
 328 517 l 1
 326 522 l 1
 326 533 l 1
 317 525 l 1
115 564 m 1
 117 576 l 1
 121 586 l 1
 121 601 l 1
 133 601 l 1
 134 586 l 1
 139 578 l 1
 145 571 l 1
 150 562 l 1
 154 556 l 1
 161 552 l 1
 165 545 l 1
 167 546 l 1
 167 547 l 1
 180 545 l 1
 195 546 l 1
 212 549 l 1
 230 552 l 1
 254 556 l 1
 278 559 l 1
 303 563 l 1
 301 565 l 1
 303 570 l 1
 315 579 l 1
 331 582 l 1
 347 579 l 1
 362 569 l 1
 369 558 l 1
 377 546 l 1
 384 530 l 1
 390 511 l 1
 385 486 l 1
 372 476 l 1
 361 434 l 1
 337 355 l 1
 311 282 l 1
 293 245 l 1
 298 229 l 1
 319 208 l 1
 340 184 l 1
 359 159 l 1
 379 132 l 1
 395 103 l 1
 410 73 l 1
 425 42 l 1
 441 9 l 1
 454 -26 l 1
 452 -51 l 1
 431 -69 l 1
 403 -68 l 1
 386 -50 l 1
 375 -12 l 1
 366 20 l 1
 356 51 l 1
 344 79 l 1
 331 108 l 1
 320 136 l 1
 306 163 l 1
 293 188 l 1
 280 214 l 1
 276 218 l 1
 280 213 l 1
 248 149 l 1
 216 92 l 1
 178 39 l 1
 139 -6 l 1
 97 -47 l 1
 52 -82 l 1
 44 -72 l 1
 78 -24 l 1
 109 23 l 1
 141 74 l 1
 168 131 l 1
 198 187 l 1
 224 249 l 1
 248 315 l 1
 272 384 l 1
 295 456 l 1
 324 520 l 1
 324 509 l 1
 318 510 l 1
 308 513 l 1
 295 511 l 1
 279 509 l 1
 263 505 l 1
 243 498 l 1
 213 493 l 1
 212 498 l 1
 207 495 l 1
 193 488 l 1
 187 485 l 1
 185 482 l 1
 160 472 l 1
 135 481 l 1
 127 494 l 1
 119 505 l 1
 117 517 l 1
 115 529 l 1
 113 541 l 1
 115 553 l 1
 115 564 l 1
355 683 m 1
 364 689 l 1
 375 679 l 1
 386 670 l 1
 397 659 l 1
 406 647 l 1
 415 635 l 1
 425 621 l 1
 432 604 l 1
 439 589 l 1
 447 572 l 1
 454 549 l 1
 447 525 l 1
 426 510 l 1
 399 515 l 1
 383 536 l 1
 381 556 l 1
 380 572 l 1
 378 587 l 1
 374 603 l 1
 372 617 l 1
 371 631 l 1
 366 643 l 1
 365 658 l 1
 361 670 l 1
 355 683 l 1
406 736 m 1
 414 744 l 1
 425 735 l 1
 436 728 l 1
 447 719 l 1
 457 708 l 1
 467 697 l 1
 476 683 l 1
 484 670 l 1
 490 655 l 1
 499 642 l 1
 506 621 l 1
 500 595 l 1
 478 580 l 1
 452 584 l 1
 435 603 l 1
 432 624 l 1
 433 637 l 1
 430 651 l 1
 427 665 l 1
 425 677 l 1
 423 690 l 1
 418 701 l 1
 417 714 l 1
 413 726 l 1
 406 736 l 1
EndSplineSet
Comment: "Kage: aj1-00404+AAoA-Alias: uf0194"
EndChar
StartChar: uF0195
Encoding: 983445 983445 77
Width: 500
VWidth: 0
Flags: MW
LayerCount: 2
Fore
SplineSet
388 716 m 1
 396 724 l 1
 408 715 l 1
 419 708 l 1
 429 699 l 1
 439 688 l 1
 448 677 l 1
 459 663 l 1
 466 650 l 1
 474 636 l 1
 482 621 l 1
 488 601 l 1
 483 575 l 1
 461 560 l 1
 434 563 l 1
 418 583 l 1
 416 604 l 1
 415 617 l 1
 413 631 l 1
 411 645 l 1
 409 657 l 1
 406 670 l 1
 402 681 l 1
 399 693 l 1
 395 706 l 1
 388 716 l 1
338 663 m 1
 346 669 l 1
 358 659 l 1
 368 650 l 1
 380 640 l 1
 388 627 l 1
 398 615 l 1
 407 601 l 1
 414 585 l 1
 422 569 l 1
 429 552 l 1
 436 529 l 1
 430 505 l 1
 408 490 l 1
 382 493 l 1
 365 514 l 1
 363 537 l 1
 363 552 l 1
 360 567 l 1
 357 584 l 1
 356 597 l 1
 354 611 l 1
 349 623 l 1
 347 638 l 1
 344 650 l 1
 338 663 l 1
276 141 m 1
 289 176 l 1
 301 205 l 1
 314 235 l 1
 325 262 l 1
 335 288 l 1
 346 314 l 1
 356 338 l 1
 363 361 l 1
 369 383 l 1
 371 379 l 1
 378 373 l 1
 371 375 l 1
 361 375 l 1
 345 372 l 1
 330 365 l 1
 310 357 l 1
 288 348 l 1
 257 332 l 1
 256 334 l 1
 237 316 l 1
 227 310 l 1
 228 75 l 1
 228 68 l 1
 230 61 l 1
 231 53 l 1
 232 47 l 1
 234 42 l 1
 237 35 l 1
 240 28 l 1
 243 23 l 1
 248 19 l 1
 248 17 l 1
 251 16 l 1
 261 11 l 1
 271 8 l 1
 284 6 l 1
 301 4 l 1
 317 4 l 1
 339 6 l 1
 360 9 l 1
 388 14 l 1
 413 8 l 1
 428 -14 l 1
 424 -40 l 1
 403 -57 l 1
 373 -62 l 1
 345 -66 l 1
 320 -68 l 1
 297 -68 l 1
 277 -66 l 1
 255 -63 l 1
 234 -57 l 1
 216 -47 l 1
 209 -43 l 1
 201 -39 l 1
 187 -26 l 1
 185 -21 l 1
 179 -16 l 1
 178 -7 l 1
 177 -7 l 1
 171 5 l 1
 167 17 l 1
 163 28 l 1
 160 39 l 1
 158 50 l 1
 156 63 l 1
 156 75 l 1
 164 280 l 1
 153 270 l 1
 133 260 l 1
 134 261 l 1
 136 258 l 1
 118 235 l 1
 90 233 l 1
 75 242 l 1
 63 250 l 1
 55 263 l 1
 46 275 l 1
 44 290 l 1
 48 304 l 1
 47 318 l 1
 49 332 l 1
 50 346 l 1
 51 365 l 1
 63 367 l 1
 66 349 l 1
 71 335 l 1
 77 325 l 1
 83 315 l 1
 88 309 l 1
 79 307 l 1
 75 301 l 1
 88 314 l 1
 107 317 l 1
 127 324 l 1
 151 337 l 1
 158 339 l 1
 156 593 l 1
 158 594 l 1
 156 601 l 1
 155 608 l 1
 153 614 l 1
 150 619 l 1
 147 624 l 1
 147 629 l 1
 139 629 l 1
 132 648 l 1
 149 641 l 1
 156 643 l 1
 166 644 l 1
 176 641 l 1
 185 637 l 1
 196 631 l 1
 205 623 l 1
 217 615 l 1
 220 609 l 1
 224 606 l 1
 228 597 l 1
 234 587 l 1
 235 563 l 1
 228 554 l 1
 221 361 l 1
 214 359 l 1
 249 375 l 1
 288 394 l 1
 332 415 l 1
 360 435 l 1
 370 443 l 1
 382 448 l 1
 397 449 l 1
 414 445 l 1
 428 436 l 1
 437 423 l 1
 445 411 l 1
 452 393 l 1
 449 367 l 1
 434 357 l 1
 435 357 l 1
 422 334 l 1
 410 311 l 1
 397 289 l 1
 381 267 l 1
 366 241 l 1
 349 215 l 1
 331 190 l 1
 309 163 l 1
 285 133 l 1
 276 141 l 1
EndSplineSet
Comment: "Kage: aj1-00405+AAoA-Alias: uf0195"
EndChar
StartChar: uF0196
Encoding: 983446 983446 78
Width: 500
VWidth: 0
Flags: MW
LayerCount: 2
Fore
SplineSet
92 587 m 1
 101 595 l 1
 120 574 l 1
 135 556 l 1
 148 535 l 1
 161 515 l 1
 173 491 l 1
 183 468 l 1
 192 444 l 1
 200 419 l 1
 209 394 l 1
 215 364 l 1
 208 341 l 1
 187 325 l 1
 160 332 l 1
 147 351 l 1
 142 379 l 1
 137 403 l 1
 135 428 l 1
 130 451 l 1
 124 475 l 1
 119 497 l 1
 112 519 l 1
 105 541 l 1
 99 565 l 1
 92 587 l 1
345 594 m 1
 337 614 l 1
 355 607 l 1
 362 608 l 1
 373 605 l 1
 381 599 l 1
 391 591 l 1
 399 582 l 1
 408 569 l 1
 415 555 l 1
 416 549 l 1
 422 547 l 1
 423 532 l 1
 427 520 l 1
 422 495 l 1
 415 491 l 1
 408 441 l 1
 388 352 l 1
 365 271 l 1
 337 199 l 1
 308 131 l 1
 274 73 l 1
 238 20 l 1
 195 -22 l 1
 150 -55 l 1
 101 -83 l 1
 93 -72 l 1
 133 -27 l 1
 167 20 l 1
 201 69 l 1
 231 123 l 1
 259 180 l 1
 285 243 l 1
 305 311 l 1
 325 385 l 1
 341 463 l 1
 355 540 l 1
 356 539 l 1
 354 551 l 1
 352 562 l 1
 352 572 l 1
 352 578 l 1
 350 584 l 1
 348 589 l 1
 349 593 l 1
 345 594 l 1
368 736 m 1
 376 744 l 1
 388 734 l 1
 398 725 l 1
 408 714 l 1
 419 703 l 1
 428 689 l 1
 437 675 l 1
 444 660 l 1
 452 644 l 1
 459 627 l 1
 465 604 l 1
 460 581 l 1
 437 565 l 1
 412 572 l 1
 396 590 l 1
 393 613 l 1
 393 627 l 1
 390 643 l 1
 387 657 l 1
 387 672 l 1
 384 685 l 1
 380 699 l 1
 377 712 l 1
 374 725 l 1
 368 736 l 1
418 792 m 1
 426 800 l 1
 438 790 l 1
 449 782 l 1
 459 774 l 1
 469 763 l 1
 478 751 l 1
 489 739 l 1
 496 725 l 1
 504 711 l 1
 512 695 l 1
 517 675 l 1
 513 652 l 1
 490 635 l 1
 463 642 l 1
 449 660 l 1
 446 678 l 1
 445 693 l 1
 443 707 l 1
 440 720 l 1
 439 733 l 1
 436 745 l 1
 432 757 l 1
 429 768 l 1
 425 781 l 1
 418 792 l 1
EndSplineSet
Comment: "Kage: aj1-00406+AAoA-Alias: uf0196"
EndChar
StartChar: uF0198
Encoding: 983448 983448 80
Width: 500
VWidth: 0
Flags: MW
LayerCount: 2
Fore
SplineSet
316 666 m 1
 324 676 l 1
 332 669 l 1
 342 665 l 1
 351 659 l 1
 359 651 l 1
 365 640 l 1
 371 627 l 1
 375 614 l 1
 379 601 l 1
 378 584 l 1
 375 563 l 1
 358 543 l 1
 330 540 l 1
 331 541 l 1
 318 528 l 1
 291 512 l 1
 278 510 l 1
 271 516 l 1
 278 511 l 1
 284 507 l 1
 293 502 l 1
 299 495 l 1
 308 474 l 1
 306 477 l 1
 307 487 l 1
 309 479 l 1
 312 473 l 1
 309 456 l 1
 311 378 l 1
 311 377 l 1
 310 372 l 1
 305 337 l 1
 309 337 l 1
 353 342 l 1
 378 345 l 1
 376 341 l 1
 383 352 l 1
 394 360 l 1
 408 363 l 1
 423 360 l 1
 433 354 l 1
 442 348 l 1
 453 340 l 1
 459 327 l 1
 470 313 l 1
 470 286 l 1
 451 265 l 1
 421 265 l 1
 404 285 l 1
 407 282 l 1
 402 279 l 1
 399 282 l 1
 399 282 l 1
 392 283 l 1
 381 287 l 1
 366 289 l 1
 346 289 l 1
 326 289 l 1
 300 287 l 1
 305 286 l 1
 307 281 l 1
 301 200 l 1
 291 128 l 1
 276 66 l 1
 255 13 l 1
 231 -36 l 1
 199 -74 l 1
 163 -107 l 1
 119 -130 l 1
 106 -136 l 1
 112 -123 l 1
 137 -77 l 1
 161 -33 l 1
 181 9 l 1
 201 53 l 1
 215 102 l 1
 227 159 l 1
 235 221 l 1
 243 282 l 1
 233 279 l 1
 232 284 l 1
 235 287 l 1
 203 279 l 1
 173 274 l 1
 148 269 l 1
 124 264 l 1
 125 264 l 1
 126 264 l 1
 103 249 l 1
 77 255 l 1
 63 268 l 1
 55 279 l 1
 48 291 l 1
 48 307 l 1
 46 317 l 1
 45 331 l 1
 46 344 l 1
 49 356 l 1
 52 370 l 1
 53 387 l 1
 65 385 l 1
 68 370 l 1
 71 359 l 1
 77 350 l 1
 82 342 l 1
 87 334 l 1
 93 330 l 1
 96 329 l 1
 93 331 l 1
 102 331 l 1
 120 329 l 1
 142 328 l 1
 168 328 l 1
 198 330 l 1
 231 329 l 1
 243 334 l 1
 241 374 l 1
 243 486 l 1
 244 486 l 1
 243 476 l 1
 242 481 l 1
 241 488 l 1
 243 491 l 1
 242 495 l 1
 246 490 l 1
 252 493 l 1
 234 484 l 1
 205 475 l 1
 177 466 l 1
 145 460 l 1
 114 459 l 1
 78 458 l 1
 79 471 l 1
 110 480 l 1
 137 493 l 1
 162 504 l 1
 188 517 l 1
 213 529 l 1
 233 549 l 1
 258 562 l 1
 279 580 l 1
 298 600 l 1
 316 616 l 1
 317 617 l 1
 320 625 l 1
 322 632 l 1
 324 639 l 1
 323 645 l 1
 324 653 l 1
 323 660 l 1
 316 666 l 1
361 677 m 1
 371 685 l 1
 383 674 l 1
 394 665 l 1
 405 654 l 1
 414 643 l 1
 423 629 l 1
 432 615 l 1
 440 600 l 1
 447 584 l 1
 455 567 l 1
 461 544 l 1
 456 520 l 1
 432 503 l 1
 405 510 l 1
 391 531 l 1
 389 551 l 1
 387 567 l 1
 386 583 l 1
 382 597 l 1
 381 612 l 1
 377 625 l 1
 374 639 l 1
 373 652 l 1
 368 665 l 1
 361 677 l 1
413 732 m 1
 421 740 l 1
 433 730 l 1
 444 722 l 1
 454 714 l 1
 466 703 l 1
 475 691 l 1
 483 679 l 1
 492 665 l 1
 499 651 l 1
 507 635 l 1
 513 615 l 1
 509 591 l 1
 486 573 l 1
 458 580 l 1
 443 599 l 1
 441 619 l 1
 440 633 l 1
 438 647 l 1
 434 660 l 1
 432 673 l 1
 429 685 l 1
 427 697 l 1
 424 708 l 1
 421 721 l 1
 413 732 l 1
EndSplineSet
Comment: "Kage: aj1-00408+AAoA-Alias: uf0198"
EndChar
StartChar: uF0199
Encoding: 983449 983449 81
Width: 500
VWidth: 0
Flags: MW
LayerCount: 2
Fore
SplineSet
63 557 m 1
 74 565 l 1
 90 549 l 1
 103 534 l 1
 115 518 l 1
 126 500 l 1
 136 480 l 1
 147 460 l 1
 154 438 l 1
 163 416 l 1
 171 391 l 1
 175 362 l 1
 168 339 l 1
 147 325 l 1
 120 332 l 1
 106 352 l 1
 103 381 l 1
 100 401 l 1
 98 423 l 1
 94 445 l 1
 91 465 l 1
 87 484 l 1
 82 503 l 1
 76 520 l 1
 72 539 l 1
 63 557 l 1
182 623 m 1
 191 629 l 1
 207 614 l 1
 220 600 l 1
 233 584 l 1
 244 566 l 1
 253 547 l 1
 263 527 l 1
 272 506 l 1
 279 484 l 1
 287 461 l 1
 293 433 l 1
 286 409 l 1
 265 395 l 1
 237 402 l 1
 223 422 l 1
 221 449 l 1
 219 469 l 1
 215 491 l 1
 212 511 l 1
 208 531 l 1
 205 550 l 1
 200 568 l 1
 194 585 l 1
 190 605 l 1
 182 623 l 1
365 589 m 1
 357 609 l 1
 375 602 l 1
 382 603 l 1
 393 601 l 1
 402 595 l 1
 411 587 l 1
 421 577 l 1
 428 563 l 1
 435 551 l 1
 442 533 l 1
 441 535 l 1
 443 534 l 1
 444 525 l 1
 447 515 l 1
 443 491 l 1
 436 486 l 1
 425 433 l 1
 403 350 l 1
 377 272 l 1
 349 201 l 1
 319 135 l 1
 286 77 l 1
 249 24 l 1
 210 -20 l 1
 166 -57 l 1
 124 -82 l 1
 121 -85 l 1
 119 -86 l 1
 108 -92 l 1
 112 -77 l 1
 150 -28 l 1
 183 23 l 1
 216 75 l 1
 246 129 l 1
 276 187 l 1
 301 249 l 1
 324 314 l 1
 343 384 l 1
 358 449 l 1
 375 533 l 1
 376 534 l 1
 374 545 l 1
 372 556 l 1
 371 566 l 1
 371 573 l 1
 370 579 l 1
 368 584 l 1
 369 588 l 1
 365 589 l 1
368 736 m 1
 376 744 l 1
 388 734 l 1
 398 725 l 1
 408 714 l 1
 419 703 l 1
 428 689 l 1
 437 675 l 1
 444 660 l 1
 452 644 l 1
 459 627 l 1
 465 604 l 1
 459 581 l 1
 437 565 l 1
 412 572 l 1
 397 590 l 1
 393 613 l 1
 393 627 l 1
 390 643 l 1
 387 657 l 1
 387 672 l 1
 384 685 l 1
 380 699 l 1
 377 712 l 1
 374 725 l 1
 368 736 l 1
418 792 m 1
 426 800 l 1
 438 790 l 1
 449 782 l 1
 459 774 l 1
 469 763 l 1
 478 751 l 1
 489 739 l 1
 496 725 l 1
 504 711 l 1
 512 695 l 1
 517 675 l 1
 513 652 l 1
 490 635 l 1
 463 642 l 1
 450 660 l 1
 446 678 l 1
 445 693 l 1
 443 707 l 1
 440 720 l 1
 439 733 l 1
 436 745 l 1
 432 757 l 1
 429 768 l 1
 425 781 l 1
 418 792 l 1
EndSplineSet
Comment: "Kage: aj1-00409+AAoA-Alias: uf0199"
EndChar
StartChar: uF019A
Encoding: 983450 983450 82
Width: 500
VWidth: 0
Flags: MW
LayerCount: 2
Fore
SplineSet
47 419 m 1
 49 432 l 1
 52 444 l 1
 53 461 l 1
 65 461 l 1
 68 444 l 1
 71 434 l 1
 77 425 l 1
 82 416 l 1
 87 410 l 1
 93 405 l 1
 96 404 l 1
 101 407 l 1
 120 405 l 1
 142 403 l 1
 167 405 l 1
 197 405 l 1
 231 407 l 1
 267 409 l 1
 309 413 l 1
 353 417 l 1
 379 422 l 1
 377 420 l 1
 383 428 l 1
 394 436 l 1
 408 438 l 1
 421 436 l 1
 433 432 l 1
 444 423 l 1
 453 414 l 1
 461 405 l 1
 471 386 l 1
 471 363 l 1
 452 340 l 1
 421 340 l 1
 410 352 l 1
 400 353 l 1
 398 357 l 1
 400 355 l 1
 390 357 l 1
 381 363 l 1
 366 364 l 1
 346 364 l 1
 325 364 l 1
 300 363 l 1
 274 361 l 1
 266 365 l 1
 260 371 l 1
 266 368 l 1
 274 362 l 1
 282 357 l 1
 288 352 l 1
 291 350 l 1
 300 346 l 1
 302 328 l 1
 308 320 l 1
 306 292 l 1
 299 287 l 1
 298 269 l 1
 290 206 l 1
 279 149 l 1
 265 95 l 1
 246 48 l 1
 226 3 l 1
 201 -37 l 1
 172 -71 l 1
 140 -98 l 1
 104 -122 l 1
 96 -112 l 1
 121 -74 l 1
 141 -35 l 1
 158 3 l 1
 176 45 l 1
 192 86 l 1
 204 132 l 1
 215 179 l 1
 223 231 l 1
 228 281 l 1
 236 337 l 1
 234 342 l 1
 237 347 l 1
 237 349 l 1
 235 355 l 1
 237 357 l 1
 226 357 l 1
 232 360 l 1
 236 359 l 1
 203 354 l 1
 175 348 l 1
 147 343 l 1
 123 339 l 1
 127 340 l 1
 129 340 l 1
 103 325 l 1
 77 329 l 1
 62 343 l 1
 54 355 l 1
 49 367 l 1
 48 380 l 1
 46 393 l 1
 45 406 l 1
 47 419 l 1
111 620 m 1
 113 630 l 1
 116 642 l 1
 117 655 l 1
 129 655 l 1
 129 642 l 1
 135 633 l 1
 139 625 l 1
 144 618 l 1
 150 611 l 1
 155 607 l 1
 159 604 l 1
 160 606 l 1
 163 606 l 1
 175 605 l 1
 190 606 l 1
 207 607 l 1
 227 609 l 1
 248 613 l 1
 271 616 l 1
 297 619 l 1
 304 624 l 1
 302 624 l 1
 310 636 l 1
 323 644 l 1
 339 648 l 1
 355 646 l 1
 367 640 l 1
 379 632 l 1
 391 620 l 1
 400 603 l 1
 401 578 l 1
 382 556 l 1
 354 553 l 1
 354 569 l 1
 358 571 l 1
 337 578 l 1
 339 578 l 1
 331 567 l 1
 324 568 l 1
 312 572 l 1
 299 571 l 1
 283 569 l 1
 265 565 l 1
 244 563 l 1
 210 555 l 1
 214 561 l 1
 219 559 l 1
 201 552 l 1
 186 548 l 1
 183 543 l 1
 182 541 l 1
 157 530 l 1
 133 536 l 1
 120 549 l 1
 114 561 l 1
 109 573 l 1
 110 585 l 1
 111 597 l 1
 110 607 l 1
 111 620 l 1
368 723 m 1
 376 729 l 1
 388 719 l 1
 398 710 l 1
 410 700 l 1
 418 687 l 1
 428 675 l 1
 437 661 l 1
 444 645 l 1
 452 629 l 1
 459 612 l 1
 466 590 l 1
 462 563 l 1
 438 549 l 1
 411 552 l 1
 395 574 l 1
 393 597 l 1
 393 612 l 1
 390 627 l 1
 387 644 l 1
 386 657 l 1
 384 671 l 1
 379 683 l 1
 377 698 l 1
 374 710 l 1
 368 723 l 1
418 776 m 1
 426 784 l 1
 438 775 l 1
 449 768 l 1
 459 759 l 1
 469 748 l 1
 478 737 l 1
 489 723 l 1
 496 710 l 1
 504 696 l 1
 512 681 l 1
 518 661 l 1
 515 635 l 1
 491 619 l 1
 463 622 l 1
 448 643 l 1
 446 664 l 1
 445 677 l 1
 443 691 l 1
 441 705 l 1
 439 717 l 1
 436 730 l 1
 432 741 l 1
 429 753 l 1
 425 766 l 1
 418 776 l 1
234 344 m 1
 249 342 238 339 234 344 c 1
245 339 m 1
 245 352 l 1
 245 339 l 1
EndSplineSet
Comment: "Kage: aj1-00410+AAoA-Alias: uf019a"
EndChar
StartChar: uF019B
Encoding: 983451 983451 83
Width: 500
VWidth: 0
Flags: MW
LayerCount: 2
Fore
SplineSet
168 481 m 1
 169 540 l 1
 169 592 l 1
 173 652 l 1
 173 650 l 1
 172 647 l 1
 173 653 l 1
 170 659 l 1
 169 665 l 1
 167 669 l 1
 168 673 l 1
 162 674 l 1
 153 695 l 1
 171 686 l 1
 179 689 l 1
 189 688 l 1
 197 684 l 1
 207 679 l 1
 216 672 l 1
 226 663 l 1
 233 654 l 1
 232 654 l 1
 237 651 l 1
 240 644 l 1
 241 643 l 1
 249 624 l 1
 247 599 l 1
 240 593 l 1
 241 592 l 1
 241 540 l 1
 240 481 l 1
 241 417 l 1
 239 367 l 1
 240 368 l 1
 255 354 l 1
 274 347 l 1
 291 336 l 1
 311 322 l 1
 329 307 l 1
 346 290 l 1
 362 270 l 1
 376 249 l 1
 393 223 l 1
 395 198 l 1
 378 177 l 1
 349 174 l 1
 329 191 l 1
 319 215 l 1
 308 234 l 1
 297 254 l 1
 285 272 l 1
 276 289 l 1
 263 303 l 1
 253 319 l 1
 240 331 l 1
 234 335 l 1
 241 273 l 1
 241 193 l 1
 241 108 l 1
 241 16 l 1
 241 -84 l 1
 231 -106 l 1
 205 -116 l 1
 179 -106 l 1
 169 -84 l 1
 169 16 l 1
 169 108 l 1
 169 193 l 1
 169 273 l 1
 169 348 l 1
 169 417 l 1
 168 481 l 1
298 633 m 1
 306 639 l 1
 318 629 l 1
 328 620 l 1
 340 610 l 1
 348 597 l 1
 358 585 l 1
 367 571 l 1
 374 555 l 1
 382 539 l 1
 389 522 l 1
 396 499 l 1
 390 475 l 1
 368 460 l 1
 342 464 l 1
 325 484 l 1
 323 507 l 1
 323 522 l 1
 320 537 l 1
 317 554 l 1
 316 567 l 1
 314 581 l 1
 309 593 l 1
 307 608 l 1
 304 620 l 1
 298 633 l 1
348 686 m 1
 356 694 l 1
 368 685 l 1
 379 678 l 1
 389 669 l 1
 399 658 l 1
 408 647 l 1
 419 633 l 1
 426 620 l 1
 434 606 l 1
 442 591 l 1
 448 571 l 1
 443 545 l 1
 421 530 l 1
 394 534 l 1
 378 553 l 1
 376 574 l 1
 375 587 l 1
 373 601 l 1
 371 615 l 1
 369 627 l 1
 366 640 l 1
 362 651 l 1
 359 663 l 1
 355 676 l 1
 348 686 l 1
EndSplineSet
Comment: "Kage: aj1-00411+AAoA-Alias: uf019b"
EndChar
StartChar: uF019C
Encoding: 983452 983452 84
Width: 500
VWidth: 0
Flags: MW
LayerCount: 2
Fore
SplineSet
152 511 m 1
 156 522 l 1
 167 517 l 1
 177 515 l 1
 186 511 l 1
 197 504 l 1
 204 494 l 1
 214 483 l 1
 220 471 l 1
 226 457 l 1
 227 451 l 1
 234 447 l 1
 234 431 l 1
 236 421 l 1
 228 400 l 1
 224 397 l 1
 222 390 l 1
 208 345 l 1
 192 301 l 1
 176 258 l 1
 157 217 l 1
 137 179 l 1
 116 142 l 1
 94 106 l 1
 68 73 l 1
 40 40 l 1
 31 46 l 1
 50 85 l 1
 64 121 l 1
 80 160 l 1
 96 198 l 1
 109 237 l 1
 123 278 l 1
 135 320 l 1
 148 363 l 1
 158 407 l 1
 166 441 l 1
 167 445 l 1
 166 457 l 1
 165 468 l 1
 166 475 l 1
 164 484 l 1
 163 492 l 1
 162 499 l 1
 159 505 l 1
 152 511 l 1
285 493 m 1
 294 501 l 1
 318 478 l 1
 339 452 l 1
 360 424 l 1
 378 392 l 1
 397 357 l 1
 412 318 l 1
 427 276 l 1
 441 232 l 1
 455 184 l 1
 467 129 l 1
 462 106 l 1
 439 92 l 1
 414 96 l 1
 400 116 l 1
 390 169 l 1
 381 215 l 1
 370 259 l 1
 359 300 l 1
 348 338 l 1
 337 374 l 1
 324 406 l 1
 311 437 l 1
 299 463 l 1
 285 493 l 1
345 643 m 1
 354 649 l 1
 365 639 l 1
 376 630 l 1
 387 619 l 1
 396 607 l 1
 405 595 l 1
 415 581 l 1
 422 564 l 1
 429 549 l 1
 435 532 l 1
 443 509 l 1
 436 486 l 1
 415 472 l 1
 389 476 l 1
 375 496 l 1
 371 515 l 1
 370 532 l 1
 368 547 l 1
 364 563 l 1
 362 577 l 1
 361 591 l 1
 356 603 l 1
 355 618 l 1
 351 630 l 1
 345 643 l 1
396 696 m 1
 404 704 l 1
 415 695 l 1
 426 688 l 1
 437 679 l 1
 447 668 l 1
 457 657 l 1
 466 643 l 1
 474 630 l 1
 480 615 l 1
 487 601 l 1
 495 581 l 1
 489 556 l 1
 467 542 l 1
 443 546 l 1
 427 565 l 1
 423 585 l 1
 423 597 l 1
 420 611 l 1
 417 625 l 1
 415 637 l 1
 413 650 l 1
 408 661 l 1
 407 674 l 1
 403 686 l 1
 396 696 l 1
EndSplineSet
Comment: "Kage: aj1-00412+AAoA-Alias: uf019c"
EndChar
StartChar: uF019D
Encoding: 983453 983453 85
Width: 500
VWidth: 0
Flags: MW
LayerCount: 2
Fore
SplineSet
447 578 m 1
 447 591 l 1
 444 605 l 1
 440 620 l 1
 438 629 l 1
 433 638 l 1
 428 644 l 1
 423 650 l 1
 421 652 l 1
 421 652 l 1
 421 652 l 1
 419 650 l 1
 413 644 l 1
 409 639 l 1
 405 629 l 1
 401 620 l 1
 398 605 l 1
 395 591 l 1
 395 578 l 1
 395 562 l 1
 398 550 l 1
 401 536 l 1
 406 525 l 1
 409 517 l 1
 414 511 l 1
 419 507 l 1
 421 505 l 1
 423 507 l 1
 428 511 l 1
 433 517 l 1
 436 525 l 1
 441 536 l 1
 444 550 l 1
 447 562 l 1
 447 578 l 1
488 578 m 1
 488 564 l 1
 486 549 l 1
 484 535 l 1
 479 523 l 1
 475 512 l 1
 467 500 l 1
 458 492 l 1
 449 483 l 1
 436 477 l 1
 421 476 l 1
 406 477 l 1
 393 483 l 1
 384 492 l 1
 375 500 l 1
 367 512 l 1
 363 523 l 1
 358 535 l 1
 356 549 l 1
 354 564 l 1
 354 578 l 1
 354 593 l 1
 356 606 l 1
 358 621 l 1
 363 632 l 1
 367 644 l 1
 375 656 l 1
 384 664 l 1
 393 673 l 1
 407 678 l 1
 421 680 l 1
 435 678 l 1
 449 673 l 1
 458 664 l 1
 467 656 l 1
 475 644 l 1
 479 632 l 1
 484 621 l 1
 486 606 l 1
 488 593 l 1
 488 578 l 1
152 511 m 1
 156 522 l 1
 167 517 l 1
 177 515 l 1
 186 511 l 1
 197 504 l 1
 204 494 l 1
 214 483 l 1
 219 470 l 1
 224 457 l 1
 225 449 l 1
 232 447 l 1
 231 431 l 1
 233 421 l 1
 225 401 l 1
 222 399 l 1
 220 391 l 1
 206 345 l 1
 191 301 l 1
 175 259 l 1
 157 217 l 1
 137 179 l 1
 116 142 l 1
 94 106 l 1
 68 73 l 1
 40 40 l 1
 31 46 l 1
 50 85 l 1
 64 121 l 1
 80 160 l 1
 96 198 l 1
 109 237 l 1
 124 278 l 1
 137 320 l 1
 150 362 l 1
 161 407 l 1
 168 440 l 1
 168 445 l 1
 166 457 l 1
 165 468 l 1
 166 475 l 1
 164 484 l 1
 163 492 l 1
 162 499 l 1
 159 505 l 1
 152 511 l 1
285 493 m 1
 294 501 l 1
 318 478 l 1
 339 452 l 1
 360 424 l 1
 378 392 l 1
 397 356 l 1
 411 318 l 1
 426 276 l 1
 439 231 l 1
 452 183 l 1
 464 129 l 1
 460 107 l 1
 439 94 l 1
 415 98 l 1
 402 117 l 1
 392 169 l 1
 383 215 l 1
 372 260 l 1
 360 300 l 1
 348 338 l 1
 337 374 l 1
 324 406 l 1
 311 437 l 1
 299 463 l 1
 285 493 l 1
EndSplineSet
Comment: "Kage: aj1-00413+AAoA-Alias: uf019d"
EndChar
StartChar: uF019E
Encoding: 983454 983454 86
Width: 500
VWidth: 0
Flags: MW
LayerCount: 2
Fore
SplineSet
329 502 m 1
 335 511 l 1
 345 506 l 1
 356 504 l 1
 366 500 l 1
 377 492 l 1
 384 483 l 1
 391 473 l 1
 402 462 l 1
 407 449 l 1
 412 435 l 1
 415 415 l 1
 406 391 l 1
 380 380 l 1
 373 383 l 1
 373 382 l 1
 350 366 l 1
 329 350 l 1
 305 335 l 1
 281 323 l 1
 256 310 l 1
 231 299 l 1
 205 289 l 1
 178 281 l 1
 182 276 l 1
 184 85 l 1
 184 76 l 1
 184 70 l 1
 186 64 l 1
 187 57 l 1
 189 51 l 1
 192 45 l 1
 195 38 l 1
 198 33 l 1
 202 28 l 1
 201 29 l 1
 206 27 l 1
 217 21 l 1
 231 18 l 1
 247 16 l 1
 269 14 l 1
 294 14 l 1
 320 16 l 1
 348 20 l 1
 385 24 l 1
 408 17 l 1
 423 -5 l 1
 417 -32 l 1
 395 -46 l 1
 359 -52 l 1
 325 -56 l 1
 294 -58 l 1
 268 -58 l 1
 242 -56 l 1
 217 -53 l 1
 195 -47 l 1
 174 -39 l 1
 169 -36 l 1
 156 -29 l 1
 148 -21 l 1
 136 -3 l 1
 137 -3 l 1
 136 -7 l 1
 133 1 l 1
 131 5 l 1
 126 15 l 1
 122 27 l 1
 119 37 l 1
 114 48 l 1
 113 62 l 1
 112 73 l 1
 112 85 l 1
 118 603 l 1
 121 601 l 1
 121 594 l 1
 118 600 l 1
 117 606 l 1
 114 612 l 1
 113 617 l 1
 104 621 l 1
 105 631 l 1
 116 629 l 1
 124 632 l 1
 135 631 l 1
 146 626 l 1
 156 622 l 1
 168 613 l 1
 175 604 l 1
 174 604 l 1
 180 601 l 1
 183 593 l 1
 183 593 l 1
 189 579 l 1
 196 562 l 1
 190 535 l 1
 183 531 l 1
 181 295 l 1
 179 307 l 1
 190 319 l 1
 211 334 l 1
 233 348 l 1
 253 365 l 1
 273 381 l 1
 291 399 l 1
 311 415 l 1
 327 433 l 1
 345 447 l 1
 346 446 l 1
 345 457 l 1
 346 464 l 1
 344 473 l 1
 342 480 l 1
 340 487 l 1
 337 494 l 1
 329 502 l 1
341 683 m 1
 351 689 l 1
 363 679 l 1
 374 670 l 1
 385 659 l 1
 394 647 l 1
 403 635 l 1
 412 621 l 1
 420 605 l 1
 427 589 l 1
 435 572 l 1
 441 549 l 1
 435 525 l 1
 413 510 l 1
 385 515 l 1
 371 536 l 1
 369 555 l 1
 367 572 l 1
 366 587 l 1
 362 603 l 1
 359 617 l 1
 358 631 l 1
 354 643 l 1
 353 657 l 1
 348 670 l 1
 341 683 l 1
393 736 m 1
 401 744 l 1
 413 735 l 1
 424 728 l 1
 434 719 l 1
 446 709 l 1
 455 697 l 1
 463 683 l 1
 472 670 l 1
 479 655 l 1
 487 641 l 1
 493 620 l 1
 487 595 l 1
 466 580 l 1
 439 584 l 1
 423 603 l 1
 421 624 l 1
 420 637 l 1
 418 651 l 1
 415 664 l 1
 411 677 l 1
 409 690 l 1
 407 701 l 1
 404 713 l 1
 401 726 l 1
 393 736 l 1
EndSplineSet
Comment: "Kage: aj1-00414+AAoA-Alias: uf019e"
EndChar
StartChar: uF019F
Encoding: 983455 983455 87
Width: 500
VWidth: 0
Flags: MW
LayerCount: 2
Fore
SplineSet
445 618 m 1
 446 631 l 1
 442 645 l 1
 437 660 l 1
 434 669 l 1
 428 679 l 1
 425 684 l 1
 421 690 l 1
 419 691 l 1
 417 690 l 1
 412 684 l 1
 408 678 l 1
 402 669 l 1
 398 660 l 1
 394 647 l 1
 393 632 l 1
 393 618 l 1
 393 602 l 1
 394 589 l 1
 398 576 l 1
 402 565 l 1
 407 558 l 1
 412 551 l 1
 416 547 l 1
 419 546 l 1
 421 547 l 1
 424 551 l 1
 429 558 l 1
 433 565 l 1
 439 576 l 1
 442 590 l 1
 446 602 l 1
 445 618 l 1
486 618 m 1
 484 604 l 1
 484 588 l 1
 481 575 l 1
 477 563 l 1
 472 552 l 1
 465 540 l 1
 457 532 l 1
 448 522 l 1
 432 516 l 1
 418 516 l 1
 403 516 l 1
 391 523 l 1
 381 531 l 1
 372 540 l 1
 365 552 l 1
 361 563 l 1
 356 575 l 1
 354 589 l 1
 352 604 l 1
 352 618 l 1
 352 633 l 1
 354 646 l 1
 356 661 l 1
 361 672 l 1
 365 684 l 1
 372 696 l 1
 381 705 l 1
 391 712 l 1
 403 718 l 1
 418 720 l 1
 432 718 l 1
 447 713 l 1
 457 705 l 1
 466 696 l 1
 472 684 l 1
 478 672 l 1
 481 661 l 1
 484 646 l 1
 484 632 l 1
 486 618 l 1
329 502 m 1
 335 511 l 1
 345 506 l 1
 356 504 l 1
 366 500 l 1
 377 492 l 1
 384 483 l 1
 391 473 l 1
 402 462 l 1
 407 449 l 1
 412 435 l 1
 415 415 l 1
 406 391 l 1
 380 380 l 1
 373 383 l 1
 373 382 l 1
 350 366 l 1
 329 350 l 1
 305 335 l 1
 281 323 l 1
 256 310 l 1
 231 299 l 1
 205 289 l 1
 178 281 l 1
 181 276 l 1
 184 85 l 1
 184 76 l 1
 184 70 l 1
 186 64 l 1
 187 57 l 1
 189 51 l 1
 192 45 l 1
 195 38 l 1
 198 33 l 1
 202 28 l 1
 201 29 l 1
 206 27 l 1
 217 21 l 1
 231 18 l 1
 247 16 l 1
 269 14 l 1
 294 14 l 1
 320 16 l 1
 348 20 l 1
 385 24 l 1
 408 17 l 1
 423 -5 l 1
 417 -32 l 1
 395 -46 l 1
 359 -52 l 1
 325 -56 l 1
 294 -58 l 1
 268 -58 l 1
 242 -56 l 1
 217 -53 l 1
 195 -47 l 1
 175 -39 l 1
 169 -36 l 1
 156 -29 l 1
 148 -21 l 1
 136 -3 l 1
 137 -3 l 1
 136 -7 l 1
 133 1 l 1
 131 5 l 1
 126 15 l 1
 122 27 l 1
 119 37 l 1
 114 48 l 1
 113 62 l 1
 112 73 l 1
 112 85 l 1
 118 602 l 1
 121 601 l 1
 121 594 l 1
 118 600 l 1
 117 606 l 1
 114 612 l 1
 113 617 l 1
 104 621 l 1
 105 631 l 1
 116 629 l 1
 124 632 l 1
 135 631 l 1
 146 626 l 1
 156 622 l 1
 168 613 l 1
 175 603 l 1
 173 603 l 1
 179 602 l 1
 183 592 l 1
 183 593 l 1
 189 579 l 1
 196 562 l 1
 190 536 l 1
 183 531 l 1
 181 295 l 1
 178 306 l 1
 190 319 l 1
 211 334 l 1
 233 348 l 1
 253 365 l 1
 273 381 l 1
 291 399 l 1
 311 415 l 1
 327 433 l 1
 345 447 l 1
 346 446 l 1
 345 457 l 1
 346 464 l 1
 344 473 l 1
 342 480 l 1
 340 487 l 1
 337 494 l 1
 329 502 l 1
EndSplineSet
Comment: "Kage: aj1-00415+AAoA-Alias: uf019f"
EndChar
StartChar: uF01A0
Encoding: 983456 983456 88
Width: 500
VWidth: 0
Flags: MW
LayerCount: 2
Fore
SplineSet
413 776 m 1
 421 784 l 1
 433 775 l 1
 444 768 l 1
 454 759 l 1
 466 749 l 1
 475 737 l 1
 483 723 l 1
 492 710 l 1
 499 695 l 1
 507 681 l 1
 513 660 l 1
 507 635 l 1
 486 620 l 1
 459 624 l 1
 443 643 l 1
 441 664 l 1
 440 677 l 1
 438 691 l 1
 435 704 l 1
 431 717 l 1
 429 730 l 1
 427 741 l 1
 424 753 l 1
 421 766 l 1
 413 776 l 1
361 723 m 1
 371 729 l 1
 383 719 l 1
 394 710 l 1
 405 699 l 1
 414 687 l 1
 423 675 l 1
 432 661 l 1
 440 645 l 1
 447 629 l 1
 455 612 l 1
 461 589 l 1
 455 565 l 1
 433 550 l 1
 405 555 l 1
 391 576 l 1
 389 595 l 1
 387 612 l 1
 386 627 l 1
 382 643 l 1
 379 657 l 1
 378 671 l 1
 374 683 l 1
 373 697 l 1
 368 710 l 1
 361 723 l 1
109 -87 m 1
 143 -37 l 1
 177 13 l 1
 206 63 l 1
 235 119 l 1
 260 177 l 1
 284 237 l 1
 305 302 l 1
 323 372 l 1
 338 444 l 1
 353 506 l 1
 355 502 l 1
 351 503 l 1
 343 507 l 1
 333 508 l 1
 318 506 l 1
 301 504 l 1
 281 501 l 1
 262 499 l 1
 228 490 l 1
 228 496 l 1
 218 492 l 1
 197 484 l 1
 178 478 l 1
 162 472 l 1
 163 472 l 1
 162 469 l 1
 138 456 l 1
 114 463 l 1
 101 475 l 1
 95 486 l 1
 88 497 l 1
 86 511 l 1
 87 523 l 1
 86 534 l 1
 84 546 l 1
 87 559 l 1
 91 570 l 1
 91 585 l 1
 103 585 l 1
 104 571 l 1
 109 561 l 1
 115 554 l 1
 120 545 l 1
 126 538 l 1
 131 533 l 1
 135 531 l 1
 135 533 l 1
 133 533 l 1
 145 535 l 1
 164 535 l 1
 183 538 l 1
 207 541 l 1
 233 546 l 1
 261 550 l 1
 293 556 l 1
 327 560 l 1
 339 565 l 1
 343 571 l 1
 357 579 l 1
 373 582 l 1
 390 576 l 1
 402 566 l 1
 410 555 l 1
 418 541 l 1
 424 525 l 1
 429 503 l 1
 422 478 l 1
 415 475 l 1
 408 422 l 1
 390 339 l 1
 367 262 l 1
 343 192 l 1
 316 126 l 1
 282 68 l 1
 247 16 l 1
 208 -30 l 1
 165 -67 l 1
 121 -92 l 1
 118 -95 l 1
 115 -96 l 1
 101 -100 l 1
 109 -87 l 1
EndSplineSet
Comment: "Kage: aj1-00416+AAoA-Alias: uf01a0"
EndChar
StartChar: uF01A1
Encoding: 983457 983457 89
Width: 500
VWidth: 0
Flags: MW
LayerCount: 2
Fore
SplineSet
109 -87 m 1
 143 -37 l 1
 177 13 l 1
 206 63 l 1
 235 119 l 1
 262 175 l 1
 286 237 l 1
 306 302 l 1
 324 372 l 1
 339 444 l 1
 354 507 l 1
 347 518 l 1
 348 515 l 1
 353 504 l 1
 343 507 l 1
 333 508 l 1
 318 506 l 1
 301 504 l 1
 281 501 l 1
 262 499 l 1
 228 491 l 1
 228 496 l 1
 218 492 l 1
 197 484 l 1
 178 478 l 1
 161 472 l 1
 162 473 l 1
 162 470 l 1
 138 457 l 1
 114 464 l 1
 102 475 l 1
 96 486 l 1
 89 497 l 1
 86 511 l 1
 87 523 l 1
 86 534 l 1
 84 546 l 1
 87 559 l 1
 91 570 l 1
 91 585 l 1
 103 585 l 1
 104 571 l 1
 109 561 l 1
 115 554 l 1
 120 545 l 1
 126 538 l 1
 131 533 l 1
 136 530 l 1
 132 531 l 1
 129 531 l 1
 145 535 l 1
 164 535 l 1
 183 538 l 1
 207 541 l 1
 233 546 l 1
 261 550 l 1
 293 556 l 1
 327 560 l 1
 340 564 l 1
 345 570 l 1
 357 577 l 1
 373 581 l 1
 390 574 l 1
 401 566 l 1
 409 553 l 1
 416 539 l 1
 421 525 l 1
 428 503 l 1
 421 479 l 1
 414 476 l 1
 407 422 l 1
 389 339 l 1
 365 263 l 1
 341 192 l 1
 314 126 l 1
 282 68 l 1
 247 16 l 1
 208 -30 l 1
 165 -67 l 1
 121 -92 l 1
 118 -95 l 1
 115 -96 l 1
 102 -100 l 1
 109 -87 l 1
506 658 m 1
 504 644 l 1
 504 628 l 1
 501 615 l 1
 497 603 l 1
 492 592 l 1
 485 580 l 1
 476 572 l 1
 468 562 l 1
 452 556 l 1
 438 556 l 1
 423 556 l 1
 411 563 l 1
 401 571 l 1
 392 580 l 1
 385 592 l 1
 381 603 l 1
 376 615 l 1
 374 629 l 1
 372 644 l 1
 372 658 l 1
 372 673 l 1
 374 686 l 1
 376 701 l 1
 381 712 l 1
 385 724 l 1
 392 736 l 1
 401 745 l 1
 411 752 l 1
 423 758 l 1
 438 760 l 1
 452 758 l 1
 467 753 l 1
 477 745 l 1
 486 736 l 1
 492 724 l 1
 497 712 l 1
 501 701 l 1
 504 686 l 1
 504 672 l 1
 506 658 l 1
465 658 m 1
 466 671 l 1
 462 685 l 1
 459 700 l 1
 454 709 l 1
 449 718 l 1
 444 724 l 1
 441 730 l 1
 439 730 l 1
 436 729 l 1
 432 724 l 1
 428 718 l 1
 422 709 l 1
 418 700 l 1
 414 687 l 1
 413 672 l 1
 413 658 l 1
 413 642 l 1
 414 629 l 1
 418 616 l 1
 422 605 l 1
 427 598 l 1
 432 591 l 1
 436 587 l 1
 439 586 l 1
 441 587 l 1
 445 591 l 1
 451 598 l 1
 454 605 l 1
 459 616 l 1
 462 630 l 1
 466 642 l 1
 465 658 l 1
EndSplineSet
Comment: "Kage: aj1-00417+AAoA-Alias: uf01a1"
EndChar
StartChar: uF01A2
Encoding: 983458 983458 90
Width: 500
VWidth: 0
Flags: MW
LayerCount: 2
Fore
SplineSet
27 325 m 1
 39 326 l 1
 41 307 l 1
 47 294 l 1
 55 283 l 1
 60 274 l 1
 56 278 l 1
 60 306 l 1
 77 351 l 1
 94 390 l 1
 107 426 l 1
 121 457 l 1
 136 481 l 1
 149 498 l 1
 149 502 l 1
 146 507 l 1
 181 527 l 1
 211 517 l 1
 239 493 l 1
 265 460 l 1
 292 415 l 1
 321 363 l 1
 351 304 l 1
 387 240 l 1
 425 170 l 1
 466 93 l 1
 468 70 l 1
 464 64 l 1
 465 54 l 1
 448 31 l 1
 419 30 l 1
 400 44 l 1
 359 125 l 1
 325 198 l 1
 295 265 l 1
 266 326 l 1
 240 379 l 1
 217 423 l 1
 199 457 l 1
 183 479 l 1
 180 483 l 1
 183 484 l 1
 185 485 l 1
 182 477 l 1
 175 461 l 1
 169 438 l 1
 160 407 l 1
 149 371 l 1
 137 330 l 1
 123 283 l 1
 98 223 l 1
 94 225 l 1
 96 218 l 1
 74 203 l 1
 53 205 l 1
 37 215 l 1
 27 227 l 1
 22 239 l 1
 19 251 l 1
 19 263 l 1
 25 276 l 1
 26 290 l 1
 28 306 l 1
 27 325 l 1
291 593 m 1
 301 599 l 1
 313 589 l 1
 324 580 l 1
 335 569 l 1
 344 557 l 1
 353 545 l 1
 362 531 l 1
 370 515 l 1
 377 499 l 1
 385 482 l 1
 391 459 l 1
 385 435 l 1
 363 420 l 1
 335 423 l 1
 321 446 l 1
 319 465 l 1
 317 482 l 1
 316 497 l 1
 312 513 l 1
 309 527 l 1
 308 541 l 1
 304 553 l 1
 303 567 l 1
 298 580 l 1
 291 593 l 1
343 646 m 1
 351 654 l 1
 363 645 l 1
 374 638 l 1
 384 629 l 1
 396 619 l 1
 405 607 l 1
 413 593 l 1
 422 580 l 1
 429 565 l 1
 437 551 l 1
 443 530 l 1
 437 505 l 1
 416 490 l 1
 389 493 l 1
 373 513 l 1
 371 534 l 1
 370 547 l 1
 368 561 l 1
 365 574 l 1
 361 587 l 1
 359 600 l 1
 357 611 l 1
 354 623 l 1
 351 636 l 1
 343 646 l 1
EndSplineSet
Comment: "Kage: aj1-00418+AAoA-Alias: uf01a2"
EndChar
StartChar: uF01A3
Encoding: 983459 983459 91
Width: 500
VWidth: 0
Flags: MW
LayerCount: 2
Fore
SplineSet
395 528 m 1
 396 541 l 1
 392 555 l 1
 387 570 l 1
 385 579 l 1
 380 588 l 1
 376 594 l 1
 371 600 l 1
 369 601 l 1
 367 600 l 1
 362 594 l 1
 358 588 l 1
 352 579 l 1
 348 570 l 1
 344 557 l 1
 343 542 l 1
 343 528 l 1
 343 512 l 1
 344 499 l 1
 348 486 l 1
 352 475 l 1
 357 468 l 1
 362 461 l 1
 366 457 l 1
 369 456 l 1
 371 457 l 1
 375 461 l 1
 380 468 l 1
 384 475 l 1
 389 486 l 1
 392 500 l 1
 396 512 l 1
 395 528 l 1
436 528 m 1
 434 514 l 1
 434 498 l 1
 431 485 l 1
 427 473 l 1
 422 462 l 1
 415 450 l 1
 406 442 l 1
 398 432 l 1
 382 426 l 1
 368 426 l 1
 353 426 l 1
 341 433 l 1
 331 441 l 1
 322 450 l 1
 315 462 l 1
 311 473 l 1
 306 485 l 1
 304 499 l 1
 302 514 l 1
 302 528 l 1
 302 543 l 1
 304 556 l 1
 306 571 l 1
 311 582 l 1
 315 594 l 1
 322 606 l 1
 331 615 l 1
 341 622 l 1
 353 628 l 1
 368 630 l 1
 382 628 l 1
 397 623 l 1
 406 614 l 1
 415 606 l 1
 422 594 l 1
 428 582 l 1
 431 571 l 1
 434 556 l 1
 434 542 l 1
 436 528 l 1
27 325 m 1
 39 326 l 1
 41 307 l 1
 47 294 l 1
 55 283 l 1
 60 274 l 1
 57 275 l 1
 61 305 l 1
 78 351 l 1
 94 390 l 1
 107 426 l 1
 121 457 l 1
 136 481 l 1
 149 499 l 1
 152 501 l 1
 149 505 l 1
 181 527 l 1
 211 517 l 1
 239 493 l 1
 265 460 l 1
 292 415 l 1
 320 363 l 1
 350 304 l 1
 384 239 l 1
 422 169 l 1
 463 92 l 1
 465 70 l 1
 461 65 l 1
 462 54 l 1
 447 34 l 1
 420 33 l 1
 401 47 l 1
 362 127 l 1
 328 200 l 1
 296 267 l 1
 267 327 l 1
 240 379 l 1
 217 423 l 1
 199 457 l 1
 183 479 l 1
 181 483 l 1
 184 485 l 1
 185 485 l 1
 182 477 l 1
 175 461 l 1
 169 438 l 1
 160 407 l 1
 149 371 l 1
 136 330 l 1
 120 284 l 1
 96 226 l 1
 93 228 l 1
 94 219 l 1
 73 206 l 1
 54 209 l 1
 40 216 l 1
 30 228 l 1
 26 240 l 1
 22 251 l 1
 24 263 l 1
 25 276 l 1
 26 290 l 1
 28 306 l 1
 27 325 l 1
EndSplineSet
Comment: "Kage: aj1-00419+AAoA-Alias: uf01a3"
EndChar
StartChar: uF01A4
Encoding: 983460 983460 92
Width: 500
VWidth: 0
Flags: MW
LayerCount: 2
Fore
SplineSet
104 24 m 1
 82 13 l 1
 55 19 l 1
 40 42 l 1
 45 67 l 1
 59 84 l 1
 70 102 l 1
 82 121 l 1
 94 141 l 1
 105 164 l 1
 117 190 l 1
 129 219 l 1
 141 249 l 1
 154 279 l 1
 168 318 l 1
 177 313 l 1
 175 276 l 1
 171 241 l 1
 166 209 l 1
 159 176 l 1
 153 147 l 1
 146 120 l 1
 136 95 l 1
 127 69 l 1
 117 49 l 1
 104 24 l 1
214 280 m 1
 214 349 l 1
 219 403 l 1
 203 399 l 1
 174 394 l 1
 150 389 l 1
 126 384 l 1
 127 385 l 1
 129 384 l 1
 103 370 l 1
 80 376 l 1
 68 388 l 1
 59 400 l 1
 54 412 l 1
 52 426 l 1
 50 438 l 1
 49 451 l 1
 50 464 l 1
 53 476 l 1
 57 490 l 1
 57 506 l 1
 69 505 l 1
 70 490 l 1
 75 479 l 1
 81 470 l 1
 86 462 l 1
 90 454 l 1
 97 450 l 1
 100 448 l 1
 96 450 l 1
 104 450 l 1
 123 449 l 1
 144 448 l 1
 170 448 l 1
 198 450 l 1
 218 451 l 1
 214 487 l 1
 214 556 l 1
 225 617 l 1
 225 613 l 1
 215 632 l 1
 213 640 l 1
 211 648 l 1
 209 654 l 1
 208 659 l 1
 205 664 l 1
 205 668 l 1
 199 669 l 1
 190 690 l 1
 208 681 l 1
 216 686 l 1
 227 684 l 1
 236 680 l 1
 245 674 l 1
 254 667 l 1
 265 658 l 1
 272 650 l 1
 283 638 l 1
 290 620 l 1
 289 595 l 1
 285 591 l 1
 286 556 l 1
 286 487 l 1
 282 456 l 1
 307 457 l 1
 351 462 l 1
 373 459 l 1
 373 455 l 1
 380 472 l 1
 391 479 l 1
 406 482 l 1
 419 480 l 1
 431 473 l 1
 440 466 l 1
 448 458 l 1
 456 447 l 1
 466 433 l 1
 466 407 l 1
 447 386 l 1
 420 386 l 1
 400 404 l 1
 403 402 l 1
 400 399 l 1
 396 402 l 1
 395 403 l 1
 390 404 l 1
 378 408 l 1
 364 409 l 1
 344 409 l 1
 325 409 l 1
 300 407 l 1
 283 413 l 1
 282 422 l 1
 286 349 l 1
 286 280 l 1
 286 211 l 1
 286 142 l 1
 286 73 l 1
 286 4 l 1
 286 -69 l 1
 276 -91 l 1
 250 -101 l 1
 224 -91 l 1
 214 -69 l 1
 214 -56 l 1
 214 -57 l 1
 213 -56 l 1
 209 -49 l 1
 202 -39 l 1
 197 -27 l 1
 193 -13 l 1
 185 2 l 1
 174 19 l 1
 162 35 l 1
 146 56 l 1
 154 64 l 1
 174 47 l 1
 192 34 l 1
 206 23 l 1
 221 13 l 1
 221 9 l 1
 214 2 l 1
 214 73 l 1
 214 142 l 1
 214 211 l 1
 214 280 l 1
302 303 m 1
 311 309 l 1
 332 290 l 1
 350 270 l 1
 365 248 l 1
 378 224 l 1
 394 199 l 1
 407 172 l 1
 418 143 l 1
 431 113 l 1
 443 82 l 1
 453 44 l 1
 447 22 l 1
 426 4 l 1
 399 9 l 1
 383 28 l 1
 376 64 l 1
 368 94 l 1
 363 124 l 1
 354 152 l 1
 346 179 l 1
 339 206 l 1
 330 230 l 1
 320 254 l 1
 312 277 l 1
 302 303 l 1
338 683 m 1
 346 689 l 1
 358 679 l 1
 368 670 l 1
 380 660 l 1
 388 647 l 1
 398 635 l 1
 407 621 l 1
 414 605 l 1
 422 589 l 1
 429 572 l 1
 436 549 l 1
 430 525 l 1
 408 510 l 1
 382 513 l 1
 365 534 l 1
 363 557 l 1
 363 572 l 1
 360 587 l 1
 357 604 l 1
 356 617 l 1
 354 631 l 1
 349 643 l 1
 347 658 l 1
 344 670 l 1
 338 683 l 1
388 736 m 1
 396 744 l 1
 408 735 l 1
 419 728 l 1
 429 719 l 1
 439 708 l 1
 448 697 l 1
 459 683 l 1
 466 670 l 1
 474 656 l 1
 482 641 l 1
 488 621 l 1
 483 595 l 1
 461 580 l 1
 434 583 l 1
 418 603 l 1
 416 624 l 1
 415 637 l 1
 413 651 l 1
 411 665 l 1
 409 677 l 1
 406 690 l 1
 402 701 l 1
 399 713 l 1
 395 726 l 1
 388 736 l 1
EndSplineSet
Comment: "Kage: aj1-00420+AAoA-Alias: uf01a4"
EndChar
StartChar: uF01A5
Encoding: 983461 983461 93
Width: 500
VWidth: 0
Flags: MW
LayerCount: 2
Fore
SplineSet
103 24 m 1
 82 13 l 1
 55 19 l 1
 40 42 l 1
 45 67 l 1
 59 84 l 1
 70 102 l 1
 82 121 l 1
 94 141 l 1
 105 164 l 1
 117 190 l 1
 129 219 l 1
 141 249 l 1
 154 279 l 1
 168 318 l 1
 177 313 l 1
 175 276 l 1
 171 241 l 1
 166 209 l 1
 159 176 l 1
 153 147 l 1
 146 120 l 1
 136 95 l 1
 127 69 l 1
 117 49 l 1
 103 24 l 1
439 618 m 1
 439 632 l 1
 438 647 l 1
 434 660 l 1
 430 669 l 1
 424 678 l 1
 420 684 l 1
 416 689 l 1
 413 690 l 1
 410 690 l 1
 407 684 l 1
 404 679 l 1
 398 669 l 1
 395 660 l 1
 390 645 l 1
 386 631 l 1
 387 618 l 1
 386 602 l 1
 390 590 l 1
 393 576 l 1
 398 565 l 1
 402 558 l 1
 407 551 l 1
 411 547 l 1
 413 546 l 1
 416 547 l 1
 420 551 l 1
 426 558 l 1
 430 565 l 1
 435 576 l 1
 438 589 l 1
 439 602 l 1
 439 618 l 1
480 618 m 1
 480 604 l 1
 478 589 l 1
 476 575 l 1
 471 563 l 1
 467 552 l 1
 460 540 l 1
 451 532 l 1
 441 523 l 1
 429 516 l 1
 414 516 l 1
 400 516 l 1
 384 522 l 1
 376 532 l 1
 367 540 l 1
 360 552 l 1
 355 563 l 1
 351 575 l 1
 348 588 l 1
 348 604 l 1
 346 618 l 1
 348 632 l 1
 348 646 l 1
 351 661 l 1
 354 672 l 1
 360 684 l 1
 366 696 l 1
 375 705 l 1
 385 713 l 1
 400 718 l 1
 414 720 l 1
 429 718 l 1
 441 712 l 1
 451 705 l 1
 460 696 l 1
 467 684 l 1
 471 672 l 1
 476 661 l 1
 478 646 l 1
 480 633 l 1
 480 618 l 1
214 280 m 1
 214 349 l 1
 219 403 l 1
 203 399 l 1
 174 394 l 1
 150 389 l 1
 126 384 l 1
 127 385 l 1
 128 384 l 1
 103 370 l 1
 80 377 l 1
 68 388 l 1
 60 400 l 1
 54 412 l 1
 52 426 l 1
 50 438 l 1
 49 451 l 1
 50 464 l 1
 53 476 l 1
 57 490 l 1
 57 506 l 1
 69 505 l 1
 70 490 l 1
 75 479 l 1
 81 470 l 1
 86 462 l 1
 90 454 l 1
 97 450 l 1
 100 448 l 1
 96 450 l 1
 104 450 l 1
 123 449 l 1
 144 448 l 1
 170 448 l 1
 198 450 l 1
 218 451 l 1
 214 487 l 1
 214 556 l 1
 225 617 l 1
 225 613 l 1
 215 632 l 1
 213 640 l 1
 211 648 l 1
 209 654 l 1
 208 659 l 1
 205 664 l 1
 205 668 l 1
 199 669 l 1
 191 690 l 1
 208 681 l 1
 216 686 l 1
 227 684 l 1
 236 680 l 1
 245 674 l 1
 254 667 l 1
 265 658 l 1
 272 649 l 1
 281 638 l 1
 290 621 l 1
 289 595 l 1
 285 591 l 1
 286 556 l 1
 286 487 l 1
 281 456 l 1
 307 457 l 1
 351 462 l 1
 376 463 l 1
 373 459 l 1
 380 471 l 1
 391 479 l 1
 406 482 l 1
 419 479 l 1
 431 473 l 1
 440 466 l 1
 448 458 l 1
 456 447 l 1
 465 433 l 1
 465 407 l 1
 447 386 l 1
 420 386 l 1
 400 404 l 1
 403 402 l 1
 399 400 l 1
 396 404 l 1
 396 403 l 1
 390 404 l 1
 378 408 l 1
 364 409 l 1
 344 409 l 1
 325 409 l 1
 300 407 l 1
 283 413 l 1
 281 422 l 1
 286 349 l 1
 286 280 l 1
 286 211 l 1
 286 142 l 1
 286 73 l 1
 286 4 l 1
 286 -68 l 1
 275 -91 l 1
 250 -101 l 1
 225 -91 l 1
 214 -68 l 1
 214 -56 l 1
 214 -57 l 1
 214 -56 l 1
 209 -49 l 1
 203 -39 l 1
 197 -27 l 1
 193 -13 l 1
 185 2 l 1
 174 19 l 1
 162 35 l 1
 146 56 l 1
 154 64 l 1
 174 47 l 1
 192 34 l 1
 206 23 l 1
 221 13 l 1
 221 9 l 1
 214 2 l 1
 214 73 l 1
 214 142 l 1
 214 211 l 1
 214 280 l 1
302 303 m 1
 311 309 l 1
 332 290 l 1
 350 270 l 1
 365 248 l 1
 378 224 l 1
 394 199 l 1
 407 172 l 1
 418 143 l 1
 431 113 l 1
 443 82 l 1
 453 44 l 1
 447 22 l 1
 426 4 l 1
 399 10 l 1
 383 28 l 1
 376 64 l 1
 368 94 l 1
 363 124 l 1
 354 152 l 1
 346 179 l 1
 339 206 l 1
 330 230 l 1
 320 254 l 1
 312 277 l 1
 302 303 l 1
EndSplineSet
Comment: "Kage: aj1-00421+AAoA-Alias: uf01a5"
EndChar
StartChar: uF0204
Encoding: 983556 983556 94
Width: 500
VWidth: 0
Flags: MW
LayerCount: 2
Fore
SplineSet
359 416 m 1
 358 435 l 1
 380 425 l 1
 396 419 l 1
 409 407 l 1
 419 395 l 1
 428 380 l 1
 433 364 l 1
 437 347 l 1
 430 325 l 1
 429 326 l 1
 431 325 l 1
 415 308 l 1
 393 293 l 1
 361 272 l 1
 325 251 l 1
 292 224 l 1
 287 225 l 1
 290 230 l 1
 290 184 l 1
 290 132 l 1
 291 72 l 1
 282 48 l 1
 255 37 l 1
 228 48 l 1
 219 72 l 1
 220 132 l 1
 220 185 l 1
 228 192 l 1
 220 181 l 1
 190 153 l 1
 165 121 l 1
 158 109 l 1
 153 74 l 1
 155 31 l 1
 167 6 l 1
 183 -11 l 1
 202 -22 l 1
 227 -26 l 1
 255 -26 l 1
 285 -20 l 1
 313 -13 l 1
 342 0 l 1
 367 1 l 1
 390 -16 l 1
 392 -29 l 1
 396 -34 l 1
 396 -63 l 1
 377 -83 l 1
 338 -95 l 1
 297 -103 l 1
 258 -103 l 1
 215 -98 l 1
 176 -82 l 1
 143 -57 l 1
 118 -21 l 1
 113 26 l 1
 116 38 l 1
 113 38 l 1
 119 93 l 1
 135 138 l 1
 159 177 l 1
 188 213 l 1
 217 252 l 1
 221 251 l 1
 218 269 l 1
 220 301 l 1
 216 323 l 1
 211 337 l 1
 209 342 l 1
 200 344 l 1
 190 346 l 1
 196 337 l 1
 189 326 l 1
 180 313 l 1
 172 302 l 1
 166 296 l 1
 155 269 l 1
 148 253 l 1
 145 243 l 1
 143 242 l 1
 139 231 l 1
 120 191 l 1
 102 173 l 1
 72 175 l 1
 53 197 l 1
 55 222 l 1
 72 261 l 1
 88 298 l 1
 102 337 l 1
 116 377 l 1
 133 419 l 1
 147 463 l 1
 156 473 l 1
 154 471 l 1
 126 476 l 1
 102 492 l 1
 86 516 l 1
 78 546 l 1
 78 586 l 1
 91 587 l 1
 105 555 l 1
 119 535 l 1
 130 528 l 1
 140 525 l 1
 152 526 l 1
 169 535 l 1
 166 533 l 1
 171 557 l 1
 184 607 l 1
 196 653 l 1
 198 656 l 1
 197 662 l 1
 197 669 l 1
 196 674 l 1
 195 677 l 1
 190 683 l 1
 187 688 l 1
 177 689 l 1
 177 701 l 1
 189 701 l 1
 198 703 l 1
 211 704 l 1
 220 700 l 1
 231 694 l 1
 240 686 l 1
 251 678 l 1
 257 665 l 1
 261 660 l 1
 266 657 l 1
 268 644 l 1
 272 633 l 1
 262 606 l 1
 258 605 l 1
 256 590 l 1
 239 554 l 1
 249 565 l 1
 286 584 l 1
 310 587 l 1
 333 568 l 1
 333 537 l 1
 315 520 l 1
 277 505 l 1
 245 487 l 1
 228 483 l 1
 215 441 l 1
 201 397 l 1
 176 358 l 1
 193 378 l 1
 223 380 l 1
 248 366 l 1
 265 341 l 1
 275 311 l 1
 276 287 l 1
 292 302 l 1
 326 326 l 1
 354 348 l 1
 359 343 l 1
 357 344 l 1
 376 365 l 1
 376 361 l 1
 376 370 l 1
 378 380 l 1
 376 389 l 1
 374 398 l 1
 369 406 l 1
 359 416 l 1
174 339 m 1
 179 358 l 1
 170 351 l 1
 174 339 l 1
EndSplineSet
Comment: "Kage: aj1-00516+AAoA-Alias: uf0204"
EndChar
StartChar: uF0205
Encoding: 983557 983557 95
Width: 500
VWidth: 0
Flags: MW
LayerCount: 2
Fore
SplineSet
261 307 m 1
 252 329 l 1
 270 317 l 1
 279 318 l 1
 288 317 l 1
 296 314 l 1
 304 306 l 1
 310 297 l 1
 316 288 l 1
 322 278 l 1
 323 275 l 1
 317 271 320 270 326 270 c 2
 353 261 l 1
 378 245 l 1
 401 222 l 1
 418 194 l 1
 432 162 l 1
 443 121 l 2
 442 115 442 113 442 114 c 2
 442 103 l 1
 442 87 l 1
 441 72 l 1
 438 56 l 1
 435 41 l 1
 430 26 l 1
 425 11 l 1
 418 -4 l 1
 412 -18 l 1
 402 -36 l 1
 401 -36 l 2
 402 -33 402 -33 402 -34 c 0
 397 -40 392 -47 387 -54 c 2
 369 -71 l 1
 352 -87 l 1
 332 -99 l 1
 310 -110 l 1
 288 -117 l 1
 265 -120 l 1
 242 -123 l 1
 217 -121 l 1
 215 -111 l 1
 239 -103 l 1
 258 -95 l 1
 274 -83 l 1
 290 -72 l 1
 303 -61 l 1
 315 -48 l 1
 326 -35 l 1
 333 -18 l 2
 336 -11 341 -6 341 -4 c 2
 341 -0 l 2
 344 6 345 9 346 10 c 2
 358 29 l 1
 365 13 366 15 359 29 c 1
 353 24 l 1
 356 35 l 2
 356 36 357 37 357 36 c 1
 357 37 356 41 357 45 c 2
 359 59 l 1
 360 73 l 1
 363 99 l 1
 364 96 l 1
 362 90 l 2
 362 97 361 99 361 98 c 2
 364 119 l 1
 385 122 379 106 369 120 c 1
 361 104 361 105 361 105 c 0
 361 110 360 117 360 122 c 2
 358 146 l 1
 356 168 l 1
 350 187 l 2
 349 190 347 194 345 198 c 0
 344 200 342 203 340 206 c 2
 340 206 l 1
 328 218 l 1
 312 227 l 1
 319 222 l 1
 320 215 314 197 309 179 c 2
 293 127 l 1
 275 80 l 1
 258 38 l 2
 252 26 247 16 244 14 c 1
 244 18 245 14 248 7 c 2
 249 -17 l 1
 233 -39 l 1
 203 -43 l 1
 205 -40 l 2
 209 -40 202 -44 198 -51 c 2
 175 -72 l 1
 146 -85 l 1
 116 -88 l 1
 91 -78 l 1
 91 -77 l 1
 97 -78 94 -78 88 -75 c 2
 76 -66 l 1
 73 -56 l 1
 72 -47 l 1
 69 -38 l 1
 68 -27 l 2
 67 -22 65 -16 64 -8 c 2
 61 5 l 1
 62 8 l 2
 61 8 58 10 57 14 c 0
 54 20 51 25 48 32 c 2
 45 47 l 1
 47 51 l 1
 46 51 l 1
 54 86 l 1
 64 115 l 1
 78 143 l 1
 96 167 l 1
 115 191 l 1
 139 211 l 1
 141 222 147 226 148 224 c 2
 146 227 l 1
 152 287 l 1
 162 335 l 1
 173 332 l 1
 154 335 l 1
 139 341 l 1
 126 349 l 1
 113 360 l 1
 104 372 l 1
 98 384 l 1
 96 399 l 1
 93 413 l 1
 93 430 l 1
 91 449 l 1
 102 449 l 1
 107 432 l 1
 115 420 l 1
 121 412 l 1
 129 406 l 1
 136 402 l 1
 143 400 l 1
 147 398 l 1
 153 400 l 1
 160 401 l 2
 159 401 158 404 150 397 c 1
 150 398 l 1
 165 406 170 407 165 403 c 1
 166 424 l 1
 184 515 l 1
 181 512 l 1
 184 498 182 500 181 502 c 2
 184 504 l 1
 186 506 l 1
 185 510 l 1
 185 514 l 1
 178 515 l 1
 178 525 l 1
 186 526 l 1
 193 530 l 1
 202 531 l 1
 211 530 l 1
 220 529 l 1
 228 522 l 1
 236 515 l 1
 243 505 l 2
 244 504 244 504 240 508 c 2
 249 503 l 1
 249 486 l 2
 250 487 251 487 251 482 c 2
 244 455 l 1
 238 450 238 450 244 455 c 1
 238 416 l 1
 231 415 l 1
 220 418 225 419 228 420 c 2
 241 426 l 1
 256 432 l 1
 269 438 l 1
 281 445 l 2
 288 450 295 455 304 463 c 1
 328 472 l 1
 354 458 l 1
 363 431 l 1
 350 407 l 1
 333 395 l 2
 324 389 315 382 304 376 c 2
 287 368 l 1
 270 359 l 1
 252 353 l 1
 236 345 l 2
 231 343 225 342 229 346 c 1
 232 345 l 1
 224 282 l 2
 223 268 222 253 216 255 c 1
 215 251 l 2
 219 252 223 253 227 255 c 2
 265 270 l 1
 266 267 l 2
 263 267 261 278 264 279 c 0
 267 268 267 268 255 273 c 1
 255 276 l 1
 261 276 l 1
 260 271 l 1
 262 278 l 1
 264 283 l 1
 264 289 l 1
 265 294 l 1
 266 298 l 1
 267 301 l 1
 266 306 l 1
 261 307 l 1
255 234 m 1
 268 236 l 1
 240 237 l 2
 238 237 l 1
 238 237 238 236 237 236 c 2
 219 207 l 1
 220 211 l 1
 222 202 220 186 218 172 c 2
 220 127 l 1
 224 88 l 2
 225 84 226 79 213 90 c 1
 200 88 204 98 208 107 c 2
 225 151 l 1
 241 201 l 1
 255 234 l 1
164 20 m 1
 162 21 159 29 156 39 c 2
 152 79 l 1
 148 123 l 1
 146 172 l 1
 156 167 l 1
 165 170 160 164 155 157 c 2
 141 137 l 1
 132 115 l 1
 123 93 l 1
 119 72 l 1
 117 43 l 1
 116 41 l 2
 116 40 116 35 114 30 c 2
 111 23 l 2
 110 20 109 15 108 12 c 2
 109 7 l 2
 110 2 110 -1 111 -3 c 2
 113 -7 l 1
 118 -15 l 1
 117 -31 112 -34 113 -19 c 2
 112 -12 l 1
 117 -14 l 1
 121 -16 l 1
 120 -15 l 1
 127 -16 l 1
 133 -21 134 -22 128 -18 c 0
 120 -16 124 -14 128 -14 c 2
 135 -10 l 1
 147 -1 l 1
 160 17 l 2
 162 19 164 23 164 20 c 1
EndSplineSet
Comment: "Kage: aj1-00517+AAoA-Alias: uf0205"
EndChar
StartChar: uF0206
Encoding: 983558 983558 96
Width: 500
VWidth: 0
Flags: MW
LayerCount: 2
Fore
SplineSet
321 100 m 1
 335 105 l 1
 343 113 l 2
 349 117 353 121 358 125 c 0
 361 129 366 133 368 141 c 1
 373 145 l 2
 378 147 381 148 372 142 c 2
 369 139 l 1
 365 174 l 1
 362 207 l 1
 357 236 l 1
 351 264 l 1
 343 289 l 1
 332 311 l 1
 323 332 l 1
 312 352 l 1
 294 371 l 1
 300 383 l 1
 328 372 l 1
 352 359 l 1
 373 340 l 1
 390 316 l 1
 406 291 l 1
 420 261 l 1
 431 228 l 1
 441 193 l 1
 445 154 l 1
 449 107 l 1
 438 84 l 1
 432 80 431 79 436 83 c 0
 439 87 438 84 433 76 c 1
 408 65 l 1
 381 75 l 1
 378 85 l 1
 382 88 l 1
 376 90 l 1
 368 92 l 1
 359 93 l 2
 352 93 346 93 339 94 c 2
 325 91 l 1
 321 100 l 1
48 230 m 1
 48 287 l 1
 52 343 l 1
 61 407 l 1
 63 407 l 1
 60 393 l 2
 59 398 61 404 62 407 c 2
 61 413 l 1
 59 420 l 1
 58 426 l 1
 56 432 l 1
 54 439 l 1
 46 443 l 1
 49 453 l 1
 60 450 l 1
 69 449 l 1
 79 446 l 1
 87 442 l 1
 97 435 l 1
 105 427 l 1
 112 418 l 1
 120 408 l 1
 126 397 l 1
 122 403 l 1
 125 401 l 1
 127 387 128 386 128 387 c 2
 130 380 l 2
 129 372 127 368 126 368 c 0
 126 360 125 349 124 338 c 2
 120 284 l 1
 120 230 l 1
 120 175 l 1
 124 124 l 1
 131 78 l 1
 140 40 l 1
 152 12 l 2
 152 12 154 9 139 14 c 1
 130 3 131 7 132 11 c 0
 137 26 140 41 145 55 c 0
 151 75 158 94 165 113 c 0
 174 138 183 162 192 186 c 2
 210 229 l 1
 221 227 l 1
 217 196 212 168 209 140 c 0
 206 117 201 94 198 72 c 0
 196 55 195 37 192 20 c 2
 191 2 l 1
 195 -12 l 1
 195 -20 l 1
 196 -26 l 1
 195 -31 l 2
 196 -34 196 -39 197 -49 c 1
 182 -72 l 1
 155 -78 l 1
 114 -57 l 1
 88 -23 l 1
 72 18 l 1
 60 65 l 1
 53 116 l 1
 49 172 l 1
 48 230 l 1
EndSplineSet
Comment: "Kage: aj1-00518+AAoA-Alias: uf0206"
EndChar
StartChar: uF0207
Encoding: 983559 983559 97
Width: 500
VWidth: 0
Flags: MW
LayerCount: 2
Fore
SplineSet
129 221 m 1
 129 234 l 1
 130 249 l 1
 133 266 l 1
 144 278 l 1
 148 291 l 1
 155 303 l 1
 162 315 l 1
 169 331 l 1
 180 326 l 1
 177 312 l 1
 177 298 l 1
 179 286 l 1
 181 274 l 1
 178 273 l 1
 172 272 l 1
 186 290 l 1
 199 305 l 1
 215 319 l 1
 231 325 l 1
 225 332 l 1
 258 345 l 1
 283 347 l 1
 311 337 l 1
 331 319 l 1
 345 293 l 1
 355 267 l 1
 361 237 l 1
 364 205 l 1
 365 171 l 1
 362 175 l 1
 362 176 l 1
 362 113 l 1
 354 70 l 1
 344 29 l 1
 329 -7 l 1
 313 -37 l 1
 294 -65 l 1
 270 -88 l 1
 245 -108 l 1
 217 -121 l 1
 187 -134 l 1
 181 -125 l 1
 182 -125 l 1
 179 -125 l 1
 186 -118 l 1
 203 -99 l 1
 219 -73 l 1
 236 -50 l 1
 248 -25 l 1
 261 -1 l 1
 269 27 l 1
 279 58 l 1
 284 91 l 1
 288 126 l 1
 289 133 l 1
 288 134 l 1
 289 170 l 1
 289 200 l 1
 290 228 l 1
 289 252 l 1
 286 274 l 1
 281 291 l 1
 277 302 l 1
 271 311 l 1
 260 315 l 1
 259 315 l 1
 248 307 l 1
 241 294 l 1
 232 280 l 1
 224 266 l 1
 219 249 l 1
 216 229 l 1
 210 214 l 1
 204 199 l 1
 201 191 l 1
 199 180 l 1
 176 162 l 1
 149 166 l 1
 132 186 l 1
 129 206 l 1
 129 221 l 1
201 394 m 1
 210 409 l 1
 217 423 l 1
 223 436 l 1
 228 447 l 1
 226 449 l 1
 224 452 l 1
 217 464 l 1
 211 476 l 1
 203 489 l 1
 198 505 l 1
 188 521 l 1
 199 528 l 1
 210 512 l 1
 222 504 l 1
 232 496 l 1
 242 492 l 1
 250 488 l 1
 258 492 l 1
 265 490 l 1
 266 488 l 1
 269 491 l 1
 279 494 l 1
 303 490 l 1
 320 466 l 1
 315 439 l 1
 293 423 l 1
 275 434 l 1
 276 435 l 1
 277 437 l 1
 279 435 l 1
 275 439 l 1
 273 436 l 1
 271 432 l 1
 276 430 l 1
 284 427 l 1
 278 428 l 1
 278 426 l 1
 275 423 l 1
 265 417 l 1
 256 415 l 1
 244 416 l 1
 233 408 l 1
 219 400 l 1
 208 386 l 1
 201 394 l 1
274 429 m 1
 286 429 l 1
 277 437 l 1
 277 437 l 1
 275 439 l 1
 274 429 l 1
EndSplineSet
Comment: "Kage: aj1-00519+AAoA-Alias: uf0207"
EndChar
StartChar: uF0208
Encoding: 983560 983560 98
Width: 500
VWidth: 0
Flags: MW
LayerCount: 2
Fore
SplineSet
190 366 m 1
 202 380 l 1
 210 396 l 1
 219 406 l 1
 227 418 l 1
 221 413 l 1
 218 418 l 1
 208 431 l 1
 198 448 l 1
 191 465 l 1
 189 485 l 1
 186 504 l 1
 183 529 l 1
 196 529 l 1
 201 508 l 1
 210 493 l 1
 219 480 l 1
 231 471 l 1
 241 464 l 1
 249 458 l 1
 258 461 l 1
 269 457 l 1
 279 455 l 1
 284 456 l 1
 293 456 l 1
 307 454 l 1
 309 451 l 1
 318 446 l 1
 331 420 l 1
 318 393 l 1
 290 385 l 1
 291 385 l 1
 294 384 l 1
 283 385 l 1
 266 388 l 1
 269 389 l 1
 270 385 l 1
 260 383 l 1
 251 381 l 1
 238 385 l 1
 226 377 l 1
 211 371 l 1
 198 358 l 1
 190 366 l 1
218 293 m 1
 236 302 l 1
 248 307 l 1
 249 321 l 1
 258 328 l 1
 264 332 l 1
 272 341 l 1
 292 349 l 1
 320 341 l 1
 334 322 l 1
 341 304 l 1
 336 280 l 1
 329 272 l 1
 313 247 l 1
 297 214 l 1
 279 180 l 1
 261 145 l 1
 242 106 l 1
 235 112 l 1
 231 123 l 1
 253 126 l 1
 274 115 l 1
 289 99 l 1
 297 81 l 1
 304 62 l 1
 303 59 l 1
 304 59 l 1
 310 19 l 1
 311 -5 l 1
 312 -22 l 1
 315 -35 l 1
 315 -40 l 1
 315 -39 l 1
 317 -39 l 1
 328 -42 l 1
 349 -41 l 1
 384 -38 l 1
 409 -43 l 1
 424 -67 l 1
 417 -96 l 1
 393 -109 l 1
 354 -113 l 1
 323 -114 l 1
 296 -110 l 1
 272 -96 l 1
 254 -76 l 1
 244 -52 l 1
 240 -32 l 1
 239 -9 l 1
 238 15 l 1
 236 36 l 1
 236 38 l 1
 236 42 l 1
 237 54 l 1
 237 64 l 1
 236 72 l 1
 233 77 l 1
 234 77 l 1
 240 74 l 1
 241 68 l 1
 236 63 l 1
 226 51 l 1
 217 39 l 1
 209 28 l 1
 204 21 l 1
 187 -11 l 1
 169 -54 l 1
 147 -99 l 1
 130 -117 l 1
 101 -117 l 1
 81 -97 l 1
 82 -71 l 1
 102 -23 l 1
 121 19 l 1
 139 61 l 1
 158 102 l 1
 177 139 l 1
 195 177 l 1
 213 214 l 1
 231 248 l 1
 249 283 l 1
 257 276 l 1
 262 275 l 1
 249 264 l 1
 234 256 l 1
 222 248 l 1
 211 239 l 1
 203 233 l 1
 194 226 l 1
 186 218 l 1
 176 226 l 1
 179 225 l 1
 150 212 l 1
 134 221 l 1
 124 234 l 1
 121 246 l 1
 119 255 l 1
 117 267 l 1
 121 278 l 1
 131 286 l 1
 133 296 l 1
 137 308 l 1
 138 325 l 1
 150 325 l 1
 150 308 l 1
 155 298 l 1
 160 289 l 1
 165 282 l 1
 169 277 l 1
 163 282 l 1
 159 282 l 1
 169 284 l 1
 178 286 l 1
 191 288 l 1
 203 291 l 1
 218 293 l 1
 219 291 l 1
 218 293 l 1
EndSplineSet
Comment: "Kage: aj1-00520+AAoA-Alias: uf0208"
EndChar
StartChar: uF0209
Encoding: 983561 983561 99
Width: 500
VWidth: 0
Flags: MW
LayerCount: 2
Fore
SplineSet
236 65 m 1
 245 68 l 1
 253 47 l 1
 262 33 l 1
 271 20 l 1
 281 10 l 1
 289 3 l 1
 297 -3 l 1
 303 -4 l 1
 307 -6 l 1
 311 -4 l 1
 309 -5 l 1
 306 -5 l 1
 318 2 l 1
 329 18 l 1
 338 42 l 1
 345 72 l 1
 345 106 l 1
 344 138 l 1
 337 167 l 1
 325 188 l 1
 321 192 l 1
 311 200 l 1
 301 207 l 1
 291 203 l 1
 273 189 l 1
 256 170 l 1
 247 139 l 1
 228 122 l 1
 232 -25 l 1
 233 -34 l 1
 234 -41 l 1
 235 -52 l 1
 235 -61 l 1
 235 -69 l 1
 234 -77 l 1
 234 -88 l 1
 232 -101 l 1
 226 -112 l 1
 219 -123 l 1
 193 -137 l 1
 163 -129 l 1
 152 -97 l 1
 153 -105 l 1
 155 -112 l 1
 147 -90 l 1
 144 -83 l 1
 142 -76 l 1
 138 -68 l 1
 133 -55 l 1
 131 -44 l 1
 137 -30 l 1
 133 -18 l 1
 135 -29 l 1
 125 -44 l 1
 120 -39 l 1
 113 -51 l 1
 82 -43 l 1
 70 -29 l 1
 65 -19 l 1
 62 -8 l 1
 61 3 l 1
 61 13 l 1
 62 26 l 1
 67 35 l 1
 81 39 l 1
 87 48 l 1
 87 61 l 1
 99 61 l 1
 99 47 l 1
 103 39 l 1
 108 32 l 1
 105 37 l 1
 95 31 l 1
 114 59 l 1
 128 92 l 1
 149 124 l 1
 156 125 l 1
 159 282 l 1
 156 283 l 1
 132 285 l 1
 112 296 l 1
 97 315 l 1
 93 340 l 1
 93 374 l 1
 106 374 l 1
 116 347 l 1
 125 334 l 1
 132 330 l 1
 137 332 l 1
 146 335 l 1
 155 348 l 1
 156 343 l 1
 157 480 l 1
 160 479 l 1
 161 469 l 1
 162 473 l 1
 161 478 l 1
 164 480 l 1
 163 482 l 1
 163 487 l 1
 155 487 l 1
 145 509 l 1
 164 499 l 1
 169 514 l 1
 179 514 l 1
 189 506 l 1
 198 500 l 1
 205 494 l 1
 214 488 l 1
 222 478 l 1
 223 480 l 1
 227 478 l 1
 228 464 l 1
 233 451 l 1
 228 432 l 1
 221 384 l 1
 224 393 l 1
 249 401 l 1
 277 387 l 1
 285 357 l 1
 268 334 l 1
 247 316 l 1
 223 300 l 1
 227 304 l 1
 221 190 l 1
 229 198 l 1
 255 216 l 1
 283 224 l 1
 284 223 l 1
 284 224 l 1
 319 233 l 1
 322 232 l 1
 335 226 l 1
 356 216 l 1
 355 215 l 1
 355 217 l 1
 381 185 l 1
 400 148 l 1
 411 105 l 1
 413 61 l 1
 408 18 l 1
 396 -22 l 1
 369 -56 l 1
 324 -75 l 1
 326 -73 l 1
 327 -77 l 1
 294 -72 l 1
 280 -63 l 1
 269 -50 l 1
 261 -38 l 1
 253 -24 l 1
 248 -10 l 1
 243 8 l 1
 241 25 l 1
 240 44 l 1
 236 65 l 1
324 298 m 1
 329 306 l 1
 331 316 l 1
 337 324 l 1
 338 334 l 1
 344 342 l 1
 351 352 l 1
 357 344 l 1
 357 338 l 1
 353 350 l 1
 349 364 l 1
 345 376 l 1
 341 388 l 1
 337 397 l 1
 331 405 l 1
 324 414 l 1
 318 421 l 1
 307 428 l 1
 308 438 l 1
 323 436 l 1
 336 435 l 1
 351 431 l 1
 363 424 l 1
 377 415 l 1
 389 404 l 1
 400 389 l 1
 410 374 l 1
 426 358 l 1
 433 332 l 1
 427 307 l 1
 403 285 l 1
 375 292 l 1
 376 294 l 1
 380 293 l 1
 369 295 l 1
 365 302 l 1
 361 303 l 1
 355 301 l 1
 347 300 l 1
 341 298 l 1
 332 289 l 1
 324 298 l 1
162 -11 m 1
 167 39 l 1
 169 25 l 1
 148 8 l 1
 145 9 l 1
 152 -4 l 1
 162 -12 l 1
 162 -11 l 1
EndSplineSet
Comment: "Kage: aj1-00521+AAoA-Alias: uf0209"
EndChar
StartChar: uF020A
Encoding: 983562 983562 100
Width: 500
VWidth: 0
Flags: MW
LayerCount: 2
Fore
SplineSet
245 200 m 1
 254 206 l 1
 275 179 l 1
 294 167 l 1
 309 162 l 1
 321 162 l 1
 330 167 l 1
 338 175 l 1
 347 185 l 1
 353 198 l 1
 356 212 l 1
 363 236 l 1
 365 236 l 1
 362 240 l 1
 365 259 l 1
 367 278 l 1
 366 295 l 1
 363 310 l 1
 358 324 l 1
 351 333 l 1
 342 341 l 1
 328 347 l 1
 322 347 l 1
 321 346 l 1
 296 328 l 1
 272 309 l 1
 252 286 l 1
 230 264 l 1
 215 238 l 1
 216 241 l 1
 233 188 l 1
 258 104 l 1
 282 4 l 1
 304 -114 l 1
 296 -140 l 1
 293 -140 l 1
 294 -142 l 1
 270 -158 l 1
 243 -151 l 1
 229 -130 l 1
 210 -13 l 1
 188 84 l 1
 167 170 l 1
 171 193 l 1
 178 192 l 1
 161 170 l 1
 149 156 l 1
 147 151 l 1
 125 140 l 1
 108 142 l 1
 94 149 l 1
 83 157 l 1
 74 168 l 1
 69 181 l 1
 69 192 l 1
 75 203 l 1
 77 214 l 1
 80 225 l 1
 80 241 l 1
 92 241 l 1
 93 226 l 1
 99 216 l 1
 102 210 l 1
 109 206 l 1
 115 200 l 1
 111 204 l 1
 110 215 l 1
 127 231 l 1
 145 255 l 1
 146 254 l 1
 136 300 l 1
 127 349 l 1
 129 391 l 1
 146 425 l 1
 181 439 l 1
 226 435 l 1
 225 431 l 1
 232 432 l 1
 244 434 l 1
 236 435 l 1
 234 439 l 1
 231 457 l 1
 230 474 l 1
 232 493 l 1
 232 512 l 1
 232 537 l 1
 244 537 l 1
 249 515 l 1
 255 497 l 1
 263 481 l 1
 270 467 l 1
 277 455 l 1
 288 445 l 1
 293 434 l 1
 297 427 l 1
 303 422 l 1
 313 415 l 1
 320 390 l 1
 309 365 l 1
 284 356 l 1
 257 369 l 1
 259 369 l 1
 256 368 l 1
 253 376 l 1
 253 376 l 1
 250 380 l 1
 248 386 l 1
 245 388 l 1
 238 392 l 1
 230 398 l 1
 226 412 l 1
 217 418 l 1
 214 419 l 1
 189 411 l 1
 178 399 l 1
 177 385 l 1
 180 356 l 1
 191 315 l 1
 193 294 l 1
 194 298 l 1
 219 321 l 1
 249 342 l 1
 279 357 l 1
 312 367 l 1
 317 367 l 1
 325 371 l 1
 338 373 l 1
 351 374 l 1
 350 371 l 1
 350 374 l 1
 377 368 l 1
 396 352 l 1
 411 331 l 1
 420 308 l 1
 427 285 l 1
 431 259 l 1
 432 233 l 1
 425 200 l 1
 422 199 l 1
 419 187 l 1
 405 167 l 1
 389 149 l 1
 370 133 l 1
 347 126 l 1
 323 125 l 1
 299 131 l 1
 279 147 l 1
 263 170 l 1
 245 200 l 1
EndSplineSet
Comment: "Kage: aj1-00522+AAoA-Alias: uf020a"
EndChar
StartChar: uF020B
Encoding: 983563 983563 101
Width: 500
VWidth: 0
Flags: MW
LayerCount: 2
Fore
SplineSet
343 135 m 1
 350 171 l 1
 352 206 l 1
 350 241 l 1
 345 271 l 1
 339 299 l 1
 330 320 l 1
 317 336 l 1
 313 340 l 1
 319 265 l 1
 319 261 l 1
 315 173 l 1
 310 97 l 1
 301 27 l 1
 301 37 l 1
 291 43 l 1
 307 53 l 1
 321 72 l 1
 335 101 l 1
 343 135 l 1
 343 135 l 1
239 502 m 1
 232 521 l 1
 249 515 l 1
 256 519 l 1
 267 519 l 1
 274 517 l 1
 285 514 l 1
 293 507 l 1
 303 499 l 1
 309 492 l 1
 309 492 l 1
 315 488 l 1
 318 478 l 1
 323 464 l 1
 319 440 l 1
 319 440 l 1
 317 387 l 1
 315 390 l 1
 345 375 l 1
 373 352 l 1
 394 324 l 1
 411 289 l 1
 419 250 l 1
 425 209 l 1
 425 166 l 1
 414 113 l 1
 411 113 l 1
 401 69 l 1
 376 29 l 1
 346 -0 l 1
 311 -14 l 1
 291 -13 l 1
 288 -22 l 1
 272 -67 l 1
 247 -104 l 1
 217 -130 l 1
 175 -148 l 1
 172 -132 l 1
 173 -132 l 1
 164 -132 l 1
 192 -95 l 1
 209 -63 l 1
 225 -27 l 1
 234 11 l 1
 237 3 l 1
 235 1 l 1
 212 37 l 1
 194 77 l 1
 187 130 l 1
 184 195 l 1
 193 195 l 1
 208 133 l 1
 230 90 l 1
 250 61 l 1
 250 57 l 1
 245 57 l 1
 251 115 l 1
 255 183 l 1
 253 261 l 1
 254 344 l 1
 256 351 l 1
 238 319 l 1
 220 284 l 1
 203 246 l 1
 191 208 l 1
 184 170 l 1
 176 134 l 1
 171 101 l 1
 168 75 l 1
 167 55 l 1
 167 43 l 1
 165 35 l 1
 166 26 l 1
 166 3 l 1
 147 -17 l 1
 117 -17 l 1
 101 2 l 1
 90 30 l 1
 85 63 l 1
 82 95 l 1
 81 134 l 1
 82 174 l 1
 84 217 l 1
 88 261 l 1
 91 304 l 1
 95 347 l 1
 100 388 l 1
 103 394 l 1
 105 401 l 1
 103 408 l 1
 106 415 l 1
 104 419 l 1
 105 427 l 1
 105 432 l 1
 100 436 l 1
 108 448 l 1
 113 441 l 1
 122 440 l 1
 130 436 l 1
 138 432 l 1
 144 423 l 1
 152 416 l 1
 158 406 l 1
 164 396 l 1
 163 396 l 1
 168 394 l 1
 171 375 l 1
 173 368 l 1
 169 354 l 1
 167 341 l 1
 163 298 l 1
 159 255 l 1
 156 213 l 1
 143 201 l 1
 142 226 l 1
 161 267 l 1
 184 305 l 1
 214 339 l 1
 248 363 l 1
 251 375 l 1
 250 488 l 1
 249 484 l 1
 251 477 l 1
 250 484 l 1
 249 488 l 1
 249 493 l 1
 248 497 l 1
 247 501 l 1
 239 502 l 1
EndSplineSet
Comment: "Kage: aj1-00523+AAoA-Alias: uf020b"
EndChar
StartChar: uF020C
Encoding: 983564 983564 102
Width: 500
VWidth: 0
Flags: MW
LayerCount: 2
Fore
SplineSet
215 351 m 2
 215 393 217 434 221 487 c 1
 221 485 l 2
 221 477 220 483 220 487 c 2
 217 492 l 1
 213 498 l 1
 209 503 l 1
 203 509 l 1
 193 511 l 1
 193 522 l 1
 206 522 l 1
 216 526 l 1
 228 525 l 1
 239 521 l 1
 250 516 l 1
 261 509 l 1
 273 501 l 1
 282 488 l 1
 278 490 l 1
 283 487 l 1
 288 474 288 474 288 476 c 2
 289 475 l 1
 296 457 l 1
 292 432 l 1
 286 426 284 424 286 428 c 1
 287 407 287 379 287 351 c 2
 286 335 l 1
 280 341 283 339 278 327 c 1
 283 329 l 1
 290 330 l 1
 299 334 l 1
 309 338 l 1
 322 344 l 1
 337 352 l 2
 350 359 362 365 374 371 c 2
 400 386 l 1
 423 385 l 1
 444 367 l 1
 446 341 l 1
 430 321 l 1
 401 310 l 1
 378 303 l 1
 356 297 l 1
 336 295 l 1
 318 293 l 1
 301 294 l 1
 287 299 l 1
 275 305 l 2
 271 307 269 310 278 301 c 2
 288 295 l 1
 288 244 l 1
 288 197 l 1
 289 155 l 1
 290 119 l 1
 292 84 l 2
 292 79 292 76 289 80 c 2
 287 83 l 1
 332 61 l 1
 378 39 l 1
 419 11 l 1
 456 -21 l 1
 464 -45 l 1
 454 -71 l 1
 427 -80 l 1
 405 -72 l 1
 375 -44 l 1
 342 -19 l 1
 304 5 l 1
 288 17 l 1
 288 -25 l 1
 263 -69 l 1
 226 -100 l 1
 184 -111 l 1
 141 -113 l 1
 102 -98 l 1
 72 -73 l 1
 55 -37 l 1
 56 7 l 1
 63 30 l 2
 63 20 63 20 63 30 c 1
 67 35 l 1
 74 61 l 1
 79 56 81 56 78 59 c 2
 78 67 l 1
 110 89 l 1
 149 100 l 1
 193 99 l 1
 239 93 l 1
 226 94 l 1
 220 81 220 82 220 82 c 2
 218 115 l 1
 217 154 l 1
 216 196 l 1
 216 244 l 1
 216 295 l 1
 215 351 l 2
226 37 m 0
 230 33 227 35 224 36 c 2
 186 49 l 1
 152 51 l 1
 123 49 l 1
 100 42 l 2
 94 39 87 33 80 30 c 1
 78 22 76 13 74 4 c 2
 82 -28 l 1
 98 -48 l 1
 119 -62 l 1
 145 -64 l 1
 173 -61 l 1
 196 -49 l 1
 213 -31 l 1
 224 -6 l 1
 224 28 l 2
 223 33 223 40 226 37 c 0
EndSplineSet
Comment: "Kage: aj1-00524+AAoA-Alias: uf020c"
EndChar
StartChar: uF020D
Encoding: 983565 983565 103
Width: 500
VWidth: 0
Flags: MW
LayerCount: 2
Fore
SplineSet
160 -35 m 2
 195 -24 l 1
 227 -11 l 1
 255 1 l 1
 282 16 l 1
 303 32 l 1
 323 54 l 1
 340 77 l 1
 353 103 l 1
 364 135 l 1
 379 182 l 1
 380 181 l 2
 374 181 374 195 375 207 c 2
 373 242 l 1
 367 272 l 1
 358 297 l 1
 346 316 l 1
 331 331 l 1
 313 342 l 1
 289 346 l 1
 283 347 l 1
 267 343 l 1
 249 336 l 1
 231 325 l 2
 220 316 209 304 199 294 c 0
 189 282 177 271 168 259 c 0
 157 248 148 236 138 223 c 0
 133 218 129 211 125 207 c 1
 125 207 124 205 119 200 c 2
 93 193 l 1
 75 202 l 1
 62 211 l 1
 54 223 l 1
 52 238 l 1
 48 251 l 1
 47 267 l 1
 47 282 l 1
 49 298 l 1
 51 314 l 1
 49 337 l 1
 60 337 l 1
 64 317 l 1
 71 301 l 1
 76 288 l 1
 84 278 l 1
 90 269 l 1
 95 263 l 2
 94 267 95 267 92 268 c 2
 91 271 l 1
 102 280 115 291 126 301 c 2
 146 317 l 2
 160 327 174 337 189 347 c 2
 213 358 l 2
 216 359 218 359 215 357 c 0
 206 350 206 349 210 360 c 1
 253 383 l 1
 266 385 276 387 289 390 c 2
 326 389 l 1
 360 378 l 1
 391 359 l 1
 417 330 l 1
 436 295 l 1
 449 253 l 1
 453 205 l 2
 452 186 450 171 448 150 c 1
 447 147 l 1
 438 111 l 1
 421 70 l 1
 399 36 l 1
 371 7 l 1
 340 -16 l 1
 308 -34 l 1
 272 -47 l 1
 235 -54 l 1
 199 -53 l 1
 160 -45 l 2
 155 -40 160 -40 147 -40 c 1
 158 -41 146 -41 160 -35 c 2
EndSplineSet
Comment: "Kage: aj1-00525+AAoA-Alias: uf020d"
EndChar
StartChar: uF020E
Encoding: 983566 983566 104
Width: 500
VWidth: 0
Flags: MW
LayerCount: 2
Fore
SplineSet
171 74 m 1
 163 101 l 1
 157 149 l 1
 153 203 l 1
 152 265 l 1
 162 268 l 1
 175 277 l 1
 157 252 l 1
 144 225 l 1
 132 198 l 1
 125 169 l 1
 119 139 l 1
 115 104 l 1
 115 103 l 1
 114 99 l 1
 112 89 l 1
 109 72 l 1
 111 56 l 1
 111 50 l 1
 113 44 l 1
 115 36 l 1
 114 28 l 1
 120 24 l 1
 124 22 l 1
 126 21 l 1
 132 19 l 1
 130 19 l 1
 127 21 l 1
 135 27 l 1
 148 41 l 1
 164 62 l 1
 171 74 l 1
267 345 m 1
 278 348 l 1
 247 348 l 1
 246 348 l 1
 245 347 l 1
 225 317 l 1
 224 318 l 1
 224 265 l 1
 225 207 l 1
 228 158 l 1
 217 151 l 1
 215 179 l 1
 233 235 l 1
 251 297 l 1
 267 345 l 1
269 435 m 1
 261 456 l 1
 288 445 l 1
 299 443 l 1
 307 436 l 1
 315 427 l 1
 320 416 l 1
 326 406 l 1
 332 392 l 1
 337 377 l 1
 333 386 l 1
 333 390 l 1
 334 382 l 1
 339 382 l 1
 368 370 l 1
 394 349 l 1
 416 321 l 1
 434 287 l 1
 449 246 l 1
 457 197 l 1
 457 178 l 1
 457 160 l 1
 456 140 l 1
 453 122 l 1
 451 105 l 1
 446 86 l 1
 434 49 l 1
 417 12 l 1
 415 10 l 1
 402 -11 l 1
 384 -32 l 1
 366 -53 l 1
 345 -69 l 1
 323 -83 l 1
 299 -92 l 1
 276 -99 l 1
 251 -101 l 1
 222 -101 l 1
 221 -90 l 1
 245 -81 l 1
 265 -70 l 1
 283 -59 l 1
 298 -46 l 1
 312 -32 l 1
 324 -16 l 1
 337 2 l 1
 346 22 l 1
 353 37 l 1
 352 42 l 1
 359 54 l 1
 370 77 l 1
 372 77 l 1
 367 73 l 1
 370 87 l 1
 372 105 l 1
 375 122 l 1
 375 142 l 1
 376 165 l 1
 377 168 l 1
 377 180 l 1
 377 185 l 1
 377 201 l 1
 373 233 l 1
 369 262 l 1
 363 286 l 1
 355 306 l 1
 348 317 l 1
 339 327 l 1
 322 339 l 1
 329 335 l 1
 319 279 l 1
 301 214 l 1
 283 155 l 1
 266 104 l 1
 248 67 l 1
 255 51 l 1
 255 26 l 1
 236 5 l 1
 209 4 l 1
 210 9 l 1
 205 -7 l 1
 180 -31 l 1
 151 -46 l 1
 116 -51 l 1
 92 -39 l 1
 93 -39 l 1
 88 -37 l 1
 78 -25 l 1
 74 -14 l 1
 69 7 l 1
 64 30 l 1
 62 43 l 1
 59 68 l 1
 52 82 l 1
 44 111 l 1
 46 117 l 1
 52 152 l 1
 62 189 l 1
 78 222 l 1
 95 253 l 1
 117 281 l 1
 141 307 l 1
 152 325 l 1
 151 332 l 1
 156 408 l 1
 163 489 l 1
 168 478 l 1
 177 474 l 1
 157 477 l 1
 141 483 l 1
 126 492 l 1
 113 504 l 1
 105 519 l 1
 98 535 l 1
 95 550 l 1
 93 569 l 1
 91 611 l 1
 102 611 l 1
 107 590 l 1
 116 575 l 1
 124 563 l 1
 132 553 l 1
 139 547 l 1
 146 544 l 1
 152 542 l 1
 158 541 l 1
 163 543 l 1
 154 538 l 1
 154 540 l 1
 171 545 l 1
 172 579 l 1
 189 686 l 1
 187 684 l 1
 189 678 l 1
 190 682 l 1
 189 686 l 1
 190 689 l 1
 189 693 l 1
 182 695 l 1
 173 715 l 1
 198 709 l 1
 208 710 l 1
 217 705 l 1
 225 700 l 1
 234 694 l 1
 243 685 l 1
 248 672 l 1
 248 671 l 1
 255 662 l 1
 258 648 l 1
 249 622 l 1
 250 623 l 1
 244 570 l 1
 235 559 l 1
 233 567 l 1
 249 573 l 1
 263 581 l 1
 290 599 l 1
 302 608 l 1
 315 622 l 1
 338 630 l 1
 364 620 l 1
 375 593 l 1
 365 570 l 1
 348 554 l 1
 317 528 l 1
 282 509 l 1
 262 499 l 1
 243 492 l 1
 234 491 l 1
 235 483 l 1
 228 403 l 1
 219 364 l 1
 231 365 l 1
 234 367 l 1
 240 369 l 1
 242 370 l 1
 242 370 l 1
 274 386 l 1
 276 381 l 1
 275 381 l 1
 266 387 l 1
 267 391 l 1
 272 390 l 1
 270 386 l 1
 273 406 l 1
 275 412 l 1
 273 419 l 1
 275 424 l 1
 275 427 l 1
 274 433 l 1
 269 435 l 1
EndSplineSet
Comment: "Kage: aj1-00526+AAoA-Alias: uf020e"
EndChar
StartChar: uF020F
Encoding: 983567 983567 105
Width: 500
VWidth: 0
Flags: MW
LayerCount: 2
Fore
SplineSet
62 337 m 1
 64 408 l 1
 66 478 l 1
 72 543 l 1
 76 553 l 1
 74 560 l 1
 75 569 l 1
 73 577 l 1
 71 585 l 1
 69 592 l 1
 67 599 l 1
 59 605 l 1
 65 617 l 1
 75 611 l 1
 85 609 l 1
 94 604 l 1
 105 599 l 1
 113 589 l 1
 123 579 l 1
 129 567 l 1
 135 555 l 1
 135 551 l 1
 138 550 l 1
 143 533 l 1
 144 521 l 1
 141 508 l 1
 138 473 l 1
 136 406 l 1
 134 337 l 1
 136 269 l 1
 140 203 l 1
 146 145 l 1
 157 95 l 1
 170 56 l 1
 159 60 l 1
 149 60 l 1
 154 87 l 1
 162 117 l 1
 169 151 l 1
 182 190 l 1
 194 233 l 1
 210 281 l 1
 228 338 l 1
 237 333 l 1
 230 277 l 1
 225 227 l 1
 221 182 l 1
 217 142 l 1
 211 107 l 1
 209 77 l 1
 208 54 l 1
 210 34 l 1
 210 23 l 1
 212 13 l 1
 210 6 l 1
 213 -12 l 1
 196 -35 l 1
 168 -38 l 1
 128 -12 l 1
 103 28 l 1
 86 77 l 1
 75 133 l 1
 68 198 l 1
 64 265 l 1
 62 337 l 1
340 174 m 1
 353 181 l 1
 361 188 l 1
 369 195 l 1
 376 204 l 1
 380 212 l 1
 387 218 l 1
 396 224 l 1
 394 220 l 1
 390 223 l 1
 386 269 l 1
 382 309 l 1
 376 349 l 1
 370 383 l 1
 361 415 l 1
 353 444 l 1
 340 469 l 1
 329 492 l 1
 314 516 l 1
 320 528 l 1
 348 512 l 1
 373 495 l 1
 393 469 l 1
 411 441 l 1
 428 408 l 1
 441 371 l 1
 452 332 l 1
 460 287 l 1
 465 237 l 1
 468 183 l 1
 454 159 l 1
 455 159 l 1
 454 151 l 1
 428 140 l 1
 403 149 l 1
 391 173 l 1
 394 169 l 1
 403 166 l 1
 396 166 l 1
 388 168 l 1
 379 169 l 1
 368 169 l 1
 358 169 l 1
 345 165 l 1
 340 174 l 1
EndSplineSet
Comment: "Kage: aj1-00527+AAoA-Alias: uf020f"
EndChar
